<svg width="20" height="16" viewBox="0 0 20 16" fill="none" xmlns="http://www.w3.org/2000/svg">
<path d="M19.128 8C19.128 6.74286 18.0994 5.71429 16.8423 5.71429V2.28571C16.8423 1.02857 15.8137 0 14.5566 0H5.41371C4.15657 0 3.128 1.02857 3.128 2.28571V5.71429C1.87086 5.71429 0.842285 6.74286 0.842285 8V13.7143H2.36229L3.128 16H4.27086L5.03657 13.7143H14.9451L15.6994 16H16.8423L17.608 13.7143H19.128V8ZM14.5566 5.71429H11.128V2.28571H14.5566V5.71429ZM5.41371 2.28571H8.84229V5.71429H5.41371V2.28571ZM3.128 8H16.8423V11.4286H3.128V8Z" fill="#23174B"/>
</svg>
