<svg width="53" height="53" viewBox="0 0 53 53" fill="none" xmlns="http://www.w3.org/2000/svg">
<path d="M26.6398 0.714111C12.4932 0.714111 0.965332 12.242 0.965332 26.3886C0.965332 40.5353 12.4932 52.0631 26.6398 52.0631C40.7865 52.0631 52.3144 40.5353 52.3144 26.3886C52.3144 12.242 40.7865 0.714111 26.6398 0.714111ZM35.2665 32.2938C36.011 33.0383 36.011 34.2707 35.2665 35.0153C34.8814 35.4004 34.3935 35.5801 33.9057 35.5801C33.4179 35.5801 32.9301 35.4004 32.545 35.0153L26.6398 29.1101L20.7347 35.0153C20.3496 35.4004 19.8618 35.5801 19.374 35.5801C18.8861 35.5801 18.3983 35.4004 18.0132 35.0153C17.2686 34.2707 17.2686 33.0383 18.0132 32.2938L23.9183 26.3886L18.0132 20.4835C17.2686 19.7389 17.2686 18.5065 18.0132 17.762C18.7578 17.0174 19.9901 17.0174 20.7347 17.762L26.6398 23.6671L32.545 17.762C33.2895 17.0174 34.5219 17.0174 35.2665 17.762C36.011 18.5065 36.011 19.7389 35.2665 20.4835L29.3613 26.3886L35.2665 32.2938Z" fill="#25252D"/>
</svg>
