<svg xmlns="http://www.w3.org/2000/svg" width="22" height="23" viewBox="0 0 22 23" fill="none">
  <g clip-path="url(#clip0_94_2554)">
    <path d="M10.991 2.77148C5.93099 2.77148 1.8335 6.87815 1.8335 11.9381C1.8335 16.9981 5.93099 21.1048 10.991 21.1048C16.0602 21.1048 20.1668 16.9981 20.1668 11.9381C20.1668 6.87815 16.0602 2.77148 10.991 2.77148ZM17.3435 8.27148H14.6393C14.346 7.12565 13.9243 6.02565 13.3743 5.00815C15.061 5.58565 16.4635 6.75898 17.3435 8.27148ZM11.0002 4.64148C11.761 5.74148 12.3568 6.96065 12.751 8.27148H9.24933C9.64349 6.96065 10.2393 5.74148 11.0002 4.64148ZM3.90516 13.7715C3.7585 13.1848 3.66683 12.5706 3.66683 11.9381C3.66683 11.3056 3.7585 10.6915 3.90516 10.1048H7.00349C6.93016 10.7098 6.87516 11.3148 6.87516 11.9381C6.87516 12.5615 6.93016 13.1665 7.00349 13.7715H3.90516ZM4.65683 15.6048H7.36099C7.65433 16.7506 8.07599 17.8506 8.62599 18.8681C6.93933 18.2906 5.53683 17.1265 4.65683 15.6048ZM7.36099 8.27148H4.65683C5.53683 6.74982 6.93933 5.58565 8.62599 5.00815C8.07599 6.02565 7.65433 7.12565 7.36099 8.27148ZM11.0002 19.2348C10.2393 18.1348 9.64349 16.9156 9.24933 15.6048H12.751C12.3568 16.9156 11.761 18.1348 11.0002 19.2348ZM13.1452 13.7715H8.85516C8.77266 13.1665 8.70849 12.5615 8.70849 11.9381C8.70849 11.3148 8.77266 10.7006 8.85516 10.1048H13.1452C13.2277 10.7006 13.2918 11.3148 13.2918 11.9381C13.2918 12.5615 13.2277 13.1665 13.1452 13.7715ZM13.3743 18.8681C13.9243 17.8506 14.346 16.7506 14.6393 15.6048H17.3435C16.4635 17.1173 15.061 18.2906 13.3743 18.8681ZM14.9968 13.7715C15.0702 13.1665 15.1252 12.5615 15.1252 11.9381C15.1252 11.3148 15.0702 10.7098 14.9968 10.1048H18.0952C18.2418 10.6915 18.3335 11.3056 18.3335 11.9381C18.3335 12.5706 18.2418 13.1848 18.0952 13.7715H14.9968Z" fill="#23174B"/>
  </g>
  <defs>
    <clipPath id="clip0_94_2554">
      <rect width="22" height="22" fill="white" transform="translate(0 0.938232)"/>
    </clipPath>
  </defs>
</svg>