<svg width="17" height="17" viewBox="0 0 17 17" fill="none" xmlns="http://www.w3.org/2000/svg">
<path d="M15.7 8.50003C15.7 12.4684 12.4776 15.6875 8.5 15.6875C4.52237 15.6875 1.3 12.4684 1.3 8.50003C1.3 4.53165 4.52237 1.31251 8.5 1.31251C12.4776 1.31251 15.7 4.53165 15.7 8.50003Z" stroke="#23174B" stroke-width="1.6"/>
<path d="M8.90176 7.95253C7.83143 7.67478 7.48722 7.3876 7.48722 6.94037C7.48722 6.42722 7.96345 6.06943 8.76031 6.06943C9.5996 6.06943 9.9108 6.46959 9.93909 7.05806H10.9811C10.9481 6.24832 10.453 5.5045 9.46758 5.2644V4.2334H8.05304V5.25028C7.1383 5.448 6.40274 6.04118 6.40274 6.94978C6.40274 8.03728 7.30333 8.57867 8.61885 8.89409C9.79763 9.17655 10.0334 9.59084 10.0334 10.0287C10.0334 10.3535 9.80235 10.8714 8.76031 10.8714C7.78899 10.8714 7.40707 10.4382 7.3552 9.88272H6.31787C6.37445 10.9137 7.14773 11.4928 8.05304 11.6858V12.7074H9.46758V11.6952C10.387 11.521 11.1179 10.989 11.1179 10.024C11.1179 8.68695 9.97209 8.23029 8.90176 7.95253Z" fill="#23174B"/>
</svg>
