<svg xmlns="http://www.w3.org/2000/svg" width="18" height="18" viewBox="0 0 18 18" fill="none">
  <path d="M13.3207 0.649658L12.1201 1.85034L14.067 3.79729H13.5695C8.42106 3.79729 4.2294 7.98895 4.2294 13.1374V13.9865H5.9276V13.1374C5.9276 8.90667 9.33878 5.49549 13.5695 5.49549H14.067L12.1201 7.44245L13.3207 8.64313L17.3175 4.64639L13.3207 0.649658ZM0.833008 5.49549V6.34459V14.8356C0.833008 16.2323 1.98356 17.3829 3.3803 17.3829H15.2677C16.6644 17.3829 17.815 16.2323 17.815 14.8356V13.9865V13.1374H16.1168V13.9865V14.8356C16.1168 15.3153 15.7475 15.6847 15.2677 15.6847H3.3803C2.90054 15.6847 2.53121 15.3153 2.53121 14.8356V6.34459V5.49549H0.833008Z" fill="white"/>
</svg>