<svg width="17" height="16" viewBox="0 0 17 16" fill="none" xmlns="http://www.w3.org/2000/svg">
<path d="M8.17562 0V2H9.50895V0H8.17562ZM3.65739 1.8724L2.71468 2.8151L4.12874 4.22917L5.07145 3.28646L3.65739 1.8724ZM14.0272 1.8724L12.6131 3.28646L13.5558 4.22917L14.9699 2.8151L14.0272 1.8724ZM8.84229 3.33333C7.60461 3.33333 6.41762 3.825 5.54245 4.70017C4.66728 5.57534 4.17562 6.76232 4.17562 8C4.17562 9.23768 4.66728 10.4247 5.54245 11.2998C6.41762 12.175 7.60461 12.6667 8.84229 12.6667C10.08 12.6667 11.2669 12.175 12.1421 11.2998C13.0173 10.4247 13.509 9.23768 13.509 8C13.509 6.76232 13.0173 5.57534 12.1421 4.70017C11.2669 3.825 10.08 3.33333 8.84229 3.33333ZM0.842285 7.33333V8.66667H2.84229V7.33333H0.842285ZM14.8423 7.33333V8.66667H16.8423V7.33333H14.8423ZM4.12874 11.7708L2.71468 13.1849L3.65739 14.1276L5.07145 12.7135L4.12874 11.7708ZM13.5558 11.7708L12.6131 12.7135L14.0272 14.1276L14.9699 13.1849L13.5558 11.7708ZM8.17562 14V16H9.50895V14H8.17562Z" fill="#23174B"/>
</svg>
