<svg width="1133" height="383" viewBox="0 0 1133 383" fill="none" xmlns="http://www.w3.org/2000/svg">
<path d="M89.5 333.5C89.5 333.5 307 186.5 621 263C928.759 337.98 983 122.5 1073.5 56" stroke="#FF6549" stroke-width="6" stroke-linejoin="round" stroke-dasharray="14 14"/>
<g clip-path="url(#clip0_5802_343)">
<path d="M45.5511 344.095C45.1313 343.423 44.5873 342.843 43.9276 342.368C43.7021 342.206 43.5509 342.234 43.3901 342.462C42.6287 343.539 41.857 344.61 41.0886 345.684C40.921 345.917 40.8555 346.125 41.1045 346.374C41.2683 346.538 41.3849 346.772 41.4629 346.995C41.5473 347.237 41.7006 347.278 41.9122 347.258C43.2499 347.133 44.5866 347.002 45.9251 346.887C46.2144 346.862 46.2998 346.732 46.2737 346.465C46.1911 345.632 45.946 344.851 45.5511 344.095Z" fill="#FFB1A8"/>
<path d="M36.5448 349.302C35.5296 348.954 34.5334 348.608 33.5337 348.272C33.2149 348.165 32.8613 348.11 32.9482 347.547C32.069 347.939 31.2719 348.295 30.4744 348.65L30.4577 348.769C31.9236 349.269 33.3904 349.769 34.8752 350.276C34.5749 351.79 34.2732 353.314 33.9707 354.837L34.046 354.884C34.7623 354.375 35.4796 353.867 36.2717 353.304C35.6373 353.028 35.8583 352.599 35.9428 352.194C36.1444 351.231 36.3432 350.267 36.5444 349.301L36.5448 349.302Z" fill="#FFB1A8"/>
<path d="M24.9071 356.043C24.7758 356.635 24.6285 357.212 24.5255 357.797C24.4362 358.301 24.7676 358.645 25.272 358.623C25.5821 358.609 25.8022 358.456 25.8887 358.163C25.9761 357.867 26.0316 357.561 26.0876 357.258C26.1305 357.025 26.2462 356.949 26.4901 356.952C27.1307 356.959 27.7718 356.942 28.411 356.908C28.5479 356.9 28.6788 356.781 28.8129 356.714C28.7052 356.6 28.6181 356.435 28.4857 356.381C27.9036 356.141 27.3081 355.934 26.7545 355.729C26.7362 355.441 26.8035 355.115 26.6764 354.91C26.5494 354.706 26.2264 354.624 25.9411 354.46C26.0469 353.951 26.1671 353.37 26.2876 352.789C26.3038 352.711 26.3407 352.631 26.3342 352.554C26.3251 352.45 26.2834 352.348 26.2556 352.246C26.1559 352.282 26.0245 352.289 25.9617 352.358C25.7624 352.579 25.5716 352.811 25.4101 353.059C25.1983 353.385 24.9968 353.722 24.8313 354.073C24.7094 354.333 24.5584 354.369 24.3149 354.277C24.0582 354.18 23.7985 354.084 23.5313 354.024C23.1226 353.931 22.8456 354.101 22.7304 354.477C22.5985 354.908 22.7146 355.238 23.0968 355.389C23.6926 355.623 24.3009 355.827 24.9072 356.045L24.9071 356.043Z" fill="#FFB1A8"/>
<path d="M42.3359 341.366C42.0713 341.304 41.8648 341.225 41.6534 341.21C40.6251 341.142 39.5949 341.083 38.5648 341.044C38.4638 341.04 38.2763 341.174 38.2637 341.263C38.0772 342.545 37.9135 343.831 37.7464 345.116C37.7439 345.136 37.7575 345.159 37.7634 345.18C38.355 345.239 38.9456 345.306 39.5384 345.347C39.6241 345.354 39.7444 345.255 39.8055 345.173C40.1076 344.77 40.4053 344.362 40.686 343.944C41.1973 343.181 41.6954 342.41 42.1973 341.641C42.2394 341.577 42.2668 341.504 42.3359 341.366Z" fill="#FFB1A8"/>
<path d="M46.2765 348.31C45.8005 348.338 45.3462 348.361 44.8929 348.39C43.8976 348.455 42.9025 348.529 41.9069 348.588C41.6223 348.604 41.4642 348.705 41.3604 348.994C41.2265 349.368 41.0202 349.719 40.8252 350.069C40.7124 350.27 40.7064 350.393 40.9477 350.491C42.0731 350.949 43.1929 351.421 44.3204 351.873C44.4144 351.91 44.6154 351.877 44.6616 351.808C45.3414 350.781 45.9292 349.707 46.2626 348.511C46.2766 348.459 46.2709 348.402 46.2765 348.31Z" fill="#FFB1A8"/>
<path d="M13.4207 364.613C13.7094 364.447 13.9974 364.281 14.2861 364.115C15.1131 363.638 15.4602 362.666 15.1211 361.777C14.8355 361.027 13.8938 360.581 13.0024 360.776C12.9025 360.798 12.7999 360.826 12.7114 360.874C12.0686 361.229 11.4156 361.568 10.7923 361.956C9.6214 362.683 9.55882 364.352 10.6725 365.064C11.251 365.435 11.8702 365.5 12.4954 365.145C12.8045 364.968 13.1123 364.79 13.4207 364.613ZM12.8386 363.747L12.8393 363.748C12.5907 363.891 12.3456 364.04 12.0936 364.175C11.6806 364.397 11.2329 364.29 11.0069 363.925C10.7946 363.582 10.9074 363.065 11.278 362.835C11.7745 362.528 12.2813 362.234 12.7981 361.962C13.1668 361.767 13.6884 361.948 13.8756 362.296C14.0663 362.65 13.9292 363.103 13.5536 363.334C13.3194 363.479 13.0776 363.61 12.8386 363.747Z" fill="#FFB1A8"/>
<path d="M27.2579 351.12C28.5057 351.571 29.7529 352.022 31.0168 352.478C30.7842 353.777 30.5498 355.091 30.3153 356.404C30.3485 356.44 30.3824 356.475 30.4157 356.511C30.9204 356.354 31.4303 356.211 31.9241 356.023C31.994 355.997 32.0468 355.725 31.9971 355.618C31.85 355.301 31.8924 354.999 31.9624 354.682C32.1896 353.641 32.4081 352.599 32.6386 351.518C31.8649 351.25 31.1204 350.991 30.375 350.736C30.0605 350.629 29.7321 350.555 29.4289 350.422C29.2087 350.326 29.0006 350.181 28.8239 350.017C28.6339 349.842 28.4692 349.769 28.263 349.966C27.9187 350.295 27.5757 350.625 27.2327 350.954C27.2414 351.01 27.2501 351.065 27.2583 351.121L27.2579 351.12Z" fill="#FFB1A8"/>
<path d="M7.22962 366.897C6.74152 367.178 6.25676 367.463 5.76487 367.737C5.5194 367.874 5.50319 368.018 5.68633 368.224C6.38718 369.013 7.21057 369.636 8.1643 370.094C8.40854 370.211 8.54728 370.165 8.64341 369.921C9.04601 368.897 9.45145 367.874 9.85499 366.85C9.8677 366.818 9.89031 366.764 9.87822 366.753C9.60928 366.501 9.34658 366.24 9.05517 366.017C8.98495 365.963 8.80133 366.008 8.6948 366.06C8.43655 366.184 8.19368 366.34 7.94514 366.483C7.70617 366.62 7.46721 366.757 7.22825 366.895L7.22997 366.898L7.22962 366.897Z" fill="#FFB1A8"/>
<path d="M9.15076 361.171C8.35904 360.318 7.5886 359.49 6.8232 358.659C6.64512 358.466 6.49902 358.458 6.31403 358.663C5.65672 359.393 5.1063 360.19 4.72672 361.097C4.5485 361.523 4.58601 361.584 5.02271 361.67C6.04497 361.871 7.06826 362.068 8.0884 362.281C8.33005 362.331 8.47527 362.269 8.59577 362.056C8.76375 361.759 8.95761 361.477 9.15076 361.171Z" fill="#FFB1A8"/>
<path d="M35.178 360.671L37.83 359.146C37.7329 359.023 37.631 358.879 37.5149 358.748C36.7808 357.917 36.0364 357.096 35.3134 356.256C35.1166 356.027 34.9613 355.994 34.7148 356.166C34.4719 356.337 34.2106 356.49 33.9398 356.612C33.6639 356.736 33.6366 356.908 33.7409 357.157C34.088 357.991 34.4308 358.826 34.7733 359.662C34.9023 359.976 35.0268 360.292 35.1784 360.671L35.178 360.671Z" fill="#FFB1A8"/>
<path d="M28.6324 343.212C28.4353 343.326 28.2281 343.439 28.026 343.562C27.4476 343.912 26.8716 344.267 26.2932 344.618C26.1001 344.736 26.0479 344.857 26.2096 345.055C26.9472 345.957 27.6801 346.863 28.4038 347.777C28.5578 347.972 28.6938 347.986 28.898 347.863C29.2024 347.681 29.529 347.533 29.829 347.344C29.915 347.29 30.0142 347.122 29.9891 347.045C29.5849 345.806 29.1618 344.574 28.7406 343.341C28.7308 343.312 28.6983 343.29 28.6314 343.212L28.6324 343.212Z" fill="#FFB1A8"/>
<path d="M9.88171 370.779C10.3194 370.839 10.6495 370.938 10.9732 370.919C11.749 370.873 12.5214 370.776 13.2946 370.689C13.5131 370.665 13.614 370.548 13.539 370.306C13.2093 369.246 12.8927 368.183 12.5551 367.125C12.5307 367.05 12.3789 366.981 12.2802 366.97C12.148 366.956 12.0032 367.037 11.874 367.016C11.2853 366.922 11.0916 367.25 10.9435 367.75C10.6873 368.618 10.3659 369.467 10.0691 370.323C10.0245 370.452 9.96601 370.576 9.88197 370.778L9.88171 370.779Z" fill="#FFB1A8"/>
<path d="M31.4974 346.587C31.9536 346.458 32.4276 346.331 32.8967 346.188C33.1684 346.105 33.1153 345.869 33.0993 345.669C33.0106 344.573 32.9168 343.479 32.8224 342.384C32.8049 342.182 32.7782 341.98 32.7478 341.712C32.2414 341.863 31.7727 341.996 31.3088 342.142C31.0247 342.232 30.7393 342.326 30.4717 342.453C30.3783 342.497 30.2587 342.672 30.281 342.748C30.6501 344.01 31.0395 345.265 31.4262 346.521C31.4319 346.54 31.4579 346.552 31.4974 346.587Z" fill="#FFB1A8"/>
<path d="M41.2241 356.446C40.7468 356.116 40.3504 355.846 39.9587 355.569C39.2866 355.093 38.6145 354.617 37.949 354.132C37.695 353.946 37.49 353.942 37.258 354.18C36.9557 354.491 36.6246 354.775 36.2868 355.088C36.3543 355.171 36.4063 355.242 36.4659 355.305C37.2637 356.157 38.0609 357.009 38.8622 357.856C39.1875 358.2 39.2005 358.207 39.5489 357.912C40.0961 357.447 40.6307 356.967 41.2238 356.446L41.2241 356.446Z" fill="#FFB1A8"/>
<path d="M6.577 365.695C7.05433 365.421 7.52684 365.138 8.01078 364.877C8.20817 364.769 8.28636 364.66 8.24788 364.42C8.12467 363.661 8.13785 363.653 7.36976 363.522C6.46703 363.366 5.56057 363.232 4.65893 363.069C4.35956 363.016 4.26761 363.139 4.24986 363.402C4.17791 364.442 4.31187 365.454 4.64515 366.442C4.72515 366.678 4.85656 366.704 5.063 366.582C5.56684 366.285 6.07591 365.998 6.58318 365.706L6.57769 365.696L6.577 365.695Z" fill="#FFB1A8"/>
<path d="M25.1172 351.198C24.992 351.091 24.896 350.996 24.7873 350.918C23.9491 350.318 23.105 349.727 22.2711 349.12C21.9887 348.915 21.8009 348.941 21.5951 349.236C21.2806 349.687 20.9324 350.116 20.5858 350.544C20.4359 350.729 20.4428 350.845 20.648 350.983C21.5229 351.571 22.3932 352.165 23.2572 352.768C23.4985 352.937 23.6631 352.938 23.8587 352.69C24.2559 352.189 24.681 351.71 25.1171 351.197L25.1172 351.198Z" fill="#FFB1A8"/>
<path d="M29.0525 358.19C28.3743 358.314 27.6771 358.434 26.9866 358.583C26.9099 358.599 26.8151 358.79 26.8213 358.894C26.884 360.001 26.9665 361.108 27.0415 362.214C27.0556 362.417 27.1454 362.489 27.3539 362.458C27.9657 362.366 28.5791 362.286 29.1933 362.209C29.3868 362.185 29.4911 362.101 29.4713 361.9C29.3531 360.694 29.2338 359.488 29.1135 358.282C29.1117 358.262 29.09 358.245 29.0529 358.191L29.0525 358.19Z" fill="#FFB1A8"/>
<path d="M43.7471 353.271C43.2566 353.055 42.8398 352.868 42.421 352.688C41.6096 352.34 40.7936 352.003 39.9875 351.644C39.7587 351.543 39.6089 351.569 39.4551 351.767C39.1967 352.101 38.9193 352.42 38.6218 352.778C38.8864 352.96 39.1283 353.127 39.3719 353.293C40.2235 353.873 41.0791 354.448 41.9258 355.036C42.1712 355.206 42.3404 355.2 42.5222 354.939C42.9021 354.396 43.3065 353.868 43.7471 353.271Z" fill="#FFB1A8"/>
<path d="M36.7035 341.125C36.3048 341.162 35.8966 341.191 35.4914 341.239C34.7278 341.328 34.3669 341.748 34.4086 342.499C34.4619 343.448 34.5178 344.398 34.5742 345.347C34.5816 345.471 34.6007 345.594 34.6208 345.777C35.1363 345.69 35.6294 345.615 36.1163 345.514C36.1827 345.5 36.2599 345.363 36.27 345.275C36.4345 343.944 36.5896 342.611 36.7454 341.279C36.7492 341.248 36.7284 341.214 36.7029 341.126L36.7035 341.125Z" fill="#FFB1A8"/>
<path d="M13.1273 358.807C13.1972 359.002 13.3449 359.054 13.5743 358.965C13.8944 358.842 14.2222 358.737 14.5491 358.629C14.7668 358.557 14.847 358.446 14.7974 358.195C14.5783 357.073 14.3853 355.947 14.1812 354.823C14.1131 354.45 14.0763 354.433 13.7408 354.575C13.1188 354.841 12.4972 355.107 11.8717 355.364C11.6735 355.447 11.5635 355.53 11.6806 355.771C12.1654 356.768 12.6357 357.772 13.1269 358.807L13.1273 358.807Z" fill="#FFB1A8"/>
<path d="M16.6536 364.932C17.2131 365.77 17.7714 366.608 18.3326 367.444C18.545 367.761 18.6296 367.77 18.9338 367.535C19.4611 367.129 19.9858 366.719 20.5235 366.328C20.7296 366.178 20.7871 366.07 20.5672 365.885C19.6913 365.15 18.8197 364.409 17.9522 363.664C17.7775 363.514 17.6359 363.531 17.4694 363.669C17.2321 363.868 16.9815 364.051 16.7403 364.246C16.3819 364.534 16.3824 364.548 16.6542 364.932L16.6536 364.932Z" fill="#FFB1A8"/>
<path d="M32.2803 357.516C32.2088 357.51 32.0937 357.47 31.9975 357.497C31.6118 357.605 31.2257 357.718 30.8537 357.865C30.7563 357.904 30.6417 358.078 30.6506 358.18C30.7508 359.296 30.8776 360.409 30.9874 361.523C31.012 361.775 31.1052 361.862 31.3633 361.796C31.9732 361.638 32.5897 361.505 33.2001 361.35C33.5985 361.249 33.645 361.163 33.5002 360.767C33.1975 359.941 32.8787 359.12 32.5681 358.297C32.4792 358.062 32.3942 357.825 32.2803 357.516Z" fill="#FFB1A8"/>
<path d="M27.3773 348.89C26.8832 348.314 26.4069 347.761 25.9326 347.208C25.6201 346.843 25.3082 346.478 25.0001 346.11C24.8032 345.874 24.6269 345.814 24.3893 346.084C23.9732 346.558 23.5323 347.009 23.0988 347.466C22.9465 347.627 22.9556 347.737 23.1469 347.874C24.0761 348.541 24.9939 349.225 25.9222 349.893C25.9958 349.946 26.1638 349.981 26.2149 349.938C26.6055 349.607 26.9785 349.255 27.3779 348.889L27.3773 348.89Z" fill="#FFB1A8"/>
<path d="M8.99678 356.781C8.69853 356.952 8.39899 357.123 8.10142 357.296C7.90173 357.411 7.85954 357.539 8.03427 357.728C8.77847 358.534 9.51388 359.349 10.2522 360.161C10.4594 360.389 10.6783 360.435 10.947 360.244C11.133 360.112 11.3372 359.999 11.5459 359.906C11.8173 359.785 11.8711 359.594 11.7527 359.352C11.2587 358.346 10.7612 357.341 10.2474 356.345C10.2116 356.276 10.0068 356.222 9.92792 356.259C9.60789 356.412 9.30615 356.604 8.99772 356.781C8.99772 356.781 8.99738 356.781 8.99703 356.78L8.99678 356.781Z" fill="#FFB1A8"/>
<path d="M15.0846 370.011C15.6547 369.683 16.1913 369.379 16.724 369.068C17.3415 368.707 17.3475 368.7 16.9588 368.111C16.4347 367.318 15.8945 366.536 15.3674 365.746C15.1898 365.48 15.011 365.419 14.7146 365.607C13.7581 366.21 13.7623 365.986 14.1433 367.142C14.4157 367.968 14.6653 368.802 14.9283 369.631C14.9649 369.746 15.0203 369.855 15.0861 370.011L15.0846 370.011Z" fill="#FFB1A8"/>
<path d="M18.1113 359.886C18.0293 360.253 17.9367 360.608 17.8747 360.967C17.8023 361.389 17.9565 361.62 18.3361 361.713C18.7332 361.811 18.9835 361.671 19.1068 361.242C19.2656 360.692 19.4171 360.139 19.5392 359.581C19.6416 359.111 19.5274 358.926 19.073 358.778C18.507 358.595 17.9373 358.422 17.362 358.271C16.9817 358.17 16.7697 358.309 16.6511 358.668C16.5177 359.072 16.631 359.361 16.9962 359.511C17.1755 359.585 17.3654 359.634 17.5499 359.695C17.7343 359.757 17.9173 359.82 18.1107 359.886L18.1113 359.886Z" fill="#FFB1A8"/>
<path d="M38.7537 348.058C38.6104 348.752 38.4631 349.412 38.3472 350.078C38.3248 350.206 38.4238 350.353 38.467 350.492C38.6132 350.425 38.8183 350.397 38.8962 350.283C39.398 349.55 39.7795 348.753 39.998 347.889C40.1141 347.431 39.945 347.153 39.4936 347.026C38.6226 346.782 37.7274 346.746 36.8304 346.806C36.7053 346.815 36.59 346.977 36.4702 347.068C36.565 347.168 36.6422 347.316 36.7588 347.359C37.4124 347.604 38.0753 347.823 38.7537 348.058Z" fill="#FFB1A8"/>
<path d="M19.2805 355.874C19.7252 355.559 20.1508 355.268 20.5631 354.96C20.6779 354.874 20.7721 354.747 20.8437 354.62C20.9636 354.412 20.9599 354.19 20.7669 354.028C20.5642 353.858 20.3886 353.958 20.184 354.091C19.1503 354.766 18.1407 355.489 16.9216 355.822C16.7949 355.856 16.6389 356.016 16.6174 356.138C16.5957 356.261 16.6918 356.449 16.7962 356.539C17.0464 356.756 17.3628 356.728 17.6441 356.612C18.204 356.38 18.7505 356.115 19.2811 355.873L19.2805 355.874Z" fill="#FFB1A8"/>
<path d="M22.2745 360.817C21.7404 361.191 21.1869 361.541 20.683 361.951C20.5013 362.099 20.3833 362.383 20.341 362.623C20.317 362.76 20.4702 363 20.6068 363.069C20.7087 363.12 20.9326 362.999 21.0657 362.903C21.3984 362.664 21.6856 362.353 22.0364 362.15C22.7489 361.737 23.4955 361.383 24.2173 360.987C24.3396 360.92 24.4875 360.758 24.4864 360.641C24.4854 360.5 24.3593 360.258 24.253 360.238C24.0019 360.191 23.7091 360.191 23.4715 360.277C23.0645 360.424 22.6863 360.652 22.2962 360.845C22.2888 360.835 22.2808 360.826 22.2735 360.816L22.2745 360.817Z" fill="#FFB1A8"/>
<path d="M22.5382 357.324C22.3785 357.046 22.2278 356.763 22.0573 356.493C21.8287 356.13 21.4546 356.013 21.1492 356.19C20.8804 356.346 20.7817 356.718 20.9707 357.076C21.2804 357.661 21.6109 358.238 21.9607 358.801C22.1699 359.137 22.5809 359.224 22.858 359.043C23.1382 358.86 23.2014 358.483 23.0046 358.124C22.8561 357.853 22.698 357.588 22.5442 357.321C22.5424 357.322 22.54 357.323 22.5382 357.324Z" fill="#FFB1A8"/>
<path d="M23.2805 362.904C22.9911 363.116 22.6143 363.376 22.2577 363.662C22.1291 363.765 22.0253 363.919 21.9535 364.069C21.8383 364.311 21.8842 364.551 22.0995 364.719C22.3164 364.888 22.4891 364.745 22.6834 364.621C23.3391 364.205 24.0032 363.8 24.6781 363.416C25.004 363.23 25.1426 363.026 25.0348 362.742C24.9295 362.463 24.6688 362.339 24.3235 362.457C23.9995 362.567 23.6915 362.725 23.2805 362.904Z" fill="#FFB1A8"/>
<path d="M17.9931 353.81C18.2817 353.644 18.5799 353.493 18.8544 353.307C18.9902 353.215 19.1545 353.069 19.177 352.928C19.205 352.752 19.1574 352.477 19.0364 352.388C18.9005 352.289 18.5934 352.268 18.4537 352.358C17.7294 352.823 17.0284 353.318 16.1934 353.584C16.0749 353.622 15.9411 353.836 15.9389 353.969C15.9349 354.213 16.1024 354.433 16.3583 354.43C16.635 354.428 16.9252 354.364 17.1838 354.262C17.4691 354.15 17.725 353.963 17.9933 353.809L17.9931 353.81Z" fill="#FFB1A8"/>
</g>
<g clip-path="url(#clip1_5802_343)">
<path d="M95.1075 354.836C95.4255 355.534 95.6022 356.282 95.6333 357.069C95.6436 357.338 95.5401 357.445 95.2705 357.453C93.9938 357.491 92.717 357.542 91.4396 357.588C91.1613 357.598 90.9587 357.54 90.891 357.206C90.8459 356.986 90.7198 356.767 90.5815 356.585C90.4309 356.388 90.48 356.242 90.6092 356.082C91.4251 355.069 92.2452 354.06 93.0536 353.041C93.2283 352.821 93.379 352.822 93.5807 352.986C94.2085 353.497 94.7081 354.113 95.1075 354.836Z" fill="#FFB1A8"/>
<path d="M86.0904 359.322C85.8287 360.327 85.5751 361.316 85.3122 362.303C85.2281 362.617 85.0836 362.932 85.5842 363.163C84.7981 363.663 84.085 364.116 83.3721 364.57L83.2669 364.52C83.6469 363.069 84.0271 361.618 84.4118 360.149C83.0295 359.582 81.6382 359.011 80.2466 358.441L80.2493 358.355C81.0428 358.049 81.8366 357.742 82.7141 357.403C82.5979 358.063 83.0624 358.114 83.4342 358.262C84.3195 358.614 85.2039 358.969 86.0907 359.322L86.0904 359.322Z" fill="#FFB1A8"/>
<path d="M74.4287 365.112C73.8806 364.901 73.3363 364.712 72.8094 364.482C72.3545 364.285 72.2542 363.834 72.5417 363.438C72.7184 363.195 72.96 363.1 73.2428 363.186C73.5282 363.274 73.8044 363.393 74.0791 363.509C74.2901 363.599 74.4132 363.547 74.5413 363.348C74.8781 362.827 75.2346 362.319 75.604 361.822C75.683 361.715 75.8489 361.673 75.9751 361.601C76.0094 361.748 76.0963 361.907 76.0693 362.043C75.9513 362.641 75.8001 363.232 75.6696 363.788C75.8925 363.957 76.192 364.077 76.289 364.289C76.3861 364.501 76.2799 364.806 76.2594 365.123C76.7269 365.31 77.2601 365.524 77.793 365.737C77.865 365.765 77.9493 365.778 78.0076 365.825C78.0871 365.888 78.1468 365.976 78.2146 366.053C78.1324 366.114 78.0564 366.217 77.9667 366.23C77.6824 366.273 77.3931 366.303 77.1061 366.301C76.7297 366.297 76.3501 366.28 75.9783 366.226C75.7039 366.186 75.5935 366.288 75.5378 366.534C75.4791 366.793 75.4174 367.054 75.3232 367.301C75.1795 367.681 74.8946 367.814 74.5293 367.706C74.1115 367.582 73.9065 367.312 73.9892 366.922C74.1189 366.317 74.279 365.716 74.4276 365.111L74.4287 365.112Z" fill="#FFB1A8"/>
<path d="M95.591 358.889C95.5 359.136 95.4536 359.345 95.3522 359.523C94.858 360.39 94.3542 361.253 93.8358 362.105C93.785 362.189 93.5766 362.269 93.498 362.231C92.3634 361.696 91.2382 361.141 90.1114 360.589C90.0935 360.58 90.0828 360.557 90.0687 360.541C90.3374 360.032 90.5991 359.52 90.8824 359.019C90.9231 358.947 91.0669 358.902 91.1659 358.897C91.6528 358.868 92.1413 358.846 92.6289 358.843C93.5179 358.838 94.406 358.848 95.2953 358.854C95.3695 358.854 95.443 358.871 95.591 358.889Z" fill="#FFB1A8"/>
<path d="M92.0923 351.997C91.8159 352.366 91.5542 352.72 91.2883 353.071C90.7039 353.839 90.1126 354.603 89.533 355.375C89.3676 355.596 89.2019 355.67 88.9129 355.599C88.5393 355.507 88.1459 355.486 87.7594 355.457C87.5364 355.44 87.4342 355.379 87.4839 355.132C87.7157 353.979 87.9335 352.823 88.1714 351.671C88.1914 351.575 88.3254 351.431 88.4061 351.431C89.5982 351.431 90.7799 351.531 91.9231 351.901C91.9725 351.917 92.0155 351.952 92.0923 351.997Z" fill="#FFB1A8"/>
<path d="M61.3726 369.802C61.6609 369.658 61.9485 369.514 62.2367 369.37C63.0637 368.957 64.034 369.197 64.5705 369.946C65.0226 370.577 64.8793 371.575 64.2459 372.191C64.175 372.26 64.0976 372.328 64.0112 372.373C63.3809 372.702 62.7584 373.048 62.1122 373.344C60.8996 373.901 59.5185 373.059 59.5391 371.779C59.5495 371.114 59.8277 370.58 60.4488 370.265C60.7561 370.11 61.0647 369.957 61.3726 369.802ZM61.7603 370.735L61.7597 370.734C61.5115 370.858 61.2604 370.976 61.0164 371.108C60.6169 371.322 60.4637 371.741 60.6378 372.119C60.8012 372.473 61.2782 372.658 61.6618 372.482C62.1755 372.246 62.6835 371.993 63.1795 371.722C63.5335 371.528 63.6661 371.01 63.4854 370.673C63.3017 370.33 62.8627 370.199 62.4755 370.378C62.2339 370.49 61.9989 370.616 61.7603 370.735Z" fill="#FFB1A8"/>
<path d="M79.659 365.846C79.9623 364.598 80.2651 363.35 80.5723 362.086C79.3995 361.579 78.2138 361.066 77.0282 360.553C77.0171 360.507 77.0067 360.461 76.9957 360.415C77.3925 360.092 77.7803 359.757 78.1957 359.459C78.2546 359.416 78.5017 359.519 78.5618 359.616C78.7389 359.904 79.0052 360.031 79.299 360.145C80.2605 360.518 81.2185 360.898 82.214 361.29C82.0164 362.058 81.8281 362.797 81.635 363.535C81.5539 363.846 81.4377 364.151 81.3826 364.466C81.3425 364.695 81.3489 364.941 81.3862 365.171C81.4262 365.418 81.3971 365.59 81.1277 365.651C80.6787 365.754 80.2285 365.854 79.7794 365.955C79.7394 365.918 79.6994 365.881 79.6587 365.845L79.659 365.846Z" fill="#FFB1A8"/>
<path d="M56.2196 373.578C55.7323 373.822 55.2431 374.061 54.7591 374.312C54.5172 374.437 54.3925 374.373 54.3239 374.115C54.0612 373.127 53.9986 372.13 54.1392 371.115C54.1752 370.856 54.2861 370.768 54.5348 370.821C55.5765 371.044 56.6191 371.263 57.661 371.485C57.6936 371.491 57.7489 371.502 57.7516 371.518C57.8109 371.869 57.8816 372.221 57.9057 372.575C57.912 372.661 57.7774 372.785 57.6787 372.843C57.4401 372.985 57.1848 373.098 56.9366 373.222C56.698 373.342 56.4594 373.461 56.2208 373.581L56.2193 373.578L56.2196 373.578Z" fill="#FFB1A8"/>
<path d="M61.8682 375.088C62.1338 376.184 62.3899 377.248 62.6516 378.31C62.7125 378.557 62.6404 378.679 62.3761 378.718C61.4362 378.859 60.4985 378.877 59.5632 378.699C59.1241 378.615 59.0948 378.552 59.2588 378.153C59.643 377.221 60.0308 376.29 60.4046 375.353C60.4931 375.131 60.6208 375.047 60.8573 375.063C61.1867 375.086 61.5182 375.081 61.8682 375.088Z" fill="#FFB1A8"/>
<path d="M76.1837 354.348L78.8316 353.023C78.8791 353.167 78.9409 353.326 78.9848 353.49C79.2629 354.527 79.5277 355.566 79.8196 356.599C79.899 356.88 79.8427 357.023 79.5716 357.13C79.304 357.235 79.0412 357.364 78.7978 357.517C78.5499 357.673 78.3969 357.604 78.2514 357.386C77.7638 356.66 77.2733 355.937 76.7818 355.214C76.5969 354.942 76.4081 354.672 76.1834 354.348L76.1837 354.348Z" fill="#FFB1A8"/>
<path d="M86.7764 368.963C86.5796 369.061 86.3772 369.168 86.1703 369.266C85.578 369.545 84.9836 369.82 84.3913 370.1C84.1934 370.193 84.0676 370.17 83.9941 369.934C83.6604 368.856 83.3206 367.78 82.9698 366.708C82.8952 366.479 82.9559 366.362 83.1643 366.262C83.4746 366.115 83.768 365.93 84.081 365.789C84.1707 365.748 84.3596 365.758 84.4083 365.819C85.1917 366.808 85.9602 367.808 86.7304 368.807C86.7489 368.83 86.7492 368.868 86.7761 368.964L86.7764 368.963Z" fill="#FFB1A8"/>
<path d="M54.504 369.363C54.6895 368.978 54.7861 368.658 54.9746 368.407C55.4265 367.806 55.9173 367.234 56.4006 366.656C56.5373 366.493 56.6855 366.474 56.8403 366.664C57.5197 367.496 58.209 368.321 58.8819 369.158C58.93 369.218 58.9042 369.377 58.8603 369.463C58.8007 369.577 58.6581 369.651 58.606 369.766C58.3673 370.292 57.9987 370.273 57.5166 370.125C56.6788 369.868 55.8215 369.673 54.9721 369.455C54.8441 369.422 54.7126 369.403 54.5049 369.363L54.504 369.363Z" fill="#FFB1A8"/>
<path d="M85.5839 364.847C85.9323 364.548 86.2875 364.233 86.6538 363.93C86.8661 363.756 87.0287 363.925 87.1814 364.045C88.0181 364.702 88.8516 365.363 89.6844 366.024C89.8383 366.146 89.9869 366.275 90.1868 366.443C89.7947 366.771 89.4371 367.079 89.0708 367.375C88.8468 367.556 88.6183 367.736 88.3723 367.884C88.2868 367.936 88.082 367.939 88.0324 367.88C87.2113 366.908 86.4061 365.923 85.5988 364.939C85.5871 364.925 85.5913 364.897 85.5839 364.847Z" fill="#FFB1A8"/>
<path d="M82.8256 351.727C82.8368 352.288 82.8425 352.752 82.8564 353.216C82.8815 354.013 82.9066 354.81 82.9427 355.607C82.9566 355.911 82.8508 356.079 82.5345 356.139C82.1216 356.216 81.7159 356.332 81.2824 356.437C81.2517 356.339 81.2221 356.259 81.2027 356.177C80.9419 355.077 80.6805 353.979 80.4244 352.879C80.3206 352.432 80.3227 352.419 80.7469 352.295C81.4145 352.102 82.0875 351.927 82.8247 351.726L82.8256 351.727Z" fill="#FFB1A8"/>
<path d="M56.8409 374.748C57.3175 374.509 57.7982 374.279 58.268 374.028C58.4599 373.926 58.5899 373.921 58.7633 374.081C59.3101 374.586 59.3233 374.579 59.019 375.27C58.6617 376.081 58.2853 376.884 57.9349 377.699C57.8183 377.97 57.67 377.978 57.4482 377.852C56.5699 377.354 55.8246 376.705 55.2058 375.908C55.0579 375.717 55.107 375.597 55.3157 375.496C55.8252 375.248 56.329 374.991 56.8355 374.737L56.8403 374.747L56.8409 374.748Z" fill="#FFB1A8"/>
<path d="M78.4518 367.532C78.4712 367.69 78.4966 367.818 78.5016 367.948C78.538 368.945 78.5639 369.942 78.6077 370.94C78.6228 371.278 78.5008 371.415 78.1528 371.423C77.6207 371.436 77.0889 371.488 76.558 371.539C76.3281 371.561 76.2381 371.493 76.2364 371.254C76.2297 370.234 76.2158 369.214 76.1905 368.194C76.1831 367.909 76.2704 367.776 76.5748 367.75C77.1915 367.697 77.8052 367.61 78.453 367.533L78.4518 367.532Z" fill="#FFB1A8"/>
<path d="M74.9118 360.618C74.4489 361.099 73.98 361.598 73.4907 362.076C73.4366 362.129 73.2315 362.104 73.1511 362.043C72.2911 361.401 71.4418 360.743 70.5889 360.091C70.4323 359.971 70.4225 359.86 70.5589 359.708C70.9599 359.263 71.3529 358.811 71.7429 358.356C71.8655 358.213 71.9896 358.174 72.1411 358.297C73.0516 359.037 73.961 359.778 74.87 360.52C74.885 360.532 74.887 360.558 74.9115 360.618L74.9118 360.618Z" fill="#FFB1A8"/>
<path d="M86.7366 351.387C86.6485 351.898 86.5769 352.335 86.4981 352.769C86.3456 353.61 86.1814 354.449 86.04 355.291C85.9995 355.53 85.8981 355.637 85.656 355.655C85.2485 355.685 84.8432 355.739 84.3947 355.787C84.3895 355.476 84.3839 355.192 84.3802 354.906C84.3668 353.909 84.36 352.911 84.3386 351.914C84.3322 351.624 84.4279 351.491 84.7352 351.484C85.377 351.468 86.0188 351.423 86.7366 351.387Z" fill="#FFB1A8"/>
<path d="M92.7749 363.564C92.532 363.866 92.2906 364.18 92.0355 364.482C91.5554 365.05 91.0235 365.117 90.4397 364.682C89.7019 364.132 88.9653 363.579 88.2292 363.026C88.1333 362.954 88.0439 362.873 87.9068 362.758C88.2528 362.389 88.577 362.031 88.9188 361.692C88.9652 361.646 89.1173 361.657 89.1935 361.696C90.3561 362.275 91.5145 362.862 92.6736 363.448C92.7005 363.462 92.7163 363.496 92.7743 363.564L92.7749 363.564Z" fill="#FFB1A8"/>
<path d="M65.9015 373.142C65.7814 372.981 65.8185 372.835 66.0129 372.697C66.2838 372.505 66.5436 372.296 66.8053 372.09C66.9796 371.953 67.1123 371.947 67.2886 372.122C68.0766 372.898 68.8822 373.655 69.6806 374.421C69.9457 374.676 69.9397 374.715 69.6452 374.909C69.0986 375.269 68.5517 375.629 68.0093 375.996C67.837 376.112 67.7112 376.156 67.5791 375.933C67.0334 375.009 66.4744 374.092 65.9018 373.143L65.9015 373.142Z" fill="#FFB1A8"/>
<path d="M62.8426 367.022C62.4657 366.123 62.0876 365.224 61.7125 364.324C61.5703 363.984 61.6086 363.911 61.9605 363.79C62.5704 363.582 63.1815 363.378 63.7846 363.153C64.016 363.067 64.1337 363.078 64.165 363.354C64.2901 364.454 64.4227 365.553 64.5607 366.652C64.5884 366.873 64.4989 366.978 64.298 367.039C64.011 367.124 63.7288 367.228 63.443 367.319C63.0184 367.454 63.008 367.447 62.8432 367.022L62.8426 367.022Z" fill="#FFB1A8"/>
<path d="M77.1809 358.373C77.148 358.434 77.1184 358.548 77.0454 358.612C76.752 358.865 76.4545 359.116 76.1369 359.338C76.0538 359.396 75.8514 359.395 75.7743 359.334C74.9274 358.657 74.0967 357.959 73.2561 357.275C73.0657 357.12 73.0452 356.999 73.2368 356.826C73.6899 356.418 74.1271 355.991 74.5787 355.582C74.8732 355.314 74.9671 355.322 75.2094 355.651C75.7143 356.337 76.2063 357.033 76.7047 357.723C76.8469 357.921 76.9924 358.116 77.1809 358.373Z" fill="#FFB1A8"/>
<path d="M81.5232 366.942C81.7234 367.648 81.9151 368.328 82.1082 369.006C82.2357 369.454 82.3637 369.901 82.4963 370.346C82.5814 370.631 82.5356 370.806 82.1906 370.853C81.5858 370.936 80.9858 371.05 80.3849 371.156C80.1738 371.193 80.0899 371.126 80.0813 370.899C80.0396 369.792 79.9788 368.686 79.9356 367.58C79.932 367.492 79.994 367.338 80.0558 367.32C80.5318 367.181 81.0152 367.068 81.5238 366.941L81.5232 366.942Z" fill="#FFB1A8"/>
<path d="M65.3292 377.559C65.0315 377.708 64.7337 377.859 64.4353 378.007C64.2352 378.106 64.1097 378.072 64.0506 377.83C63.7972 376.798 63.5325 375.769 63.272 374.739C63.1991 374.45 63.2784 374.249 63.5762 374.134C63.7825 374.055 63.9831 373.95 64.1697 373.832C64.4125 373.677 64.5951 373.736 64.7272 373.961C65.2753 374.897 65.8199 375.836 66.3495 376.783C66.3863 376.849 66.3204 377.043 66.2481 377.087C65.9535 377.263 65.6375 377.404 65.3295 377.558C65.3295 377.558 65.3298 377.559 65.3301 377.56L65.3292 377.559Z" fill="#FFB1A8"/>
<path d="M57.9049 365.574C58.4742 365.289 59.0067 365.019 59.5425 364.755C60.1635 364.449 60.1728 364.448 60.4404 365.077C60.7999 365.924 61.1422 366.777 61.4987 367.626C61.6185 367.911 61.5715 368.088 61.262 368.227C60.2634 368.676 60.4466 368.792 59.717 367.867C59.1959 367.206 58.6566 366.559 58.1281 365.903C58.0549 365.812 57.9966 365.709 57.9058 365.573L57.9049 365.574Z" fill="#FFB1A8"/>
<path d="M67.6949 368.543C67.3545 368.413 67.0188 368.298 66.6957 368.156C66.3167 367.989 66.2128 367.741 66.3403 367.385C66.4738 367.012 66.7205 366.885 67.1323 367.014C67.6611 367.18 68.1883 367.353 68.7042 367.553C69.1388 367.722 69.2269 367.913 69.1029 368.359C68.9485 368.913 68.7838 369.466 68.5983 370.011C68.4759 370.372 68.2507 370.469 67.8974 370.372C67.4999 370.264 67.3275 370.018 67.4015 369.643C67.438 369.459 67.5 369.28 67.5488 369.098C67.5976 368.916 67.6443 368.734 67.6943 368.543L67.6949 368.543Z" fill="#FFB1A8"/>
<path d="M88.2755 358.204C87.6383 357.948 87.0268 357.714 86.4272 357.452C86.3125 357.402 86.2465 357.243 86.1574 357.134C86.2899 357.052 86.4215 356.901 86.5551 356.899C87.4154 356.886 88.2629 357.004 89.0764 357.29C89.508 357.441 89.6427 357.726 89.5038 358.158C89.2354 358.992 88.7855 359.733 88.2576 360.425C88.184 360.522 87.9912 360.528 87.8537 360.576C87.8238 360.446 87.7456 360.305 87.7728 360.187C87.9249 359.529 88.1025 358.877 88.2755 358.204Z" fill="#FFB1A8"/>
<path d="M71.5583 369.744C72.0499 369.553 72.5121 369.365 72.9815 369.197C73.1121 369.15 73.2652 369.142 73.4054 369.152C73.6379 369.167 73.8146 369.288 73.8426 369.531C73.8712 369.785 73.6971 369.873 73.4801 369.967C72.3831 370.441 71.2595 370.869 70.3394 371.675C70.2437 371.759 70.0315 371.8 69.9215 371.752C69.8106 371.704 69.7102 371.526 69.6932 371.393C69.6524 371.075 69.8438 370.835 70.0881 370.67C70.5746 370.342 71.0805 370.043 71.5589 369.743L71.5583 369.744Z" fill="#FFB1A8"/>
<path d="M69.1685 364.685C68.5813 364.916 68.0031 365.176 67.403 365.363C67.1863 365.431 66.8939 365.374 66.6779 365.28C66.5544 365.226 66.4424 364.974 66.4601 364.828C66.4733 364.718 66.6904 364.602 66.8387 364.545C67.2094 364.405 67.6142 364.339 67.9658 364.165C68.6798 363.81 69.3642 363.397 70.0702 363.026C70.1898 362.963 70.399 362.93 70.4929 362.994C70.6067 363.07 70.7343 363.301 70.6936 363.397C70.5975 363.625 70.4405 363.861 70.2443 364.007C69.9079 364.257 69.5219 364.441 69.1574 364.652C69.1616 364.664 69.1652 364.675 69.1694 364.687L69.1685 364.685Z" fill="#FFB1A8"/>
<path d="M72.129 366.339C72.2679 366.617 72.4158 366.89 72.5427 367.171C72.7136 367.55 72.6082 367.915 72.302 368.066C72.0323 368.2 71.6796 368.081 71.4918 367.737C71.1844 367.174 70.8959 366.599 70.6285 366.016C70.4691 365.668 70.6184 365.289 70.9123 365.162C71.2101 365.034 71.5478 365.184 71.7324 365.535C71.8716 365.8 72.0012 366.069 72.135 366.336C72.1332 366.337 72.1308 366.338 72.129 366.339Z" fill="#FFB1A8"/>
<path d="M68.0215 362.757C67.6959 362.878 67.2851 363.043 66.8635 363.178C66.7114 363.227 66.532 363.228 66.3718 363.206C66.115 363.169 65.9465 363.004 65.926 362.741C65.9051 362.475 66.1129 362.412 66.3165 362.321C67.0027 362.014 67.685 361.695 68.3556 361.356C68.6797 361.192 68.9183 361.189 69.0904 361.428C69.2592 361.662 69.2196 361.939 68.9403 362.155C68.6784 362.357 68.3857 362.521 68.0215 362.757Z" fill="#FFB1A8"/>
<path d="M72.5359 371.886C72.8241 371.742 73.1052 371.581 73.4024 371.46C73.5495 371.399 73.7546 371.344 73.8804 371.402C74.0373 371.473 74.2342 371.659 74.2411 371.804C74.2485 371.966 74.1016 372.226 73.9545 372.29C73.1915 372.626 72.4171 372.927 71.756 373.459C71.6621 373.534 71.4181 373.528 71.3094 373.459C71.1103 373.332 71.0228 373.079 71.1616 372.874C71.3115 372.652 71.5178 372.452 71.7382 372.297C71.9813 372.127 72.2689 372.02 72.5368 371.886L72.5359 371.886Z" fill="#FFB1A8"/>
</g>
<path d="M1111.63 0.243622C1098.03 -1.63056 1085.44 7.51146 1083.5 20.688C1082.68 26.2819 1083.93 31.7042 1086.66 36.2394L1081.24 46.0825C1080.34 47.7421 1082.1 49.5733 1083.87 48.8294L1094.59 44.2941C1097.53 46.154 1100.91 47.4559 1104.62 47.9567C1118.22 49.8452 1130.81 40.6888 1132.75 27.5123C1134.68 14.3358 1125.25 2.13212 1111.65 0.257929M1120.57 15.3802L1108.38 39.1294C1107.73 40.3884 1105.8 40.1023 1105.56 38.7145L1104.01 29.5868C1103.91 29.0145 1103.47 28.5424 1102.88 28.4136L1093.57 26.2819C1092.16 25.9529 1092.01 24.0644 1093.35 23.5207L1118.65 13.3915C1119.93 12.8908 1121.17 14.1784 1120.57 15.3802Z" fill="#FF6549"/>
<defs>
<clipPath id="clip0_5802_343">
<rect width="18.3999" height="46.613" fill="white" transform="matrix(-0.498358 -0.866971 -0.866971 0.498358 50.1367 352.072)"/>
</clipPath>
<clipPath id="clip1_5802_343">
<rect width="17.8125" height="45.1249" fill="white" transform="translate(91.1196 346.871) rotate(63.4047)"/>
</clipPath>
</defs>
</svg>
