<?xml version="1.0" encoding="UTF-8"?>
<svg id="uuid-16646cba-ab99-4655-8738-4325eb32763c" data-name="Layer 1" xmlns="http://www.w3.org/2000/svg" viewBox="0 0 403.35 138.69">
  <defs>
    <style>
      .uuid-93ee7190-d8b7-4142-8bae-0cad6dc25902 {
        fill: #23174b;
      }

      .uuid-93ee7190-d8b7-4142-8bae-0cad6dc25902, .uuid-9a86be46-eb56-4bf2-a788-b090b9622803 {
        stroke-width: 0px;
      }

      .uuid-9a86be46-eb56-4bf2-a788-b090b9622803 {
        fill: #ff6549;
      }
    </style>
  </defs>
  <g>
    <path class="uuid-93ee7190-d8b7-4142-8bae-0cad6dc25902" d="M125.6,12.5c1.04-8-10.23-16.52-15.82-10.35,5.62,12.82-3.21,39.19-7.03,53.62-4.92,12.67-10.34,30.83-24.81,32.72-16.78-1.55,3.05-58.66,5.08-70.91-.58-4.18-6.72-2.71-9.57-2.93-3.38.36-2.58,1.43-5.08,5.47-10.59,20.01-22.31,44.48-32.23,64.85,4.07-18.62,8.95-40.57,12.89-59.38.9-8.51,5.64-15.49,1.17-22.17-6.62-6.44-21.29-2.55-28.23-1.37C9.17,4.84-4.26,15.82,1.27,29.1c2.12,5.04,11.24,9.37,14.55,4.3-2.71-3.6-2.48-11.37.19-15.24,1.4-5.15,21.73-16.5,21.1-7.03-1.15,8.48-3.77,18.91-5.67,28.52-3.86,18.77-7.36,34.43-11.91,55.28-.67,1.4.32,3.18,1.95,3.13,1.83-.27,17.25.79,18.36-.78,6.45-10.98,13.33-25.25,19.53-37.31-1.81,9.47-3.83,18.2-1.37,27.06,2.98,14.62,20.37,20.89,31.94,10.64,22.27-20.09,33.17-56.32,35.65-85.17Z"/>
    <path class="uuid-93ee7190-d8b7-4142-8bae-0cad6dc25902" d="M387.51,73.59c-.3-4.98-15.65-13.01-12.7-5.27,2.32,8.03-1.44,20.31-9.18,23.15-20.31,5.7-2.26-42.11-1.56-52.35.12-1.57-.09-3.23-1.95-3.12,0,0-27.74,0-27.74,0-2.23-.11-3.39,1.25-3.52,3.12,0,0-5.08,23.64-5.08,23.64-2.96,15.45-26.68,31.82-25.23,6.6,15.75.72,27.17-20.31,15.14-31.35-8.51-6.64-19.53.93-23.42,9.62-3.91,6.46-4.2,15.52-7.15,22.32-3.6,10.15-16.27,10.73-12.7-2.54,3.19-20.39,8.56-38.88,12.5-60.17-.14-.84-.83-1.4-1.95-1.37-1.53.46-10.6-.89-11.52.78-1.18-.45-7.26,32.7-7.82,33.53-14.7-14.53-31.71,7.14-33.4,22.15-.94,5.05-2.57,9.2-5.76,12.89-3.06,3.91-10.25,2.79-9.87-2.93.05-7.61,3.76-17.42,4.49-24.81-.26-13.16-18.81-14.42-26.96-7.62.68-1.59.77-4.46-1.56-4.3-2.44.59-11.78-1.69-12.31,2.15-.13.39-.2.72-.2.98l-5.44,24.85c-1.38,4.48-8.47,8.36-12.14,3.28,10.68-36.97-27.54-41.95-36.92-8.5-9.99,26.47,15.91,48.94,32.43,20.41,3.58,1.44,10.17.89,13.6-1.33-.03,1.83-3.76,12.5-1.88,13.83.25,1.25,10.39.31,11.33.59,2.1.08,3.15-1.04,3.32-3.13,4.54-14.43,2.34-31.26,14.45-40.24,14.27-1.94-1.94,25.81,3.71,33.31,5.13,13.34,24.29,12.89,29.96.29,3.5,14.81,22.48,10.85,27.47-.98,4.98,15.16,24.88,13.27,30.59-.39,14.35,25.35,41.4,3.9,44.63-17.93,0,0,0,0,0,0,0,0,.08-.44.08-.44l2.07-11.09c.28-1.85.85-3.14,3.32-2.93,2.36.38,9.05-1.39,8.27,2.73-2.22,12.31-6.63,24-3.98,36.04,2.57,13.11,17.52,19.86,29.79,14.16,10.42-4.18,19.19-16.39,14.75-27.64ZM305.73,52.2c10.82-13.99,9.16,9.92-4,9.92.91-3.72,2.25-7.03,4-9.92ZM150.05,62.02c-.85,2.93-.95,5.89-.29,8.89-7.85,17.58-17.71,7.41-13.28-7.33.56-9.28,16.04-25.29,16.8-7.71-1.3,1.17-2.38,3.22-3.22,6.15ZM258.84,61.33c-1.71,6.19-4.57,15.51-11.76,16.22-7.97-2.38-2.47-15.76-.3-21.43,6.5-13.7,16.29-9.11,12.06,5.21Z"/>
  </g>
  <polygon class="uuid-93ee7190-d8b7-4142-8bae-0cad6dc25902" points="189.73 112.89 189.73 138.05 182.07 138.05 182.07 112.89 173.11 112.89 173.11 106.35 198.68 106.35 198.68 112.89 189.73 112.89"/>
  <path class="uuid-93ee7190-d8b7-4142-8bae-0cad6dc25902" d="M221.16,121.8c-.33-.09-.65-.15-.96-.18-.31-.03-.62-.04-.92-.04-.98,0-1.81.18-2.48.54-.67.36-1.21.79-1.61,1.29-.4.51-.69,1.06-.87,1.65-.18.59-.27,1.11-.27,1.56v11.43h-7.34v-22.27h7.07v3.22h.09c.57-1.14,1.37-2.07,2.42-2.79,1.04-.72,2.25-1.08,3.63-1.08.3,0,.59.01.87.04.28.03.52.07.69.13l-.31,6.49Z"/>
  <path class="uuid-93ee7190-d8b7-4142-8bae-0cad6dc25902" d="M232.35,118.8c1.31-1.25,2.84-2.19,4.59-2.82,1.75-.63,3.53-.94,5.35-.94s3.47.23,4.77.69c1.3.46,2.35,1.18,3.16,2.15.8.97,1.39,2.19,1.77,3.67.37,1.48.56,3.23.56,5.26v11.24h-6.72v-2.37h-.13c-.57.93-1.43,1.64-2.58,2.15-1.15.51-2.4.76-3.74.76-.89,0-1.82-.12-2.78-.36-.96-.24-1.83-.63-2.62-1.16-.79-.54-1.44-1.25-1.95-2.15-.51-.89-.76-2-.76-3.31,0-1.61.44-2.91,1.32-3.89.88-.99,2.02-1.75,3.4-2.28,1.39-.54,2.93-.9,4.63-1.08,1.7-.18,3.36-.27,4.97-.27v-.36c0-1.1-.39-1.92-1.16-2.44-.78-.52-1.73-.78-2.87-.78-1.04,0-2.05.22-3.02.67-.97.45-1.8.99-2.48,1.61l-3.72-3.99ZM245.83,128.34h-.94c-.81,0-1.62.04-2.44.11-.82.07-1.55.22-2.2.43-.64.21-1.17.51-1.59.92s-.63.93-.63,1.59c0,.42.1.78.29,1.07.19.3.44.54.74.72s.64.31,1.03.38c.39.07.76.11,1.12.11,1.49,0,2.64-.41,3.43-1.23.79-.82,1.19-1.93,1.19-3.33v-.76Z"/>
  <polygon class="uuid-93ee7190-d8b7-4142-8bae-0cad6dc25902" points="280.75 138.05 272.82 138.05 264.05 115.75 272.15 115.75 276.85 130.22 276.99 130.22 281.69 115.75 289.53 115.75 280.75 138.05"/>
  <path class="uuid-93ee7190-d8b7-4142-8bae-0cad6dc25902" d="M323.42,127.17v.89c0,.3-.01.58-.04.85h-16.16c.06.63.25,1.19.56,1.7.31.51.72.95,1.21,1.32.49.37,1.04.66,1.66.87.61.21,1.25.31,1.9.31,1.16,0,2.15-.22,2.95-.65.81-.43,1.46-.99,1.97-1.68l5.11,3.22c-1.04,1.52-2.43,2.7-4.14,3.52-1.72.82-3.71,1.23-5.98,1.23-1.67,0-3.25-.26-4.75-.78-1.49-.52-2.8-1.28-3.92-2.28-1.12-1-2-2.23-2.64-3.69-.64-1.46-.96-3.13-.96-5.02s.31-3.47.94-4.95c.63-1.48,1.48-2.73,2.55-3.76,1.08-1.03,2.34-1.83,3.81-2.4s3.04-.85,4.75-.85,3.15.28,4.52.83c1.37.55,2.55,1.35,3.54,2.4.99,1.04,1.75,2.31,2.31,3.8.55,1.49.83,3.19.83,5.11M316.66,124.35c0-1.16-.37-2.16-1.1-3-.73-.83-1.83-1.25-3.29-1.25-.71,0-1.37.11-1.97.33-.6.22-1.12.53-1.57.92-.45.39-.81.84-1.07,1.37-.27.52-.42,1.07-.45,1.63h9.45Z"/>
  <rect class="uuid-93ee7190-d8b7-4142-8bae-0cad6dc25902" x="337.03" y="104.2" width="7.48" height="33.85"/>
  <path class="uuid-9a86be46-eb56-4bf2-a788-b090b9622803" d="M388.54.35c-9.21-1.31-17.74,5.08-19.05,14.29-.56,3.91.29,7.7,2.14,10.87l-3.67,6.88c-.61,1.16.58,2.44,1.78,1.92l7.26-3.17c1.99,1.3,4.28,2.21,6.79,2.56,9.21,1.32,17.74-5.08,19.05-14.29,1.31-9.21-5.08-17.74-14.29-19.05ZM394.59,10.93l-8.25,16.6c-.44.88-1.75.68-1.91-.29l-1.05-6.38c-.07-.4-.37-.73-.77-.82l-6.3-1.49c-.96-.23-1.06-1.55-.15-1.93l17.13-7.08c.87-.35,1.71.55,1.3,1.39Z"/>
</svg>