<?xml version="1.0" encoding="UTF-8"?>
<svg id="uuid-b865b68d-a7d5-43ea-aaeb-6862448646e5" data-name="Layer 1" xmlns="http://www.w3.org/2000/svg" viewBox="0 0 141.54 137.66">
  <defs>
    <style>
      .uuid-510fc9ac-3093-4009-be4a-c705fe06db56 {
        fill: #ff6549;
        stroke-width: 0px;
      }
    </style>
  </defs>
  <path class="uuid-510fc9ac-3093-4009-be4a-c705fe06db56" d="M83.4.69C46.39-4.6,12.1,21.12,6.81,58.13c-2.25,15.74,1.15,30.96,8.59,43.69L.66,129.47c-2.45,4.65,2.32,9.8,7.14,7.7l29.17-12.75c8,5.22,17.2,8.87,27.28,10.31,37.01,5.29,71.31-20.43,76.6-57.45C146.13,40.28,120.42,5.98,83.4.69ZM107.71,43.22l-33.17,66.73c-1.77,3.54-7.04,2.75-7.68-1.16l-4.21-25.67c-.27-1.62-1.48-2.93-3.09-3.31l-25.31-5.98c-3.85-.91-4.28-6.22-.62-7.74l68.87-28.47c3.48-1.43,6.89,2.22,5.21,5.59Z"/>
</svg>