<?xml version="1.0" encoding="UTF-8"?>
<svg id="uuid-f87ebce1-cb49-40a4-8360-1d7f3e88e7fa" data-name="Layer 1" xmlns="http://www.w3.org/2000/svg" viewBox="0 0 403.35 103.26">
  <defs>
    <style>
      .uuid-6eace932-81a9-4a74-b94d-665cdf0978e8 {
        fill: #fff;
        stroke-width: 0px;
      }
    </style>
  </defs>
  <g>
    <path class="uuid-6eace932-81a9-4a74-b94d-665cdf0978e8" d="M125.6,12.5c1.04-8-10.23-16.52-15.82-10.35,5.62,12.82-3.21,39.19-7.03,53.62-4.92,12.67-10.34,30.83-24.81,32.72-16.78-1.55,3.05-58.66,5.08-70.91-.58-4.18-6.72-2.71-9.57-2.93-3.38.36-2.58,1.43-5.08,5.47-10.59,20.01-22.31,44.48-32.23,64.85,4.07-18.62,8.95-40.57,12.89-59.38.9-8.51,5.64-15.49,1.17-22.17-6.62-6.44-21.29-2.55-28.23-1.37C9.17,4.84-4.26,15.82,1.27,29.1c2.12,5.04,11.24,9.37,14.55,4.3-2.71-3.6-2.48-11.37.19-15.24,1.4-5.15,21.73-16.5,21.1-7.03-1.15,8.48-3.77,18.91-5.67,28.52-3.86,18.77-7.36,34.43-11.91,55.28-.67,1.4.32,3.18,1.95,3.13,1.83-.27,17.25.79,18.36-.78,6.45-10.98,13.33-25.25,19.53-37.31-1.81,9.47-3.83,18.2-1.37,27.06,2.98,14.62,20.37,20.89,31.94,10.64,22.27-20.09,33.17-56.32,35.65-85.17Z"/>
    <path class="uuid-6eace932-81a9-4a74-b94d-665cdf0978e8" d="M387.51,73.59c-.3-4.98-15.65-13.01-12.7-5.27,2.32,8.03-1.44,20.31-9.18,23.15-20.31,5.7-2.26-42.11-1.56-52.35.12-1.57-.09-3.23-1.95-3.12,0,0-27.74,0-27.74,0-2.23-.11-3.39,1.25-3.52,3.12,0,0-5.08,23.64-5.08,23.64-2.96,15.45-26.68,31.82-25.23,6.6,15.75.72,27.17-20.31,15.14-31.35-8.51-6.64-19.53.93-23.42,9.62-3.91,6.46-4.2,15.52-7.15,22.32-3.6,10.15-16.27,10.73-12.7-2.54,3.19-20.39,8.56-38.88,12.5-60.17-.14-.84-.83-1.4-1.95-1.37-1.53.46-10.6-.89-11.52.78-1.18-.45-7.26,32.7-7.82,33.53-14.7-14.53-31.71,7.14-33.4,22.15-.94,5.05-2.57,9.2-5.76,12.89-3.06,3.91-10.25,2.79-9.87-2.93.05-7.61,3.76-17.42,4.49-24.81-.26-13.16-18.81-14.42-26.96-7.62.68-1.59.77-4.46-1.56-4.3-2.44.59-11.78-1.69-12.31,2.15-.13.39-.2.72-.2.98l-5.44,24.85c-1.38,4.48-8.47,8.36-12.14,3.28,10.68-36.97-27.54-41.95-36.92-8.5-9.99,26.47,15.91,48.94,32.43,20.41,3.58,1.44,10.17.89,13.6-1.33-.03,1.83-3.76,12.5-1.88,13.83.25,1.25,10.39.31,11.33.59,2.1.08,3.15-1.04,3.32-3.13,4.54-14.43,2.34-31.26,14.45-40.24,14.27-1.94-1.94,25.81,3.71,33.31,5.13,13.34,24.29,12.89,29.96.29,3.5,14.81,22.48,10.85,27.47-.98,4.98,15.16,24.88,13.27,30.59-.39,14.35,25.35,41.4,3.9,44.63-17.93,0,0,0,0,0,0,0,0,.08-.44.08-.44l2.07-11.09c.28-1.85.85-3.14,3.32-2.93,2.36.38,9.05-1.39,8.27,2.73-2.22,12.31-6.63,24-3.98,36.04,2.57,13.11,17.52,19.86,29.79,14.16,10.42-4.18,19.19-16.39,14.75-27.64ZM305.73,52.2c10.82-13.99,9.16,9.92-4,9.92.91-3.72,2.25-7.03,4-9.92ZM150.05,62.02c-.85,2.93-.95,5.89-.29,8.89-7.85,17.58-17.71,7.41-13.28-7.33.56-9.28,16.04-25.29,16.8-7.71-1.3,1.17-2.38,3.22-3.22,6.15ZM258.84,61.33c-1.71,6.19-4.57,15.51-11.76,16.22-7.97-2.38-2.47-15.76-.3-21.43,6.5-13.7,16.29-9.11,12.06,5.21Z"/>
  </g>
  <path class="uuid-6eace932-81a9-4a74-b94d-665cdf0978e8" d="M388.54.35c-9.21-1.31-17.74,5.08-19.05,14.29-.56,3.91.29,7.7,2.14,10.87l-3.67,6.88c-.61,1.16.58,2.44,1.78,1.92l7.26-3.17c1.99,1.3,4.28,2.21,6.79,2.56,9.21,1.32,17.74-5.08,19.05-14.29,1.31-9.21-5.08-17.74-14.29-19.05ZM394.59,10.93l-8.25,16.6c-.44.88-1.75.68-1.91-.29l-1.05-6.38c-.07-.4-.37-.73-.77-.82l-6.3-1.49c-.96-.23-1.06-1.55-.15-1.93l17.13-7.08c.87-.35,1.71.55,1.3,1.39Z"/>
</svg>