<svg width="18" height="12" viewBox="0 0 18 12" fill="none" xmlns="http://www.w3.org/2000/svg">
<path d="M0.9 12C0.645 12 0.4314 11.9177 0.2592 11.7531C0.0864001 11.5891 0 11.3857 0 11.1429V6.85714C0 6.47143 0.0825001 6.12143 0.2475 5.80714C0.4125 5.49286 0.63 5.21429 0.9 4.97143V2.57143C0.9 1.85714 1.1625 1.25 1.6875 0.75C2.2125 0.25 2.85 0 3.6 0H7.2C7.545 0 7.8675 0.060857 8.1675 0.182571C8.4675 0.303714 8.745 0.471429 9 0.685714C9.255 0.471429 9.5325 0.303714 9.8325 0.182571C10.1325 0.060857 10.455 0 10.8 0H14.4C15.15 0 15.7875 0.25 16.3125 0.75C16.8375 1.25 17.1 1.85714 17.1 2.57143V4.97143C17.37 5.21429 17.5875 5.49286 17.7525 5.80714C17.9175 6.12143 18 6.47143 18 6.85714V11.1429C18 11.3857 17.9136 11.5891 17.7408 11.7531C17.5686 11.9177 17.355 12 17.1 12C16.845 12 16.6314 11.9177 16.4592 11.7531C16.2864 11.5891 16.2 11.3857 16.2 11.1429V10.2857H1.8V11.1429C1.8 11.3857 1.7139 11.5891 1.5417 11.7531C1.3689 11.9177 1.155 12 0.9 12ZM9.9 4.28571H15.3V2.57143C15.3 2.32857 15.2136 2.12486 15.0408 1.96029C14.8686 1.79629 14.655 1.71429 14.4 1.71429H10.8C10.545 1.71429 10.3314 1.79629 10.1592 1.96029C9.9864 2.12486 9.9 2.32857 9.9 2.57143V4.28571ZM2.7 4.28571H8.1V2.57143C8.1 2.32857 8.0139 2.12486 7.8417 1.96029C7.6689 1.79629 7.455 1.71429 7.2 1.71429H3.6C3.345 1.71429 3.1311 1.79629 2.9583 1.96029C2.7861 2.12486 2.7 2.32857 2.7 2.57143V4.28571Z" fill="white"/>
</svg>
