<svg width="17" height="20" viewBox="0 0 17 20" fill="none" xmlns="http://www.w3.org/2000/svg">
<path d="M15.1111 2H14.1667V0H12.2778V2H4.72222V0H2.83333V2H1.88889C0.840556 2 0.00944444 2.9 0.00944444 4L0 18C0 19.1 0.840556 20 1.88889 20H15.1111C16.15 20 17 19.1 17 18V4C17 2.9 16.15 2 15.1111 2ZM15.1111 18H1.88889V8H15.1111V18ZM5.66667 12H3.77778V10H5.66667V12ZM9.44444 12H7.55556V10H9.44444V12ZM13.2222 12H11.3333V10H13.2222V12ZM5.66667 16H3.77778V14H5.66667V16ZM9.44444 16H7.55556V14H9.44444V16ZM13.2222 16H11.3333V14H13.2222V16Z" fill="white"/>
</svg>
