<svg width="18" height="20" viewBox="0 0 18 20" fill="none" xmlns="http://www.w3.org/2000/svg">
<path d="M13.2632 20C11.9526 20 10.8357 19.5359 9.91232 18.6076C8.98832 17.6787 8.52632 16.5556 8.52632 15.2381C8.52632 13.9206 8.98832 12.7975 9.91232 11.8686C10.8357 10.9403 11.9526 10.4762 13.2632 10.4762C14.5737 10.4762 15.6909 10.9403 16.6149 11.8686C17.5383 12.7975 18 13.9206 18 15.2381C18 16.5556 17.5383 17.6787 16.6149 18.6076C15.6909 19.5359 14.5737 20 13.2632 20ZM14.5184 17.1667C14.6132 17.2619 14.7237 17.3095 14.85 17.3095C14.9763 17.3095 15.0868 17.2619 15.1816 17.1667C15.2763 17.0714 15.3237 16.9603 15.3237 16.8333C15.3237 16.7063 15.2763 16.5952 15.1816 16.5L13.7368 15.0476V12.8571C13.7368 12.7302 13.6895 12.619 13.5947 12.5238C13.5 12.4286 13.3895 12.381 13.2632 12.381C13.1368 12.381 13.0263 12.4286 12.9316 12.5238C12.8368 12.619 12.7895 12.7302 12.7895 12.8571V15.0238C12.7895 15.1508 12.8132 15.274 12.8605 15.3933C12.9079 15.5121 12.9789 15.619 13.0737 15.7143L14.5184 17.1667ZM1.89474 19.0476C1.37368 19.0476 0.927474 18.8613 0.556105 18.4886C0.185368 18.1152 0 17.6667 0 17.1429V3.80952C0 3.28571 0.185368 2.83714 0.556105 2.46381C0.927474 2.09111 1.37368 1.90476 1.89474 1.90476H5.85C6.02368 1.34921 6.36316 0.892698 6.86842 0.535238C7.37368 0.178413 7.92632 0 8.52632 0C9.15789 0 9.72253 0.178413 10.2202 0.535238C10.7173 0.892698 11.0526 1.34921 11.2263 1.90476H15.1579C15.6789 1.90476 16.1252 2.09111 16.4965 2.46381C16.8673 2.83714 17.0526 3.28571 17.0526 3.80952V9.7619C16.7684 9.55556 16.4684 9.38095 16.1526 9.2381C15.8368 9.09524 15.5053 8.96825 15.1579 8.85714V3.80952H13.2632V4.7619C13.2632 5.28571 13.0778 5.73397 12.7071 6.10667C12.3357 6.48 11.8895 6.66667 11.3684 6.66667H5.68421C5.16316 6.66667 4.71726 6.48 4.34653 6.10667C3.97516 5.73397 3.78947 5.28571 3.78947 4.7619V3.80952H1.89474V17.1429H6.91579C7.02632 17.4921 7.15263 17.8254 7.29474 18.1429C7.43684 18.4603 7.61053 18.7619 7.81579 19.0476H1.89474ZM8.52632 3.80952C8.79474 3.80952 9.0199 3.7181 9.20179 3.53524C9.38305 3.35302 9.47368 3.12698 9.47368 2.85714C9.47368 2.5873 9.38305 2.36095 9.20179 2.1781C9.0199 1.99587 8.79474 1.90476 8.52632 1.90476C8.25789 1.90476 8.03305 1.99587 7.85179 2.1781C7.6699 2.36095 7.57895 2.5873 7.57895 2.85714C7.57895 3.12698 7.6699 3.35302 7.85179 3.53524C8.03305 3.7181 8.25789 3.80952 8.52632 3.80952Z" fill="white"/>
</svg>
