<svg id="Layer_1" height="300" viewBox="0 0 512 512" width="300" xmlns="http://www.w3.org/2000/svg" data-name="Layer 1" version="1.1" xmlns:xlink="http://www.w3.org/1999/xlink" xmlns:svgjs="http://svgjs.dev/svgjs"><g transform="matrix(1,0,0,1,0,0)"><g fill-rule="evenodd"><g fill="#f5b60a"><path d="m171.317 22.116a14 14 0 0 0 -18.949-5.742 200.516 200.516 0 0 0 -73.092 67.011 198.135 198.135 0 0 0 -31.849 96.315 14.047 14.047 0 0 0 13.144 14.814c.283.017.567.024.851.024a14 14 0 0 0 13.957-13.157c3.522-58.865 38.237-112.527 90.2-140.327a13.992 13.992 0 0 0 5.738-18.938z" fill="#ff6549ff" data-original-color="#f5b60aff" stroke="none"/><path d="m432.725 83.385a200.484 200.484 0 0 0 -73.087-67.011 14 14 0 1 0 -13.213 24.682c51.964 27.8 86.666 81.462 90.192 140.326a14 14 0 0 0 13.962 13.158c.284 0 .568-.007.851-.024a14.046 14.046 0 0 0 13.144-14.816 198.18 198.18 0 0 0 -31.849-96.315z" fill="#ff6549ff" data-original-color="#f5b60aff" stroke="none"/><path d="m407.71 306.377v-114.705c0-77.3-59.015-142.295-135.9-149.683l-1.81-.174v-25.815a14 14 0 0 0 -28 0v25.815l-1.808.174c-76.885 7.388-135.9 72.388-135.9 149.683v114.705l-81.932 86.656a31.4 31.4 0 0 0 -6.108 34.486 31.4 31.4 0 0 0 29.25 19.24h140.398l.222 1.747a70.448 70.448 0 0 0 139.754 0l.223-1.747h140.401a31.387 31.387 0 0 0 29.244-19.239 31.4 31.4 0 0 0 -6.107-34.487z" fill="#ff6549ff" data-original-color="#f5b60aff" stroke="none"/></g><path d="m173.081 21.172a15.99 15.99 0 0 1 -6.562 21.647c-51.519 27.562-85.672 80.7-89.144 138.681a16 16 0 0 1 -15.953 15.04c-.325 0-.646-.009-.972-.028a16 16 0 0 1 -15.019-16.93 200.1 200.1 0 0 1 32.169-97.29 202.445 202.445 0 0 1 73.823-67.681 15.991 15.991 0 0 1 21.656 6.561zm261.319 61.12a200.141 200.141 0 0 1 32.171 97.29 16 16 0 0 1 -15.019 16.93c-.321.019-.651.028-.972.028a16.005 16.005 0 0 1 -15.959-15.04c-3.472-57.981-37.621-111.119-89.139-138.681a16 16 0 1 1 15.1-28.208 202.51 202.51 0 0 1 73.818 67.681zm-195.722 29.68a16 16 0 0 0 16 16h2.656a63.773 63.773 0 0 1 63.7 63.7 16 16 0 0 0 32 0 95.808 95.808 0 0 0 -95.7-95.7h-2.656a16 16 0 0 0 -16 16zm229.51 303.678a1.564 1.564 0 0 1 -1.689 1.113h-420.999a1.845 1.845 0 0 1 -1.34-3.113l28.326-29.968h367.027l28.326 29.968a1.559 1.559 0 0 1 .349 2zm-212.188 64.35a40.537 40.537 0 0 1 -39.4-31.242h78.8a40.535 40.535 0 0 1 -39.4 31.242zm-121.713-168.061a15.983 15.983 0 0 1 -4.373 10.992l-27.175 28.75h306.523l-27.18-28.75a16.029 16.029 0 0 1 -4.373-10.992v-120.267a120.512 120.512 0 0 0 -120.381-120.38h-2.656a120.516 120.516 0 0 0 -120.385 120.38zm275.423-6.358v-113.909c0-79.072-60.539-144.259-137.71-151.672v-24a16 16 0 1 0 -32 0v24c-77.167 7.415-137.712 72.6-137.712 151.674v113.907l-81.381 86.078a33.845 33.845 0 0 0 24.6 57.1h138.631a72.448 72.448 0 0 0 143.721 0h138.641a33.845 33.845 0 0 0 24.59-57.1z" fill="#23174bff" data-original-color="#000000ff" stroke="none" style=""/></g></g></svg>