<svg width="25" height="16" viewBox="0 0 25 16" fill="none" xmlns="http://www.w3.org/2000/svg">
<path d="M24.3045 13.4571C24.3053 13.1336 24.2504 12.8139 24.1437 12.5216C24.0371 12.2293 23.8814 11.9718 23.6882 11.768L13.6943 1.30808C13.3963 0.989558 13.0225 0.81543 12.6367 0.81543C12.2508 0.81543 11.877 0.989558 11.579 1.30808L1.58512 12.1361C1.24496 12.5037 1.03105 13.0319 0.990447 13.6045C0.949839 14.1772 1.08586 14.7474 1.36858 15.1896C1.65131 15.6319 2.05757 15.91 2.49801 15.9628C2.93845 16.0156 3.37698 15.8387 3.71714 15.4711L12.645 5.79088L21.5728 15.1463C21.8173 15.4111 22.115 15.5793 22.4307 15.631C22.7465 15.6828 23.067 15.6158 23.3543 15.4381C23.6417 15.2604 23.8839 14.9794 24.0523 14.6283C24.2207 14.2773 24.3082 13.8708 24.3045 13.4571Z" fill="white"/>
</svg>
