<svg width="17" height="12" viewBox="0 0 17 12" fill="none" xmlns="http://www.w3.org/2000/svg">
<path d="M8.74996 0.0532227C5.04625 0.0532227 1.88329 2.35693 0.601807 5.60878C1.88329 8.86063 5.04625 11.1643 8.74996 11.1643C12.4537 11.1643 15.6166 8.86063 16.8981 5.60878C15.6166 2.35693 12.4537 0.0532227 8.74996 0.0532227ZM8.74996 9.31248C6.70551 9.31248 5.04625 7.65322 5.04625 5.60878C5.04625 3.56433 6.70551 1.90507 8.74996 1.90507C10.7944 1.90507 12.4537 3.56433 12.4537 5.60878C12.4537 7.65322 10.7944 9.31248 8.74996 9.31248ZM8.74996 3.38656C7.52033 3.38656 6.52773 4.37915 6.52773 5.60878C6.52773 6.83841 7.52033 7.831 8.74996 7.831C9.97959 7.831 10.9722 6.83841 10.9722 5.60878C10.9722 4.37915 9.97959 3.38656 8.74996 3.38656Z" fill="white"/>
</svg>
