<svg xmlns="http://www.w3.org/2000/svg" width="17" height="19" viewBox="0 0 17 19" fill="none">
<path d="M5.4 9.08001H3.6V10.88H5.4V9.08001ZM9 9.08001H7.2V10.88H9V9.08001ZM12.6 9.08001H10.8V10.88H12.6V9.08001ZM14.4 2.78001H13.5V0.980011H11.7V2.78001H4.5V0.980011H2.7V2.78001H1.8C0.801 2.78001 0.00899999 3.59001 0.00899999 4.58001L0 17.18C0 18.17 0.801 18.98 1.8 18.98H14.4C15.39 18.98 16.2 18.17 16.2 17.18V4.58001C16.2 3.59001 15.39 2.78001 14.4 2.78001ZM14.4 17.18H1.8V7.28001H14.4V17.18Z" fill="#23174B"/>
</svg>