<svg width="32" height="33" viewBox="0 0 32 33" fill="none" xmlns="http://www.w3.org/2000/svg">
<g clip-path="url(#clip0_465_7959)">
<path fill-rule="evenodd" clip-rule="evenodd" d="M16 32.1718C24.8366 32.1718 32 25.0084 32 16.1718C32 7.33526 24.8366 0.171814 16 0.171814C7.16344 0.171814 0 7.33526 0 16.1718C0 25.0084 7.16344 32.1718 16 32.1718Z" fill="#424B5A"/>
<mask id="mask0_465_7959" style="mask-type:luminance" maskUnits="userSpaceOnUse" x="0" y="0" width="32" height="33">
<path fill-rule="evenodd" clip-rule="evenodd" d="M16 32.1718C24.8366 32.1718 32 25.0084 32 16.1718C32 7.33526 24.8366 0.171814 16 0.171814C7.16344 0.171814 0 7.33526 0 16.1718C0 25.0084 7.16344 32.1718 16 32.1718Z" fill="white"/>
</mask>
<g mask="url(#mask0_465_7959)">
<rect y="0.171814" width="32" height="32" fill="#ff6549"/>
</g>
</g>
<defs>
<clipPath id="clip0_465_7959">
<rect width="32" height="32" fill="white" transform="translate(0 0.171814)"/>
</clipPath>
</defs>
</svg>
