<svg width="20" height="11" viewBox="0 0 20 11" fill="none" xmlns="http://www.w3.org/2000/svg">
<path d="M1.9 5.91895C1.9 4.20895 3.29 2.81894 5 2.81894H9V0.918945H5C2.24 0.918945 0 3.15895 0 5.91895C0 8.67895 2.24 10.9189 5 10.9189H9V9.01895H5C3.29 9.01895 1.9 7.62895 1.9 5.91895ZM6 6.91895H14V4.91895H6V6.91895ZM15 0.918945H11V2.81894H15C16.71 2.81894 18.1 4.20895 18.1 5.91895C18.1 7.62895 16.71 9.01895 15 9.01895H11V10.9189H15C17.76 10.9189 20 8.67895 20 5.91895C20 3.15895 17.76 0.918945 15 0.918945Z" fill="#23174B"/>
</svg>
