<svg width="21" height="21" viewBox="0 0 21 21" fill="none" xmlns="http://www.w3.org/2000/svg">
<g id="Group 18">
<circle id="Ellipse 6" cx="10.5" cy="10.4382" r="9" stroke="#23174B" stroke-width="2"/>
<path id="Vector" d="M10.7299 10.0944C9.39194 9.74668 8.96169 9.38715 8.96169 8.82723C8.96169 8.18479 9.55697 7.73686 10.553 7.73686C11.6022 7.73686 11.9912 8.23784 12.0265 8.97458H13.3291C13.2878 7.96083 12.669 7.02959 11.4371 6.729V5.43823H9.66896V6.71132C8.52554 6.95886 7.60609 7.70149 7.60609 8.83902C7.60609 10.2005 8.73183 10.8783 10.3762 11.2732C11.8497 11.6268 12.1444 12.1455 12.1444 12.6936C12.1444 13.1003 11.8556 13.7486 10.553 13.7486C9.3389 13.7486 8.86149 13.2064 8.79666 12.5109H7.5C7.57073 13.8017 8.53733 14.5266 9.66896 14.7683V16.0473H11.4371V14.7801C12.5864 14.562 13.5 13.896 13.5 12.6877C13.5 11.0139 12.0678 10.4422 10.7299 10.0944Z" fill="#23174B"/>
</g>
</svg>
