<svg width="21" height="20" viewBox="0 0 21 20" fill="none" xmlns="http://www.w3.org/2000/svg">
<g id="Vector">
<mask id="path-1-outside-1_94_2567" maskUnits="userSpaceOnUse" x="-0.5" y="0.275879" width="22" height="19" fill="black">
<rect fill="white" x="-0.5" y="0.275879" width="22" height="19"/>
<path d="M12.4028 16.5369L10.1974 18.7244L7.66154 16.2797C7.26603 15.8972 6.80704 15.4789 6.33015 15.0444C3.74387 12.6909 0.628617 9.8507 0.500035 6.33509V6.06654C0.497557 5.42934 0.626342 4.79846 0.878364 4.21322C1.13039 3.62797 1.50024 3.1009 1.96489 2.66486C2.88329 1.82995 4.07204 1.35434 5.31289 1.32534H5.59121C7.8243 1.35464 8.84644 2.33445 10.1778 3.64304C11.2765 2.47606 12.1879 1.52228 14.0434 1.30907C15.0855 1.19281 16.1388 1.38345 17.074 1.85757C17.8597 2.24979 18.5421 2.82127 19.0662 3.52586C19.5981 4.23253 19.9349 5.0666 20.0428 5.94447C20.1469 6.91515 19.9629 7.895 19.5138 8.76184C19.4471 8.89204 19.3706 9.03039 19.2876 9.17199L19.2143 9.29243C20.0536 10.2221 20.5124 11.4334 20.4997 12.6858C20.487 13.9382 20.0037 15.14 19.1458 16.0524C18.2879 16.9649 17.1181 17.5212 15.8689 17.611C14.6196 17.7007 13.3823 17.3173 12.4028 16.5369ZM14.88 10.7426C14.8795 10.6598 14.8961 10.5778 14.9288 10.5017V10.492C14.9937 10.3438 15.1141 10.2269 15.2641 10.1665C15.3399 10.1344 15.4211 10.1173 15.5034 10.116C15.586 10.1158 15.6679 10.1318 15.7443 10.1632C15.8204 10.1958 15.89 10.2422 15.9494 10.2999C16.0078 10.3581 16.0543 10.4273 16.0861 10.5034V10.5148C16.1148 10.5874 16.1302 10.6645 16.1316 10.7426V12.0089H17.393C17.4757 12.0087 17.5575 12.0247 17.6339 12.0561C17.7105 12.0879 17.7802 12.1343 17.839 12.1928C17.8971 12.2514 17.9435 12.3204 17.9757 12.3963V12.4077C18.0043 12.4775 18.0197 12.552 18.0213 12.6274V12.6518C18.0201 12.7306 18.0041 12.8084 17.9741 12.8813C17.9415 12.9574 17.8951 13.027 17.8374 13.0864C17.7795 13.1448 17.7103 13.1908 17.6339 13.2215H17.6225C17.5504 13.25 17.4738 13.2654 17.3963 13.267H16.1447V14.5284C16.1444 14.6111 16.1278 14.693 16.0958 14.7693C16.065 14.8456 16.0197 14.9153 15.9624 14.9744L15.9494 14.9858C15.8944 15.0392 15.8298 15.0818 15.7589 15.1111H15.7475C15.6751 15.1405 15.5978 15.156 15.5197 15.1567C15.437 15.1556 15.3553 15.139 15.2788 15.1078C15.2026 15.0765 15.1334 15.0305 15.075 14.9724C15.0166 14.9143 14.9703 14.8453 14.9386 14.7693C14.9065 14.6936 14.8899 14.6123 14.8898 14.53V13.2687H13.6186C13.5359 13.2684 13.454 13.2518 13.3777 13.2198H13.368C13.2946 13.1896 13.2281 13.1448 13.1726 13.088C13.1125 13.0286 13.0649 12.9578 13.0327 12.8797V12.8683C13.0039 12.7957 12.9885 12.7185 12.9871 12.6404C12.9865 12.5569 13.002 12.474 13.0327 12.3963C13.0641 12.319 13.1105 12.2487 13.1694 12.1896C13.2281 12.1321 13.2971 12.0863 13.3728 12.0545C13.4484 12.0221 13.5299 12.0055 13.6121 12.0056H14.8784V10.7426H14.88ZM18.4119 8.57629C18.4673 8.48189 18.521 8.38586 18.5747 8.28983C18.9289 7.60516 19.0738 6.83137 18.9914 6.06491C18.9076 5.37205 18.6426 4.71353 18.2231 4.15574C17.7989 3.58408 17.2457 3.12066 16.6085 2.8032C15.8566 2.42229 15.0098 2.269 14.172 2.36212C12.686 2.52488 11.8933 3.37123 10.933 4.39174L10.212 5.14694L9.48447 4.44057C8.30119 3.27846 7.41089 2.40281 5.57819 2.3784H5.35033C4.36444 2.39962 3.41918 2.77518 2.68755 3.43634C2.32752 3.77557 2.04127 4.18536 1.84665 4.64013C1.65202 5.0949 1.5532 5.5849 1.55636 6.07956V6.29765C1.66541 9.36568 4.60325 12.0431 7.03654 14.2615C7.50692 14.6895 7.95939 15.1013 8.39071 15.518L10.1811 17.2449L11.6459 15.7947C10.8822 14.8584 10.484 13.6769 10.5254 12.4693C10.5668 11.2618 11.0449 10.1103 11.871 9.22851C12.6971 8.34676 13.8151 7.79467 15.0174 7.67473C16.2197 7.55478 17.4247 7.87512 18.4087 8.57629H18.4119ZM18.2882 9.85721C17.6455 9.21443 16.7997 8.81441 15.8951 8.72528C14.9905 8.63616 14.0829 8.86346 13.3271 9.36845C12.5713 9.87344 12.0139 10.6249 11.7501 11.4947C11.4862 12.3646 11.532 13.299 11.8799 14.1388C12.2277 14.9786 12.856 15.6719 13.6576 16.1004C14.4593 16.5289 15.3847 16.6662 16.2763 16.4889C17.1678 16.3116 17.9703 15.8307 18.547 15.128C19.1237 14.4254 19.4389 13.5445 19.439 12.6355C19.4397 12.1194 19.3384 11.6083 19.1409 11.1315C18.9434 10.6547 18.6537 10.2216 18.2882 9.85721Z"/>
</mask>
<path d="M12.4028 16.5369L10.1974 18.7244L7.66154 16.2797C7.26603 15.8972 6.80704 15.4789 6.33015 15.0444C3.74387 12.6909 0.628617 9.8507 0.500035 6.33509V6.06654C0.497557 5.42934 0.626342 4.79846 0.878364 4.21322C1.13039 3.62797 1.50024 3.1009 1.96489 2.66486C2.88329 1.82995 4.07204 1.35434 5.31289 1.32534H5.59121C7.8243 1.35464 8.84644 2.33445 10.1778 3.64304C11.2765 2.47606 12.1879 1.52228 14.0434 1.30907C15.0855 1.19281 16.1388 1.38345 17.074 1.85757C17.8597 2.24979 18.5421 2.82127 19.0662 3.52586C19.5981 4.23253 19.9349 5.0666 20.0428 5.94447C20.1469 6.91515 19.9629 7.895 19.5138 8.76184C19.4471 8.89204 19.3706 9.03039 19.2876 9.17199L19.2143 9.29243C20.0536 10.2221 20.5124 11.4334 20.4997 12.6858C20.487 13.9382 20.0037 15.14 19.1458 16.0524C18.2879 16.9649 17.1181 17.5212 15.8689 17.611C14.6196 17.7007 13.3823 17.3173 12.4028 16.5369ZM14.88 10.7426C14.8795 10.6598 14.8961 10.5778 14.9288 10.5017V10.492C14.9937 10.3438 15.1141 10.2269 15.2641 10.1665C15.3399 10.1344 15.4211 10.1173 15.5034 10.116C15.586 10.1158 15.6679 10.1318 15.7443 10.1632C15.8204 10.1958 15.89 10.2422 15.9494 10.2999C16.0078 10.3581 16.0543 10.4273 16.0861 10.5034V10.5148C16.1148 10.5874 16.1302 10.6645 16.1316 10.7426V12.0089H17.393C17.4757 12.0087 17.5575 12.0247 17.6339 12.0561C17.7105 12.0879 17.7802 12.1343 17.839 12.1928C17.8971 12.2514 17.9435 12.3204 17.9757 12.3963V12.4077C18.0043 12.4775 18.0197 12.552 18.0213 12.6274V12.6518C18.0201 12.7306 18.0041 12.8084 17.9741 12.8813C17.9415 12.9574 17.8951 13.027 17.8374 13.0864C17.7795 13.1448 17.7103 13.1908 17.6339 13.2215H17.6225C17.5504 13.25 17.4738 13.2654 17.3963 13.267H16.1447V14.5284C16.1444 14.6111 16.1278 14.693 16.0958 14.7693C16.065 14.8456 16.0197 14.9153 15.9624 14.9744L15.9494 14.9858C15.8944 15.0392 15.8298 15.0818 15.7589 15.1111H15.7475C15.6751 15.1405 15.5978 15.156 15.5197 15.1567C15.437 15.1556 15.3553 15.139 15.2788 15.1078C15.2026 15.0765 15.1334 15.0305 15.075 14.9724C15.0166 14.9143 14.9703 14.8453 14.9386 14.7693C14.9065 14.6936 14.8899 14.6123 14.8898 14.53V13.2687H13.6186C13.5359 13.2684 13.454 13.2518 13.3777 13.2198H13.368C13.2946 13.1896 13.2281 13.1448 13.1726 13.088C13.1125 13.0286 13.0649 12.9578 13.0327 12.8797V12.8683C13.0039 12.7957 12.9885 12.7185 12.9871 12.6404C12.9865 12.5569 13.002 12.474 13.0327 12.3963C13.0641 12.319 13.1105 12.2487 13.1694 12.1896C13.2281 12.1321 13.2971 12.0863 13.3728 12.0545C13.4484 12.0221 13.5299 12.0055 13.6121 12.0056H14.8784V10.7426H14.88ZM18.4119 8.57629C18.4673 8.48189 18.521 8.38586 18.5747 8.28983C18.9289 7.60516 19.0738 6.83137 18.9914 6.06491C18.9076 5.37205 18.6426 4.71353 18.2231 4.15574C17.7989 3.58408 17.2457 3.12066 16.6085 2.8032C15.8566 2.42229 15.0098 2.269 14.172 2.36212C12.686 2.52488 11.8933 3.37123 10.933 4.39174L10.212 5.14694L9.48447 4.44057C8.30119 3.27846 7.41089 2.40281 5.57819 2.3784H5.35033C4.36444 2.39962 3.41918 2.77518 2.68755 3.43634C2.32752 3.77557 2.04127 4.18536 1.84665 4.64013C1.65202 5.0949 1.5532 5.5849 1.55636 6.07956V6.29765C1.66541 9.36568 4.60325 12.0431 7.03654 14.2615C7.50692 14.6895 7.95939 15.1013 8.39071 15.518L10.1811 17.2449L11.6459 15.7947C10.8822 14.8584 10.484 13.6769 10.5254 12.4693C10.5668 11.2618 11.0449 10.1103 11.871 9.22851C12.6971 8.34676 13.8151 7.79467 15.0174 7.67473C16.2197 7.55478 17.4247 7.87512 18.4087 8.57629H18.4119ZM18.2882 9.85721C17.6455 9.21443 16.7997 8.81441 15.8951 8.72528C14.9905 8.63616 14.0829 8.86346 13.3271 9.36845C12.5713 9.87344 12.0139 10.6249 11.7501 11.4947C11.4862 12.3646 11.532 13.299 11.8799 14.1388C12.2277 14.9786 12.856 15.6719 13.6576 16.1004C14.4593 16.5289 15.3847 16.6662 16.2763 16.4889C17.1678 16.3116 17.9703 15.8307 18.547 15.128C19.1237 14.4254 19.4389 13.5445 19.439 12.6355C19.4397 12.1194 19.3384 11.6083 19.1409 11.1315C18.9434 10.6547 18.6537 10.2216 18.2882 9.85721Z" fill="#23174B"/>
<path d="M12.4028 16.5369L10.1974 18.7244L7.66154 16.2797C7.26603 15.8972 6.80704 15.4789 6.33015 15.0444C3.74387 12.6909 0.628617 9.8507 0.500035 6.33509V6.06654C0.497557 5.42934 0.626342 4.79846 0.878364 4.21322C1.13039 3.62797 1.50024 3.1009 1.96489 2.66486C2.88329 1.82995 4.07204 1.35434 5.31289 1.32534H5.59121C7.8243 1.35464 8.84644 2.33445 10.1778 3.64304C11.2765 2.47606 12.1879 1.52228 14.0434 1.30907C15.0855 1.19281 16.1388 1.38345 17.074 1.85757C17.8597 2.24979 18.5421 2.82127 19.0662 3.52586C19.5981 4.23253 19.9349 5.0666 20.0428 5.94447C20.1469 6.91515 19.9629 7.895 19.5138 8.76184C19.4471 8.89204 19.3706 9.03039 19.2876 9.17199L19.2143 9.29243C20.0536 10.2221 20.5124 11.4334 20.4997 12.6858C20.487 13.9382 20.0037 15.14 19.1458 16.0524C18.2879 16.9649 17.1181 17.5212 15.8689 17.611C14.6196 17.7007 13.3823 17.3173 12.4028 16.5369ZM14.88 10.7426C14.8795 10.6598 14.8961 10.5778 14.9288 10.5017V10.492C14.9937 10.3438 15.1141 10.2269 15.2641 10.1665C15.3399 10.1344 15.4211 10.1173 15.5034 10.116C15.586 10.1158 15.6679 10.1318 15.7443 10.1632C15.8204 10.1958 15.89 10.2422 15.9494 10.2999C16.0078 10.3581 16.0543 10.4273 16.0861 10.5034V10.5148C16.1148 10.5874 16.1302 10.6645 16.1316 10.7426V12.0089H17.393C17.4757 12.0087 17.5575 12.0247 17.6339 12.0561C17.7105 12.0879 17.7802 12.1343 17.839 12.1928C17.8971 12.2514 17.9435 12.3204 17.9757 12.3963V12.4077C18.0043 12.4775 18.0197 12.552 18.0213 12.6274V12.6518C18.0201 12.7306 18.0041 12.8084 17.9741 12.8813C17.9415 12.9574 17.8951 13.027 17.8374 13.0864C17.7795 13.1448 17.7103 13.1908 17.6339 13.2215H17.6225C17.5504 13.25 17.4738 13.2654 17.3963 13.267H16.1447V14.5284C16.1444 14.6111 16.1278 14.693 16.0958 14.7693C16.065 14.8456 16.0197 14.9153 15.9624 14.9744L15.9494 14.9858C15.8944 15.0392 15.8298 15.0818 15.7589 15.1111H15.7475C15.6751 15.1405 15.5978 15.156 15.5197 15.1567C15.437 15.1556 15.3553 15.139 15.2788 15.1078C15.2026 15.0765 15.1334 15.0305 15.075 14.9724C15.0166 14.9143 14.9703 14.8453 14.9386 14.7693C14.9065 14.6936 14.8899 14.6123 14.8898 14.53V13.2687H13.6186C13.5359 13.2684 13.454 13.2518 13.3777 13.2198H13.368C13.2946 13.1896 13.2281 13.1448 13.1726 13.088C13.1125 13.0286 13.0649 12.9578 13.0327 12.8797V12.8683C13.0039 12.7957 12.9885 12.7185 12.9871 12.6404C12.9865 12.5569 13.002 12.474 13.0327 12.3963C13.0641 12.319 13.1105 12.2487 13.1694 12.1896C13.2281 12.1321 13.2971 12.0863 13.3728 12.0545C13.4484 12.0221 13.5299 12.0055 13.6121 12.0056H14.8784V10.7426H14.88ZM18.4119 8.57629C18.4673 8.48189 18.521 8.38586 18.5747 8.28983C18.9289 7.60516 19.0738 6.83137 18.9914 6.06491C18.9076 5.37205 18.6426 4.71353 18.2231 4.15574C17.7989 3.58408 17.2457 3.12066 16.6085 2.8032C15.8566 2.42229 15.0098 2.269 14.172 2.36212C12.686 2.52488 11.8933 3.37123 10.933 4.39174L10.212 5.14694L9.48447 4.44057C8.30119 3.27846 7.41089 2.40281 5.57819 2.3784H5.35033C4.36444 2.39962 3.41918 2.77518 2.68755 3.43634C2.32752 3.77557 2.04127 4.18536 1.84665 4.64013C1.65202 5.0949 1.5532 5.5849 1.55636 6.07956V6.29765C1.66541 9.36568 4.60325 12.0431 7.03654 14.2615C7.50692 14.6895 7.95939 15.1013 8.39071 15.518L10.1811 17.2449L11.6459 15.7947C10.8822 14.8584 10.484 13.6769 10.5254 12.4693C10.5668 11.2618 11.0449 10.1103 11.871 9.22851C12.6971 8.34676 13.8151 7.79467 15.0174 7.67473C16.2197 7.55478 17.4247 7.87512 18.4087 8.57629H18.4119ZM18.2882 9.85721C17.6455 9.21443 16.7997 8.81441 15.8951 8.72528C14.9905 8.63616 14.0829 8.86346 13.3271 9.36845C12.5713 9.87344 12.0139 10.6249 11.7501 11.4947C11.4862 12.3646 11.532 13.299 11.8799 14.1388C12.2277 14.9786 12.856 15.6719 13.6576 16.1004C14.4593 16.5289 15.3847 16.6662 16.2763 16.4889C17.1678 16.3116 17.9703 15.8307 18.547 15.128C19.1237 14.4254 19.4389 13.5445 19.439 12.6355C19.4397 12.1194 19.3384 11.6083 19.1409 11.1315C18.9434 10.6547 18.6537 10.2216 18.2882 9.85721Z" stroke="#23174B" stroke-width="0.564703" mask="url(#path-1-outside-1_94_2567)"/>
</g>
</svg>
