<svg width="67" height="30" viewBox="0 0 67 30" fill="none" xmlns="http://www.w3.org/2000/svg">
<rect x="0.89974" y="1.66665" width="65" height="26.6667" rx="13.3333" stroke="white" stroke-width="1.66667"/>
<path d="M15.0514 0C6.77141 0 0.0664062 6.72 0.0664062 15C0.0664062 23.28 6.77141 30 15.0514 30C23.3464 30 30.0664 23.28 30.0664 15C30.0664 6.72 23.3464 0 15.0514 0ZM25.4464 9H21.0214C20.5414 7.125 19.8514 5.325 18.9514 3.66C21.7114 4.605 24.0064 6.525 25.4464 9ZM15.0664 3.06C16.3114 4.86 17.2864 6.855 17.9314 9H12.2014C12.8464 6.855 13.8214 4.86 15.0664 3.06ZM3.45641 18C3.21641 17.04 3.06641 16.035 3.06641 15C3.06641 13.965 3.21641 12.96 3.45641 12H8.52641C8.40641 12.99 8.31641 13.98 8.31641 15C8.31641 16.02 8.40641 17.01 8.52641 18H3.45641ZM4.68641 21H9.11141C9.59141 22.875 10.2814 24.675 11.1814 26.34C8.42141 25.395 6.12641 23.49 4.68641 21ZM9.11141 9H4.68641C6.12641 6.51 8.42141 4.605 11.1814 3.66C10.2814 5.325 9.59141 7.125 9.11141 9ZM15.0664 26.94C13.8214 25.14 12.8464 23.145 12.2014 21H17.9314C17.2864 23.145 16.3114 25.14 15.0664 26.94ZM18.5764 18H11.5564C11.4214 17.01 11.3164 16.02 11.3164 15C11.3164 13.98 11.4214 12.975 11.5564 12H18.5764C18.7114 12.975 18.8164 13.98 18.8164 15C18.8164 16.02 18.7114 17.01 18.5764 18ZM18.9514 26.34C19.8514 24.675 20.5414 22.875 21.0214 21H25.4464C24.0064 23.475 21.7114 25.395 18.9514 26.34ZM21.6064 18C21.7264 17.01 21.8164 16.02 21.8164 15C21.8164 13.98 21.7264 12.99 21.6064 12H26.6764C26.9164 12.96 27.0664 13.965 27.0664 15C27.0664 16.035 26.9164 17.04 26.6764 18H21.6064Z" fill="white"/>
</svg>
