<svg width="11" height="16" viewBox="0 0 11 16" fill="none" xmlns="http://www.w3.org/2000/svg">
<path d="M5.30573 0C2.37242 0 0 2.37242 0 5.30573C0 6.62459 0.378981 7.86006 1.06873 8.97427C1.78879 10.1415 2.73624 11.142 3.46388 12.3093C3.82013 12.8778 4.07783 13.4083 4.3507 14.0223C4.54777 14.4392 4.70694 15.1592 5.30573 15.1592C5.90452 15.1592 6.06369 14.4392 6.25318 14.0223C6.53363 13.4083 6.78376 12.8778 7.14 12.3093C7.86764 11.1496 8.8151 10.1491 9.53516 8.97427C10.2325 7.86006 10.6115 6.62459 10.6115 5.30573C10.6115 2.37242 8.23904 0 5.30573 0ZM5.30573 7.39013C4.25975 7.39013 3.41083 6.54121 3.41083 5.49522C3.41083 4.44924 4.25975 3.60032 5.30573 3.60032C6.35172 3.60032 7.20064 4.44924 7.20064 5.49522C7.20064 6.54121 6.35172 7.39013 5.30573 7.39013Z" fill="white"/>
</svg>
