<svg width="24" height="25" viewBox="0 0 24 25" fill="none" xmlns="http://www.w3.org/2000/svg">
<path d="M12 0.731445C5.376 0.731445 0 6.10745 0 12.7314C0 19.3554 5.376 24.7314 12 24.7314C18.624 24.7314 24 19.3554 24 12.7314C24 6.10745 18.624 0.731445 12 0.731445ZM12 4.33145C13.992 4.33145 15.6 5.93945 15.6 7.93145C15.6 9.92345 13.992 11.5314 12 11.5314C10.008 11.5314 8.4 9.92345 8.4 7.93145C8.4 5.93945 10.008 4.33145 12 4.33145ZM12 21.3714C9 21.3714 6.348 19.8354 4.8 17.5074C4.836 15.1194 9.6 13.8114 12 13.8114C14.388 13.8114 19.164 15.1194 19.2 17.5074C17.652 19.8354 15 21.3714 12 21.3714Z" fill="white"/>
</svg>
