<svg width="17" height="16" viewBox="0 0 17 16" fill="none" xmlns="http://www.w3.org/2000/svg">
<path d="M15.1579 3.36842H12.6316V1.68421C12.6316 0.749474 11.8821 0 10.9474 0H5.89474C4.96 0 4.21053 0.749474 4.21053 1.68421V3.36842H1.68421C0.749474 3.36842 0 4.11789 0 5.05263V14.3158C0 15.2505 0.749474 16 1.68421 16H15.1579C16.0926 16 16.8421 15.2505 16.8421 14.3158V5.05263C16.8421 4.11789 16.0926 3.36842 15.1579 3.36842ZM5.89474 1.68421H10.9474V3.36842H5.89474V1.68421ZM15.1579 14.3158H1.68421V12.6316H15.1579V14.3158ZM15.1579 10.1053H1.68421V5.05263H4.21053V6.73684H5.89474V5.05263H10.9474V6.73684H12.6316V5.05263H15.1579V10.1053Z" fill="#23174B"/>
</svg>
