<svg width="39" height="38" viewBox="0 0 39 38" fill="none" xmlns="http://www.w3.org/2000/svg">
<path id="Vector" d="M27.5475 23.8056H25.864L25.2673 23.2302C27.3557 20.8007 28.6131 17.6467 28.6131 14.2157C28.6131 6.56505 22.4116 0.363586 14.761 0.363586C7.1104 0.363586 0.908936 6.56505 0.908936 14.2157C0.908936 21.8663 7.1104 28.0677 14.761 28.0677C18.1921 28.0677 21.3461 26.8104 23.7755 24.7219L24.3509 25.3186V27.0022L35.0063 37.6363L38.1817 34.461L27.5475 23.8056ZM14.761 23.8056C9.4546 23.8056 5.17111 19.5221 5.17111 14.2157C5.17111 8.90925 9.4546 4.62576 14.761 4.62576C20.0674 4.62576 24.3509 8.90925 24.3509 14.2157C24.3509 19.5221 20.0674 23.8056 14.761 23.8056Z" fill="white"/>
</svg>
