<svg width="18" height="19" viewBox="0 0 18 19" fill="none" xmlns="http://www.w3.org/2000/svg">
<path d="M8.991 0.5C4.023 0.5 0 4.532 0 9.5C0 14.468 4.023 18.5 8.991 18.5C13.968 18.5 18 14.468 18 9.5C18 4.532 13.968 0.5 8.991 0.5ZM15.228 5.9H12.573C12.285 4.775 11.871 3.695 11.331 2.696C12.987 3.263 14.364 4.415 15.228 5.9ZM9 2.336C9.747 3.416 10.332 4.613 10.719 5.9H7.281C7.668 4.613 8.253 3.416 9 2.336ZM2.034 11.3C1.89 10.724 1.8 10.121 1.8 9.5C1.8 8.879 1.89 8.276 2.034 7.7H5.076C5.004 8.294 4.95 8.888 4.95 9.5C4.95 10.112 5.004 10.706 5.076 11.3H2.034ZM2.772 13.1H5.427C5.715 14.225 6.129 15.305 6.669 16.304C5.013 15.737 3.636 14.594 2.772 13.1ZM5.427 5.9H2.772C3.636 4.406 5.013 3.263 6.669 2.696C6.129 3.695 5.715 4.775 5.427 5.9ZM9 16.664C8.253 15.584 7.668 14.387 7.281 13.1H10.719C10.332 14.387 9.747 15.584 9 16.664ZM11.106 11.3H6.894C6.813 10.706 6.75 10.112 6.75 9.5C6.75 8.888 6.813 8.285 6.894 7.7H11.106C11.187 8.285 11.25 8.888 11.25 9.5C11.25 10.112 11.187 10.706 11.106 11.3ZM11.331 16.304C11.871 15.305 12.285 14.225 12.573 13.1H15.228C14.364 14.585 12.987 15.737 11.331 16.304ZM12.924 11.3C12.996 10.706 13.05 10.112 13.05 9.5C13.05 8.888 12.996 8.294 12.924 7.7H15.966C16.11 8.276 16.2 8.879 16.2 9.5C16.2 10.121 16.11 10.724 15.966 11.3H12.924Z" fill="#1D1A20"/>
</svg>
