<?xml version="1.0" encoding="UTF-8"?>
<svg id="uuid-cc72feae-881b-4736-add1-ff4743771b24" data-name="Layer 1" xmlns="http://www.w3.org/2000/svg" viewBox="0 0 303.64 441.81">
  <defs>
    <style>
      .uuid-d2011592-64de-46f9-aa0a-12b39dbb56ee {
        fill: #585893;
      }

      .uuid-d2011592-64de-46f9-aa0a-12b39dbb56ee, .uuid-aed5bf23-d90c-4fee-b0c6-65a72f435fe8 {
        stroke-width: 0px;
      }

      .uuid-aed5bf23-d90c-4fee-b0c6-65a72f435fe8 {
        fill: #4a4990;
      }
    </style>
  </defs>
  <rect class="uuid-aed5bf23-d90c-4fee-b0c6-65a72f435fe8" width="303.64" height="441.81"/>
  <path class="uuid-d2011592-64de-46f9-aa0a-12b39dbb56ee" d="M250.99,426.11c1.74,0,3.15-1.37,3.15-3.05v-.09c0-1.69-1.41-3.05-3.15-3.05s-3.15,1.37-3.15,3.05v.09c0,1.69,1.41,3.05,3.15,3.05h0ZM233.75,414.56c-.81-2.43-2.29-4.58-4.27-6.24-1.32-1.1-3.31-.96-4.44.32-1.13,1.28-.99,3.21.33,4.31,1.11.93,1.94,2.14,2.39,3.5.66,1.98.49,4.1-.48,5.96-.98,1.86-2.64,3.24-4.68,3.88-16.79,5.29-23.37,10.37-25.93,13.69-.49.64-.86,1.25-1.13,1.84h8.01c.89-.74,2.13-1.62,3.84-2.62,4.21-2.45,9.98-4.84,17.16-7.1,7.52-2.37,11.66-10.24,9.21-17.54h0ZM228.94,391.79c.82,0,1.64-.31,2.26-.92,2.15-2.14,3.51-4.85,3.93-7.82.16-1.1,1.4-2.44,2.51-2.71,1.82-.43,5.26.14,8.59.69,3.53.59,7.53,1.25,11.87,1.25,2.3,0,4.44-.18,6.57-.56,1.86-.33,3.7-.82,5.48-1.47,1.63-.6,2.45-2.36,1.84-3.94-.61-1.58-2.43-2.38-4.06-1.78-1.42.52-2.89.91-4.38,1.18-1.75.31-3.53.46-5.44.46-3.8,0-7.36-.59-10.8-1.17-4.14-.69-8.06-1.34-11.15-.61-3.63.86-6.75,4.22-7.26,7.82-.23,1.67-1,3.18-2.2,4.39-1.21,1.21-1.19,3.14.06,4.32.61.58,1.41.87,2.2.87h0ZM180.61,429.36c-1.52-.82-3.44-.3-4.29,1.17-2.35,4.08-3.34,7.97-3.7,11.28h6.35c.34-2.5,1.14-5.33,2.85-8.29.85-1.47.31-3.33-1.21-4.16h0ZM249.79,397.22c-1.16-1.25-3.15-1.36-4.45-.23l-1.84,1.6c-1.29,1.13-1.4,3.06-.24,4.31.62.67,1.48,1.01,2.34,1.01.75,0,1.5-.26,2.1-.78l1.84-1.6c1.29-1.13,1.4-3.06.24-4.31h0ZM276.22,386.36c-.63-1.57-2.45-2.36-4.07-1.75-2.13.8-4.35,1.4-6.6,1.8-2.42.43-4.85.63-7.44.63-4.75,0-9.15-.73-12.69-1.32-.95-.16-1.92-.32-2.86-.46-1.5-.22-2.95.63-3.45,2.02-.44,1.24-1.02,2.43-1.72,3.55-.9,1.44-.42,3.32,1.06,4.2.51.3,1.07.44,1.63.44,1.07,0,2.11-.52,2.7-1.47.47-.75.89-1.52,1.27-2.31.1.02.2.03.3.05,3.78.63,8.47,1.41,13.76,1.41,2.97,0,5.78-.24,8.57-.73,2.64-.46,5.24-1.17,7.74-2.11,1.62-.61,2.43-2.38,1.8-3.95h0ZM223.1,417.91c-.54-1.6-2.31-2.48-3.97-1.96-8.37,2.64-15.32,5.54-20.65,8.63-4.73,2.74-8.36,5.74-10.8,8.9-2.28,2.97-3.32,5.81-3.76,8.33h6.43c.39-1.47,1.1-3.03,2.37-4.68,4.34-5.64,13.87-10.81,28.34-15.37,1.65-.52,2.56-2.24,2.02-3.85h0ZM262.79,308.97c1.14-1.36,2.67-2.29,4.43-2.68,1.7-.38,2.75-2.02,2.36-3.66-.39-1.64-2.08-2.67-3.78-2.29-3.14.7-5.87,2.35-7.91,4.78-4.46,5.32-6.97,11.56-7.25,18.03-.08,1.88.03,3.77.33,5.64.24,1.51,1.58,2.59,3.11,2.59.16,0,.32-.01.48-.04,1.72-.26,2.9-1.82,2.63-3.49-.23-1.48-.32-2.97-.26-4.45.22-5.15,2.24-10.14,5.84-14.43h0ZM235.37,333.72l-.11.05c-1.54.79-2.13,2.63-1.32,4.13.56,1.04,1.66,1.63,2.79,1.63.49,0,1-.11,1.46-.35l.1-.05c1.54-.78,2.13-2.63,1.32-4.12-.81-1.49-2.71-2.07-4.25-1.28h0ZM228.16,342.75c-3.83.91-7.53,2.35-11,4.28-1.51.84-2.03,2.71-1.17,4.17.58.99,1.64,1.54,2.74,1.54.53,0,1.07-.13,1.56-.41,2.95-1.64,6.1-2.87,9.36-3.64,3.09-.73,6.24-1.09,9.61-1.09,4.71,0,8.93.7,12.65,1.32.98.16,2,.33,2.93.47.88.13,1.77-.11,2.46-.66.69-.55,1.11-1.35,1.15-2.21.07-1.39.31-2.78.7-4.14.24-.81.53-1.62.88-2.38.7-1.55-.03-3.35-1.63-4.02-1.59-.67-3.45.03-4.15,1.58-.46,1.02-.85,2.08-1.17,3.16-.2.7-.38,1.41-.52,2.12-3.87-.64-8.24-1.34-13.32-1.34-3.89,0-7.52.41-11.11,1.27h0ZM219.03,308.87c1.55,1.14,2.99,2.44,4.28,3.84.41.44.93.76,1.52.91.48.13.96.26,1.42.39,1.83.53,3.62,1.15,5.32,1.84.4.16.81.24,1.22.24,1.23,0,2.4-.7,2.91-1.87.67-1.56-.08-3.35-1.69-4-1.91-.78-3.92-1.47-5.96-2.06-.22-.06-.44-.13-.67-.19-1.4-1.45-2.93-2.79-4.57-3.99-.06-.05-.13-.09-.19-.14l-.08-.06c-.93-.67-2.16-.79-3.21-.32h-.03c-1.57.73-2.25,2.55-1.51,4.08.28.58.72,1.03,1.24,1.33h0ZM245.55,420.98c.29-3.31-.09-6.61-1.16-9.78-1.7-5.08-4.96-9.4-9.43-12.5-1.11-.77-2.28-1.45-3.49-2.04-1.56-.75-3.45-.14-4.22,1.37-.78,1.51-.15,3.34,1.41,4.1.91.44,1.8.96,2.64,1.54,3.37,2.33,5.82,5.59,7.1,9.42.8,2.39,1.1,4.87.87,7.37-.21,2.41-.9,4.72-2.03,6.88-1.13,2.16-2.66,4.05-4.54,5.63-1.95,1.64-4.19,2.87-6.66,3.64-6.02,1.9-10.33,3.67-13.42,5.2h17.1c2.6-1.02,4.98-2.44,7.11-4.23,2.5-2.1,4.53-4.61,6.03-7.48,1.5-2.86,2.41-5.93,2.69-9.13h0ZM151.82,438.61c-2.38-.38-4.73-.11-6.83.79-1.05.45-1.71,1.38-1.85,2.41h15.95c-1.21-.92-2.53-1.68-3.91-2.25-1.11-.46-2.24-.77-3.36-.95h0ZM249.76,433.34c-1.41-.99-3.38-.68-4.4.69-2.08,2.79-4.4,5.39-6.93,7.78h8.63c1.19-1.35,2.33-2.76,3.41-4.2,1.02-1.37.7-3.28-.71-4.27h0ZM296.81,439.4c-1.04.45-1.71,1.38-1.85,2.41h8.68v-3.2c-2.38-.38-4.73-.11-6.83.79h0ZM256.01,411.71c1.54-2.32,3.35-4.21,4.94-5.88l.03-.03c.26-.28.53-.55.79-.83,1.05-1.12,2.11-2.3,2.73-3.4.84-1.48.29-3.34-1.23-4.15-1.52-.82-3.44-.28-4.28,1.2-.23.41-.86,1.16-1.87,2.24-.25.27-.5.53-.76.8l-.03.03c-1.77,1.85-3.77,3.95-5.6,6.71-.94,1.42-.52,3.31.94,4.22.53.33,1.12.49,1.71.49,1.03,0,2.05-.49,2.65-1.4h0ZM275.63,437.23c-2.15-.56-4.37-.84-6.59-.84-5.89,0-11.48,1.94-15.97,5.43h24.4c.17-.25.29-.54.38-.84.45-1.63-.55-3.31-2.23-3.74h0ZM276.46,413.05c-1.65-.52-3.43.35-3.97,1.95-.54,1.6.36,3.33,2.02,3.85,5.41,1.72,11.22,2.59,17.06,2.59,1.82,0,3.64-.08,5.45-.26,2.23-.21,4.45-.55,6.63-1.02v-6.28c-8.92,2.15-18.48,1.91-27.18-.85h0ZM277.48,294.54c.17-.25.29-.54.38-.84.45-1.63-.55-3.31-2.23-3.74-2.15-.56-4.37-.84-6.59-.84-5.89,0-11.48,1.94-15.97,5.43-1.4,1.09-2.7,2.33-3.86,3.72-6,7.15-9.37,15.6-9.75,24.43-.17,4,.28,8.01,1.34,11.92.37,1.37,1.65,2.28,3.04,2.28.27,0,.54-.03.81-.1,1.68-.43,2.69-2.1,2.24-3.73-.9-3.32-1.29-6.72-1.14-10.11.32-7.51,3.21-14.71,8.34-20.83,3.67-4.38,9.12-6.89,14.94-6.89,1.67,0,3.34.21,4.96.63,1.37.35,2.76-.22,3.48-1.32h0ZM247.06,294.54c1.19-1.35,2.33-2.76,3.41-4.21,1.02-1.37.7-3.28-.71-4.26-1.41-.99-3.38-.68-4.4.69-2.08,2.79-4.4,5.39-6.93,7.78-1.71,1.61-3.51,3.12-5.41,4.53-1.38,1.02-1.64,2.94-.59,4.28.62.79,1.56,1.2,2.5,1.2.67,0,1.34-.21,1.91-.63,3.74-2.78,7.16-5.92,10.21-9.39h0ZM224.04,381.58c.77-5.51,5.38-10.47,10.95-11.79,4.08-.97,8.49-.24,13.15.54,4.7.78,9.57,1.59,14.54.72,2.37-.42,4.66-1.25,6.81-2.48,1.5-.86,2-2.73,1.12-4.18-.88-1.45-2.81-1.94-4.31-1.09-1.51.86-3.11,1.44-4.74,1.73-3.88.68-8,0-12.35-.73-5.09-.85-10.35-1.72-15.71-.45-8.11,1.93-14.56,8.87-15.69,16.9-.24,1.67.97,3.21,2.69,3.44.14.02.29.03.43.03,1.55,0,2.9-1.11,3.12-2.64h0ZM291.11,324.07c-.72-1.53-2.59-2.21-4.17-1.51-1.58.7-2.28,2.51-1.55,4.05l1.73,3.67c.53,1.12,1.67,1.78,2.87,1.78.44,0,.88-.09,1.31-.28,1.58-.7,2.28-2.52,1.55-4.05l-1.73-3.67h0ZM298.75,344.48c-1.7.36-2.78,1.99-2.41,3.64,1.42,6.29,1.72,12.06,1.97,16.7.09,1.69.24,4.52.46,6.11.06.4.19.79.4,1.14,1.07,1.77,2.84,4.71,4.46,8.36v-27.23c-.28-2.05-.65-4.19-1.14-6.38-.37-1.65-2.05-2.69-3.75-2.33h0ZM300.64,302.33c-3.96,1.29-8.22-.53-9.91-4.24-.7-1.54-2.56-2.24-4.16-1.55-1.59.68-2.31,2.49-1.6,4.03,1.46,3.19,4.08,5.72,7.37,7.11,2.64,1.12,5.52,1.44,8.31.94.91,1.58,1.69,4.15,2.45,6.64h0c.17.59.35,1.17.54,1.77v-14.2c-.16-.1-.3-.19-.42-.26-.78-.44-1.72-.53-2.58-.25h0ZM291.94,409.13v.23c0,1.69,1.41,3.06,3.15,3.06s3.15-1.37,3.15-3.06v-.23c0-1.69-1.41-3.06-3.15-3.06s-3.15,1.37-3.15,3.06h0ZM212.72,405.58c-1.14.52-1.82,1.62-1.82,2.77,0,.43.09.87.3,1.29.53,1.11,1.67,1.76,2.86,1.76.45,0,.9-.09,1.33-.29,2.75-1.24,4.95-3.65,6.05-6.6.5-1.35.75-2.76.75-4.14,0-1.64-.35-3.24-1.05-4.69-1.53-3.15-4.27-5.19-6.7-6.98-1-.74-1.95-1.44-2.78-2.19-3.29-2.96-5.16-7.45-5.15-11.91,0-1.55.22-3.09.69-4.57.09-.3.14-.6.14-.9,0-1.31-.87-2.52-2.22-2.92-1.66-.5-3.43.41-3.94,2.02-.65,2.06-.98,4.21-.98,6.39,0,1.94.26,3.89.78,5.82,1.11,4.14,3.33,7.78,6.41,10.55,1.05.94,2.16,1.76,3.23,2.56,2.03,1.5,3.95,2.92,4.82,4.73.3.63.46,1.34.46,2.08,0,.68-.13,1.38-.38,2.07-.54,1.44-1.55,2.58-2.79,3.14h0ZM292.13,340.06c.62.6,1.42.9,2.23.9s1.61-.3,2.22-.89l.09-.08c1.23-1.19,1.23-3.13,0-4.32-1.23-1.19-3.23-1.19-4.45,0l-.08.08c-1.23,1.19-1.23,3.13,0,4.32h0ZM279.71,318.38c-1.35-1.06-3.33-.87-4.43.44-.97,1.16-2.15,3.01-2.25,5.23-.1,2.43,1.12,5.09,3.63,7.89,4.21,4.7,6.29,10.18,7.64,14.44,2.17,6.85,2.53,13.58,2.82,18.99.27,5.03.51,8.47,1.42,10.51.04.09.08.18.13.26.14.25.39.65.69,1.16h0c1.74,2.89,4.64,7.7,6.03,13.22.89,3.55,1.03,6.92.39,10.02-.34,1.66.77,3.26,2.48,3.59.21.04.41.06.62.06,1.47,0,2.79-1.01,3.09-2.46.81-3.97.66-8.23-.45-12.66-1.61-6.4-4.8-11.69-6.71-14.85h0c-.16-.27-.38-.63-.52-.87-.1-.29-.31-1.07-.51-2.98-.17-1.63-.27-3.51-.36-5.32-.31-5.75-.69-12.9-3.09-20.47-1.53-4.83-3.92-11.09-8.91-16.65-1.59-1.77-2.12-3.06-2.1-3.63.02-.42.33-1.03.84-1.63,1.1-1.31.89-3.23-.46-4.3h0ZM298.4,316.61v-.03c-.1-.31-.21-.65-.31-1-.35-1.15-1.37-1.99-2.59-2.16-6.57-.87-12.32-5.06-15-10.93-.71-1.54-2.57-2.24-4.16-1.56-1.59.68-2.31,2.49-1.6,4.03,1.77,3.87,4.55,7.26,8.05,9.8,2.92,2.12,6.27,3.6,9.81,4.36.31,1.02.64,2.07,1.01,3.19,1.66,4.99,3.68,9.25,6.17,13.02,1.19,1.79,2.47,3.46,3.86,5.01v-10.67c-1.56-2.74-2.89-5.79-4.04-9.24-.45-1.34-.83-2.61-1.2-3.83h0ZM286.58,435.17h-.21c-1.74,0-3.15,1.37-3.15,3.06s1.41,3.05,3.15,3.05h.21c1.74,0,3.15-1.37,3.15-3.05s-1.41-3.06-3.15-3.06h0ZM282.22,402.78c-1.29,1.13-1.39,3.06-.23,4.32.62.67,1.48,1.01,2.34,1.01.75,0,1.51-.26,2.11-.79,2.41-2.11,3.94-4.69,4.55-7.68.49-2.41.38-5.09-.35-7.97-1.22-4.85-3.9-9.29-5.5-11.94-.42-.7-.82-1.36-.97-1.66-1.44-3.01-1.68-7.38-1.94-12.44-.29-5.41-.62-11.55-2.61-17.84-1.2-3.81-3.05-8.69-6.66-12.72-7.92-8.84-4.33-15.85-1.49-19.24,1.1-1.31.89-3.23-.46-4.3-1.35-1.06-3.33-.87-4.43.44-2.04,2.44-4.52,6.43-4.75,11.63-.23,5.29,1.91,10.5,6.37,15.47,2.83,3.16,4.37,7.27,5.39,10.5,1.76,5.57,2.07,11.3,2.34,16.36.3,5.7.57,10.62,2.52,14.7.27.57.68,1.24,1.24,2.17,1.43,2.36,3.81,6.31,4.81,10.3,1.41,5.62-.64,8.2-2.3,9.66h0ZM291.52,426.21c-2.13,0-4.28-.11-6.39-.32-4.15-.42-8.24-1.27-12.15-2.51-1.65-.52-3.43.35-3.97,1.95-.54,1.6.36,3.33,2.02,3.85,4.33,1.37,8.85,2.3,13.44,2.78,2.32.24,4.69.36,7.05.36,2.19,0,4.4-.1,6.58-.31,1.85-.17,3.7-.43,5.54-.75v-6.22c-2.03.4-4.09.7-6.15.89-1.98.19-3.98.28-5.97.28h0ZM269.17,413.21c.29-.3.58-.6.86-.91,1.88-2,3.78-4.21,4.99-6.89,1.48-3.3,1.6-6.83.32-9.69-.69-1.55-2.55-2.25-4.15-1.58-1.59.67-2.32,2.47-1.63,4.02.58,1.29.46,3.08-.31,4.8-.79,1.76-2.12,3.36-3.87,5.22-.28.29-.56.59-.83.88-1.53,1.6-3.11,3.26-4.42,5.23-3.74,5.62-4.49,12.98-1.96,19.2.49,1.2,1.68,1.93,2.93,1.93.38,0,.78-.07,1.16-.21,1.62-.62,2.41-2.39,1.77-3.96-1.8-4.42-1.27-9.65,1.39-13.64,1.02-1.53,2.35-2.92,3.75-4.4h0ZM173.69,420.38c-1.41-.99-3.38-.68-4.4.69-3.42,4.61-5.78,9.64-7.02,14.97-.2.87-.37,1.76-.52,2.64-.21,1.29.46,2.52,1.56,3.13h3.09c.81-.44,1.42-1.23,1.57-2.19.12-.75.27-1.5.44-2.24,1.05-4.52,3.06-8.8,5.98-12.73,1.02-1.37.7-3.28-.71-4.27h0ZM211.32,375.98c.49.27,1.03.4,1.56.4,1.09,0,2.16-.55,2.74-1.54,1.24-2.1,1.68-4.57,1.23-6.94-.31-1.66-1.95-2.76-3.66-2.46-1.71.3-2.85,1.89-2.54,3.55.18.95,0,1.98-.5,2.82-.86,1.46-.34,3.33,1.17,4.17h0ZM212.79,330.04c-.38,1.65.68,3.28,2.38,3.65l.24.05c1.36.3,2.9.64,4.45,1.08,2.31.67,4.41,1.55,6.24,2.62.51.3,1.07.44,1.62.44,1.07,0,2.11-.53,2.7-1.48.9-1.45.42-3.32-1.07-4.19-2.28-1.33-4.87-2.42-7.69-3.24-1.75-.51-3.41-.87-4.86-1.19l-.24-.05c-1.7-.37-3.38.66-3.77,2.31h0ZM187.87,353.58h0,0ZM183.83,353.69c-7.76,0-14.42-1.44-20.35-4.41-4.42-2.21-8.32-5.2-11.66-8.94-1.38-1.54-2.67-3.21-3.86-5.01-2.5-3.78-4.52-8.03-6.17-13.02-.37-1.12-.7-2.18-1.01-3.19-3.54-.76-6.9-2.25-9.81-4.36-3.5-2.54-6.28-5.93-8.05-9.8-.7-1.54.01-3.35,1.6-4.03,1.59-.68,3.45.01,4.16,1.56,2.69,5.88,8.43,10.07,15,10.93,1.23.16,2.24,1,2.59,2.16.11.35.21.69.3,1v.03c.38,1.22.76,2.49,1.21,3.83,1.15,3.45,2.48,6.5,4.04,9.24.46.81.94,1.6,1.44,2.36,3.45,5.22,7.86,9.19,13.1,11.81,5.01,2.51,10.73,3.73,17.46,3.73,1.14,0,2.36-.03,3.71-.1h.01c1.61-.08,3.16.53,4.24,1.69.83.89,1.76,1.71,2.77,2.43,1.63,1.17,3.43,2.09,5.35,2.71,1.97.64,4.03.97,6.11.97,1.01,0,2.04-.08,3.04-.23,1.72-.26,3.33.87,3.61,2.54.27,1.67-.9,3.23-2.62,3.5-1.33.21-2.69.31-4.03.31-2.77,0-5.5-.43-8.12-1.29-2.55-.83-4.94-2.04-7.1-3.6-1.2-.87-2.33-1.84-3.36-2.9-1.29.06-2.48.09-3.61.09h0ZM215.77,320.89c.24.3.47.6.69.91.05.07.1.14.14.21.45.65,1.14,1.11,1.92,1.29,1.4.31,2.91.66,4.53,1.12,2.45.71,4.77,1.61,6.89,2.67.46.23.96.34,1.45.34,1.14,0,2.24-.6,2.8-1.65.8-1.5.2-3.34-1.35-4.12-2.47-1.24-5.16-2.29-7.99-3.1-1.32-.38-2.59-.69-3.74-.96-.12-.16-.24-.31-.37-.47-1.07-1.33-3.05-1.57-4.42-.53-1.37,1.04-1.62,2.96-.55,4.29h0ZM208.61,402.58c.69-.61,1.06-1.48,1.02-2.38-.04-.9-.48-1.74-1.22-2.29l-.13-.1c-2.72-2.03-3.82-2.96-4.23-3.33-2.08-1.87-3.84-4.07-5.25-6.54-1.34-2.36-2.31-4.92-2.89-7.59-.58-2.67-.75-5.39-.51-8.07.14-1.61.44-3.2.87-4.73.46-1.63-.52-3.31-2.2-3.76-1.68-.45-3.41.5-3.87,2.13-.54,1.89-.9,3.85-1.08,5.83-.29,3.28-.08,6.6.62,9.86.71,3.26,1.9,6.38,3.53,9.27,1.73,3.05,3.91,5.77,6.49,8.09.51.46,1.25,1.06,2.21,1.82-.95,1.43-1.63,3.03-2,4.74-.63,2.95-.27,5.96,1.05,8.7.53,1.11,1.67,1.76,2.86,1.76.45,0,.9-.09,1.33-.29,1.58-.71,2.26-2.53,1.52-4.06-1.5-3.11-.75-6.75,1.86-9.06h0ZM170.82,402.3v-.09c0-1.69-1.41-3.06-3.15-3.06s-3.15,1.37-3.15,3.06v.09c0,1.69,1.41,3.06,3.15,3.06s3.15-1.37,3.15-3.06h0ZM213.57,342.05l.07.06c.61.6,1.42.89,2.23.89s1.61-.3,2.23-.89c1.23-1.19,1.23-3.13,0-4.32l-.07-.06c-1.23-1.19-3.22-1.19-4.45,0-1.23,1.19-1.23,3.13,0,4.32h0ZM219.98,365.09c.72,0,1.44-.24,2.03-.72,1-.82,2.07-1.57,3.18-2.23,2.24-1.34,4.64-2.32,7.14-2.91,6.35-1.51,12.12-.54,17.7.38,3.92.65,7.62,1.27,10.65.73,4.78-.84,8.95-5.69,9.1-10.59.05-1.69-1.32-3.09-3.06-3.14-1.74-.05-3.19,1.28-3.24,2.96-.06,1.99-2.08,4.43-3.92,4.76-1.94.34-5.25-.21-8.46-.74-5.93-.99-12.65-2.11-20.27-.3-3.13.74-6.14,1.97-8.94,3.64-1.38.82-2.7,1.75-3.94,2.77-1.33,1.09-1.5,3.02-.38,4.31.62.72,1.51,1.08,2.41,1.08h0ZM186.46,420.84c-2.23-4.63-3.17-9.53-2.79-14.57.06-.74-.17-1.47-.63-2.06-1.42-1.83-2.72-3.78-3.87-5.8-2.4-4.24-4.14-8.8-5.17-13.57-1.03-4.76-1.34-9.62-.91-14.44.28-3.12.87-6.22,1.76-9.19.48-1.62-.48-3.32-2.15-3.78-1.67-.47-3.42.46-3.9,2.08-1,3.36-1.67,6.85-1.99,10.37-.49,5.42-.14,10.88,1.02,16.23,1.16,5.35,3.12,10.48,5.82,15.25,1.1,1.94,2.33,3.83,3.66,5.63-.11,2.62.08,5.25.58,7.83.56,2.96,1.53,5.86,2.85,8.62.54,1.11,1.67,1.76,2.86,1.76.45,0,.9-.09,1.33-.29,1.58-.71,2.26-2.53,1.52-4.06h0ZM152.78,364.5c-.17-3.12-.37-7.01-.96-11.31-.28-2.05-.65-4.19-1.14-6.38-.37-1.65-2.05-2.69-3.75-2.33-1.7.36-2.78,1.99-2.41,3.64,1.42,6.29,1.72,12.06,1.97,16.7.09,1.69.24,4.52.46,6.11.06.4.19.79.4,1.14,1.07,1.77,2.84,4.71,4.46,8.36,1.01,2.28,1.96,4.83,2.65,7.54,1.28,5.1,1.45,10.05.5,14.71-.34,1.66.77,3.26,2.48,3.59.21.04.41.06.62.06,1.47,0,2.79-1.01,3.09-2.46,1.13-5.54.95-11.37-.55-17.34-1.88-7.49-5.48-13.69-7.46-16.99-.15-1.45-.27-3.73-.34-5.03h0ZM160.12,355.96c-1.73-.17-3.27,1.06-3.45,2.74l-.34,3.31c-.17,1.68,1.09,3.18,2.82,3.34.11.01.21.02.32.02,1.6,0,2.97-1.18,3.13-2.75l.34-3.31c.17-1.68-1.09-3.18-2.82-3.34h0ZM195.43,403.62s.01-.04.02-.07c0,.02-.01.04-.02.07h0ZM188.73,408.15c.02-1.68.16-3.21.3-4.33-2.12-2.35-3.99-4.93-5.56-7.71-2.17-3.83-3.74-7.95-4.67-12.26-.94-4.31-1.21-8.7-.82-13.04.32-3.54,1.08-7.01,2.25-10.31.57-1.59,2.36-2.44,4.01-1.89,1.64.55,2.52,2.29,1.95,3.88-1.01,2.84-1.66,5.81-1.93,8.85-.34,3.75-.1,7.54.71,11.26.81,3.72,2.16,7.28,4.03,10.58,1.57,2.77,3.48,5.32,5.67,7.58.73.75,1.02,1.79.78,2.79-.03.17-.42,2.22-.42,4.91,0,3.16.52,5.82,1.52,7.68.8,1.5.2,3.34-1.34,4.12-.46.23-.96.34-1.45.34-1.14,0-2.24-.6-2.8-1.65-1.52-2.84-2.27-6.47-2.23-10.79h0ZM157.64,372.55v.17c0,1.69,1.41,3.06,3.15,3.06s3.15-1.37,3.15-3.06v-.17c0-1.69-1.41-3.06-3.15-3.06s-3.15,1.37-3.15,3.06h0ZM254.14,275.79v-.09c0-1.69-1.41-3.06-3.15-3.06s-3.15,1.37-3.15,3.06v.09c0,1.69,1.41,3.06,3.15,3.06s3.15-1.37,3.15-3.06h0ZM222.59,279.01c-16.79,5.29-23.37,10.37-25.93,13.69-.49.64-.86,1.25-1.13,1.84-.89,1.93-.72,3.64-.51,5.68.09.9.19,1.84.18,2.83-.02,3.81-.78,7.6-2.19,10.95-.34.8-.72,1.59-1.13,2.35-.82,1.49-.24,3.34,1.3,4.13.47.24.98.36,1.48.36,1.13,0,2.22-.59,2.78-1.62.52-.94.99-1.92,1.41-2.91,1.71-4.07,2.63-8.64,2.66-13.23,0-1.3-.11-2.5-.21-3.46-.23-2.32-.22-2.44.42-3.27.31-.4.87-1.02,1.83-1.82.89-.74,2.13-1.62,3.84-2.62,4.21-2.45,9.98-4.84,17.16-7.1,7.52-2.37,11.66-10.24,9.21-17.54-.81-2.42-2.29-4.58-4.27-6.24-1.32-1.1-3.31-.96-4.44.32-1.13,1.28-.99,3.21.33,4.31,1.11.93,1.94,2.14,2.39,3.5.66,1.98.49,4.1-.48,5.96-.98,1.86-2.64,3.24-4.68,3.88h0ZM246.24,233.76c3.53.59,7.53,1.25,11.87,1.25,2.3,0,4.44-.18,6.57-.56,1.86-.33,3.7-.82,5.48-1.47,1.63-.59,2.45-2.36,1.84-3.94-.61-1.58-2.43-2.38-4.06-1.78-1.42.52-2.89.91-4.38,1.18-1.75.31-3.53.46-5.44.46-3.8,0-7.36-.59-10.8-1.17-4.14-.69-8.06-1.34-11.15-.61-3.63.86-6.75,4.22-7.26,7.82-.23,1.67-1,3.19-2.2,4.39-1.21,1.21-1.19,3.14.06,4.32.61.58,1.41.87,2.2.87s1.64-.31,2.26-.92c2.15-2.14,3.51-4.85,3.93-7.82.16-1.1,1.4-2.44,2.51-2.71,1.82-.43,5.26.14,8.59.7h0ZM181.82,286.25c.85-1.47.31-3.33-1.21-4.16-1.52-.82-3.44-.3-4.29,1.17-2.35,4.08-3.34,7.97-3.7,11.28-.35,3.3-.08,6.03.1,7.8.02.21.07.69.08.82.09,1.63,1.48,2.9,3.14,2.9.06,0,.11,0,.17,0,1.74-.09,3.07-1.52,2.98-3.21-.01-.24-.05-.61-.1-1.1-.17-1.71-.42-4.23-.02-7.2.34-2.5,1.14-5.33,2.85-8.29h0ZM245.34,249.72l-1.84,1.6c-1.29,1.13-1.4,3.06-.24,4.31.62.67,1.48,1.01,2.34,1.01.75,0,1.5-.26,2.1-.78l1.84-1.6c1.29-1.13,1.4-3.06.24-4.31-1.16-1.26-3.15-1.36-4.45-.23h0ZM276.22,239.09c-.63-1.57-2.45-2.36-4.07-1.75-2.13.8-4.35,1.4-6.6,1.8-2.42.42-4.85.63-7.44.63-4.75,0-9.15-.73-12.69-1.32-.95-.16-1.92-.32-2.86-.46-1.5-.22-2.95.63-3.45,2.02-.44,1.24-1.02,2.43-1.72,3.55-.9,1.44-.42,3.32,1.06,4.2.51.3,1.07.44,1.63.44,1.07,0,2.11-.53,2.7-1.47.47-.75.89-1.52,1.27-2.31.1.02.2.03.3.05,3.78.63,8.47,1.41,13.76,1.41,2.97,0,5.78-.24,8.57-.73,2.64-.46,5.24-1.17,7.74-2.11,1.62-.61,2.43-2.38,1.8-3.95h0ZM219.13,268.68c-8.37,2.64-15.32,5.54-20.65,8.63-4.73,2.74-8.36,5.74-10.8,8.9-2.28,2.97-3.32,5.81-3.76,8.33-.46,2.69-.23,5.01-.05,6.74.07.69.13,1.28.13,1.71-.03,5.11-2,9.64-5.28,12.11-1.37,1.04-1.62,2.96-.55,4.29.62.77,1.55,1.18,2.49,1.18.68,0,1.36-.21,1.93-.65,2.56-1.93,4.53-4.53,5.88-7.72,1.18-2.79,1.81-5.97,1.83-9.18,0-.74-.07-1.52-.16-2.34-.18-1.79-.39-3.85.22-6.14.39-1.47,1.1-3.03,2.37-4.68,4.34-5.64,13.87-10.81,28.34-15.37,1.65-.52,2.56-2.24,2.02-3.85-.54-1.6-2.31-2.48-3.97-1.96h0ZM262.79,161.7c1.14-1.36,2.67-2.29,4.43-2.68,1.7-.38,2.75-2.02,2.36-3.66-.39-1.64-2.08-2.67-3.78-2.29-3.14.7-5.87,2.35-7.91,4.78-4.46,5.32-6.97,11.56-7.25,18.03-.08,1.87.03,3.77.33,5.64.24,1.51,1.58,2.59,3.11,2.59.16,0,.32-.01.48-.04,1.72-.26,2.9-1.82,2.63-3.49-.23-1.48-.32-2.97-.26-4.45.22-5.15,2.24-10.14,5.84-14.43h0ZM235.37,186.45l-.11.06c-1.54.79-2.13,2.63-1.32,4.13.56,1.04,1.66,1.63,2.79,1.63.49,0,1-.11,1.46-.35l.1-.05c1.54-.78,2.13-2.63,1.32-4.12-.81-1.49-2.71-2.07-4.25-1.29h0ZM228.16,195.48c-3.83.91-7.53,2.35-11,4.28-1.51.84-2.03,2.71-1.17,4.17.58.98,1.64,1.54,2.74,1.54.53,0,1.07-.13,1.56-.41,2.95-1.64,6.1-2.87,9.36-3.64,3.09-.74,6.24-1.09,9.61-1.09,4.71,0,8.93.7,12.65,1.32.98.16,2,.33,2.93.47.88.13,1.77-.11,2.46-.66.69-.55,1.11-1.35,1.15-2.21.07-1.39.31-2.78.7-4.14.24-.81.53-1.62.88-2.38.7-1.55-.03-3.35-1.63-4.02-1.59-.68-3.45.03-4.15,1.58-.46,1.02-.85,2.08-1.17,3.16-.2.7-.38,1.41-.52,2.12-3.87-.64-8.24-1.34-13.32-1.34-3.89,0-7.52.42-11.11,1.27h0ZM219.03,161.6c1.55,1.14,2.99,2.43,4.28,3.84.41.44.93.76,1.52.91.48.13.96.26,1.42.39,1.83.53,3.62,1.15,5.32,1.84.4.16.81.24,1.22.24,1.23,0,2.4-.7,2.91-1.87.67-1.56-.08-3.35-1.69-4-1.91-.78-3.92-1.47-5.96-2.06-.22-.06-.44-.13-.67-.19-1.4-1.45-2.93-2.79-4.57-3.99-.06-.05-.13-.09-.19-.14l-.08-.06c-.93-.67-2.16-.79-3.21-.32h-.03c-1.57.73-2.25,2.55-1.51,4.08.28.58.72,1.03,1.24,1.33h0ZM207.3,197.04c-.42.07-.86.1-1.28.1-3.52,0-6.68-2.28-7.69-5.55-.3-.96-1.06-1.72-2.04-2.03-.08-.03-.17-.05-.25-.07-2.03-.53-4.73-.37-7.58-.22-.48.03-.98.06-1.49.08-4.77.24-10.33.13-15.47-2.43-3.47-1.74-6.44-4.44-8.81-8.02-1.67-2.53-3.06-5.49-4.25-9.06-.4-1.21-.76-2.4-1.11-3.55h0c-1.04-3.44-2.02-6.68-3.67-8.98-.6-.83-1.3-1.4-1.83-1.74-.16-.1-.3-.19-.42-.26-.78-.44-1.72-.53-2.58-.25-3.96,1.29-8.22-.53-9.91-4.24-.7-1.54-2.57-2.24-4.16-1.55-1.59.68-2.31,2.49-1.6,4.03,1.46,3.19,4.08,5.72,7.37,7.11,2.64,1.12,5.52,1.44,8.31.94.91,1.58,1.69,4.15,2.45,6.65h0c.17.59.35,1.17.54,1.77.2.64.4,1.29.63,1.95,1.36,4.08,2.97,7.51,4.94,10.49,2.98,4.5,6.76,7.92,11.23,10.16,6.47,3.23,13.07,3.38,18.67,3.1.53-.03,1.06-.06,1.53-.08,1.45-.08,3.03-.17,4.22-.13,1,2.07,2.51,3.87,4.44,5.26,2.49,1.8,5.45,2.75,8.54,2.75.76,0,1.52-.06,2.27-.17,1.72-.27,2.89-1.83,2.62-3.5-.27-1.67-1.89-2.8-3.61-2.54h0ZM178.72,167.83c-1.37,1.04-1.62,2.96-.55,4.29.62.77,1.55,1.18,2.49,1.18.68,0,1.36-.21,1.93-.64,2.56-1.93,4.53-4.53,5.88-7.72,1.18-2.79,1.81-5.97,1.83-9.18,0-.74-.07-1.52-.16-2.34-.18-1.79-.39-3.85.22-6.14.39-1.47,1.1-3.03,2.37-4.68,4.34-5.64,13.87-10.81,28.34-15.37,1.65-.52,2.56-2.24,2.02-3.85-.54-1.61-2.31-2.48-3.97-1.96-8.37,2.64-15.32,5.54-20.65,8.63-4.73,2.74-8.36,5.74-10.8,8.9-2.28,2.97-3.32,5.81-3.76,8.33-.46,2.69-.23,5.01-.05,6.74.07.69.13,1.28.13,1.71-.03,5.11-2,9.64-5.28,12.12h0ZM234.96,251.43c-1.11-.77-2.28-1.45-3.49-2.04-1.56-.75-3.45-.14-4.22,1.37-.78,1.51-.15,3.34,1.41,4.1.91.44,1.8.96,2.64,1.54,3.37,2.33,5.82,5.59,7.1,9.42.8,2.39,1.1,4.87.87,7.37-.21,2.41-.9,4.72-2.03,6.88-1.13,2.16-2.66,4.05-4.54,5.64-1.95,1.64-4.19,2.87-6.66,3.64-6.02,1.9-10.33,3.67-13.42,5.2-2.35,1.16-3.98,2.18-5.11,3-.87.63-1.34,1.65-1.25,2.7.09,1.07.13,1.98.13,2.87-.03,5.19-1.08,10.38-3.03,15-.16.38-.33.75-.5,1.12-.71,1.54,0,3.35,1.58,4.04.42.18.86.27,1.29.27,1.2,0,2.35-.67,2.88-1.81.2-.43.4-.87.58-1.31,2.25-5.34,3.46-11.32,3.49-17.28,0-.53,0-1.07-.03-1.62,2.42-1.48,7.01-3.75,15.33-6.37.59-.18,1.16-.39,1.73-.61,2.6-1.02,4.98-2.44,7.11-4.23,2.5-2.1,4.53-4.62,6.03-7.48,1.5-2.86,2.41-5.93,2.69-9.13.29-3.32-.09-6.61-1.16-9.78-1.7-5.08-4.96-9.4-9.43-12.5h0ZM151.82,291.34c-2.38-.37-4.73-.11-6.83.79-1.05.45-1.71,1.38-1.85,2.41-.07.53,0,1.09.25,1.62.71,1.54,2.57,2.24,4.16,1.55,1.33-.57,2.82-.55,4.28-.12,2.26.67,4.45,2.32,5.84,4.26,2.11,2.93,3.2,6.54,4.36,10.35.34,1.13.7,2.3,1.08,3.45,1.06,3.18,2.27,5.78,3.71,7.96,1.9,2.88,4.23,5.02,6.93,6.37,4.09,2.04,8.65,2.13,12.97,1.91.49-.02.97-.05,1.46-.08,3.26-.18,6.34-.35,9.13.37,2.42.63,5.22,2.43,5.62,4.91.25,1.5,1.59,2.57,3.11,2.57.16,0,.33-.01.5-.04,1.72-.27,2.89-1.83,2.61-3.5-.4-2.43-1.71-4.68-3.78-6.5-1.75-1.54-4.04-2.73-6.44-3.35-3.77-.98-7.5-.77-11.11-.56-.47.03-.95.05-1.42.08-3.44.17-7,.14-9.76-1.24-3.19-1.59-5.65-5.12-7.53-10.77-.36-1.08-.68-2.15-1.03-3.3-1.25-4.12-2.54-8.37-5.24-12.12-1.04-1.45-2.31-2.74-3.73-3.81-1.21-.92-2.53-1.68-3.91-2.25-1.11-.46-2.24-.77-3.36-.95h0ZM296.81,292.13c-1.04.45-1.71,1.38-1.85,2.41-.07.53,0,1.09.25,1.62.71,1.54,2.57,2.24,4.16,1.55,1.33-.57,2.82-.55,4.28-.12v-6.25c-2.38-.37-4.73-.11-6.83.79h0ZM256.01,264.44c1.54-2.32,3.35-4.21,4.94-5.88l.03-.03c.26-.28.53-.55.79-.83,1.05-1.12,2.11-2.3,2.73-3.4.84-1.48.29-3.34-1.23-4.15-1.52-.82-3.44-.28-4.28,1.2-.23.41-.86,1.16-1.87,2.24-.25.27-.5.53-.76.8l-.03.03c-1.77,1.85-3.77,3.95-5.6,6.71-.94,1.42-.52,3.31.94,4.22.53.33,1.12.49,1.71.49,1.03,0,2.05-.49,2.65-1.4h0ZM159.09,147.27c-1.21-.92-2.53-1.68-3.91-2.25-1.11-.46-2.24-.77-3.36-.95-2.38-.38-4.73-.11-6.83.79-1.05.45-1.71,1.38-1.85,2.41-.07.53,0,1.09.25,1.62.71,1.54,2.57,2.24,4.16,1.55,1.33-.57,2.82-.55,4.28-.12,2.26.67,4.45,2.32,5.84,4.26,2.11,2.93,3.2,6.54,4.36,10.35.34,1.13.7,2.3,1.08,3.45,1.06,3.18,2.27,5.78,3.71,7.96,1.9,2.88,4.23,5.02,6.93,6.37,4.09,2.04,8.65,2.13,12.97,1.91.49-.02.97-.05,1.46-.08,3.26-.18,6.34-.36,9.13.37,2.42.63,5.22,2.43,5.62,4.91.25,1.5,1.59,2.58,3.11,2.58.16,0,.33-.01.5-.04,1.72-.27,2.89-1.83,2.61-3.5-.4-2.43-1.71-4.68-3.78-6.5-1.75-1.54-4.04-2.73-6.44-3.35-3.77-.98-7.5-.77-11.11-.56-.47.03-.95.05-1.42.08-3.44.17-7,.14-9.76-1.24-3.19-1.59-5.65-5.12-7.53-10.77-.36-1.08-.68-2.15-1.03-3.3-1.25-4.12-2.54-8.37-5.24-12.13-1.04-1.44-2.31-2.73-3.73-3.81h0ZM276.46,265.78c-1.65-.52-3.43.35-3.97,1.95-.54,1.6.36,3.33,2.02,3.85,5.41,1.72,11.22,2.59,17.06,2.59,1.82,0,3.64-.08,5.45-.26,2.23-.21,4.45-.55,6.63-1.02v-6.28c-8.92,2.15-18.48,1.91-27.18-.85h0ZM277.48,147.27c.17-.25.29-.54.38-.84.45-1.63-.55-3.3-2.23-3.74-2.15-.56-4.37-.84-6.59-.84-5.89,0-11.48,1.94-15.97,5.43-1.4,1.09-2.7,2.33-3.86,3.72-6,7.15-9.37,15.6-9.75,24.43-.17,4,.28,8.01,1.34,11.92.37,1.37,1.65,2.28,3.04,2.28.27,0,.54-.03.81-.1,1.68-.43,2.69-2.1,2.24-3.73-.9-3.32-1.29-6.72-1.14-10.11.32-7.51,3.21-14.71,8.34-20.83,3.67-4.38,9.12-6.89,14.94-6.89,1.67,0,3.34.21,4.96.63,1.37.35,2.76-.22,3.48-1.32h0ZM247.06,147.27c1.19-1.35,2.33-2.76,3.41-4.21,1.02-1.37.7-3.28-.71-4.27s-3.38-.68-4.4.69c-2.08,2.79-4.4,5.39-6.93,7.78-1.71,1.61-3.51,3.12-5.41,4.53-1.38,1.03-1.64,2.94-.59,4.28.62.79,1.56,1.2,2.5,1.2.67,0,1.34-.21,1.91-.63,3.74-2.78,7.16-5.92,10.21-9.39h0ZM266.29,216.03c-1.51.86-3.11,1.44-4.74,1.73-3.88.68-8,0-12.35-.73-5.09-.85-10.35-1.72-15.71-.45-8.11,1.93-14.56,8.88-15.69,16.9-.24,1.67.97,3.21,2.69,3.44.14.02.29.03.43.03,1.55,0,2.9-1.11,3.12-2.64.77-5.51,5.38-10.47,10.95-11.79,4.08-.97,8.49-.24,13.15.54,4.7.78,9.57,1.59,14.54.72,2.37-.42,4.66-1.25,6.81-2.48,1.5-.85,2-2.73,1.12-4.18-.88-1.45-2.81-1.94-4.31-1.09h0ZM291.11,176.8c-.72-1.53-2.59-2.21-4.17-1.51-1.58.7-2.28,2.52-1.55,4.05l1.73,3.67c.53,1.12,1.67,1.78,2.87,1.78.44,0,.88-.09,1.31-.28,1.58-.7,2.28-2.52,1.55-4.05l-1.73-3.67h0ZM298.75,197.21c-1.7.36-2.78,1.99-2.41,3.64,1.42,6.29,1.72,12.06,1.97,16.7.09,1.69.24,4.52.46,6.11.06.4.19.79.4,1.14,1.07,1.77,2.84,4.71,4.46,8.36v-27.23c-.28-2.05-.65-4.19-1.14-6.38-.37-1.65-2.05-2.69-3.75-2.33h0ZM300.64,155.06c-3.96,1.29-8.22-.53-9.91-4.24-.7-1.54-2.56-2.24-4.16-1.55-1.59.68-2.31,2.49-1.6,4.03,1.46,3.19,4.08,5.72,7.37,7.11,2.64,1.12,5.52,1.44,8.31.94.91,1.58,1.69,4.15,2.45,6.65h0c.17.59.35,1.17.54,1.77v-14.2c-.16-.1-.3-.19-.42-.26-.78-.44-1.72-.53-2.58-.25h0ZM291.94,261.86v.23c0,1.69,1.41,3.06,3.15,3.06s3.15-1.37,3.15-3.06v-.23c0-1.69-1.41-3.06-3.15-3.06s-3.15,1.37-3.15,3.06h0ZM214.44,241.43c-1-.74-1.95-1.44-2.78-2.19-3.29-2.96-5.16-7.45-5.15-11.91,0-1.55.22-3.09.69-4.57.09-.3.14-.6.14-.9,0-1.31-.87-2.51-2.22-2.92-1.66-.5-3.43.41-3.94,2.02-.65,2.06-.98,4.21-.98,6.39,0,1.94.26,3.89.78,5.82,1.11,4.14,3.33,7.78,6.41,10.55,1.05.94,2.16,1.76,3.23,2.56,2.03,1.5,3.95,2.92,4.82,4.73.3.63.46,1.34.46,2.08,0,.68-.13,1.38-.38,2.07-.54,1.44-1.55,2.58-2.79,3.14-1.14.52-1.82,1.62-1.82,2.77,0,.43.09.87.3,1.29.53,1.11,1.67,1.76,2.86,1.76.45,0,.9-.09,1.33-.29,2.75-1.24,4.95-3.65,6.05-6.6.5-1.35.75-2.76.75-4.14,0-1.64-.35-3.24-1.05-4.69-1.53-3.15-4.27-5.19-6.7-6.98h0ZM292.13,192.79c.62.6,1.42.9,2.23.9s1.61-.3,2.22-.89l.09-.08c1.23-1.19,1.23-3.13,0-4.32-1.23-1.19-3.23-1.19-4.45,0l-.08.08c-1.23,1.19-1.23,3.13,0,4.32h0ZM279.71,171.11c-1.35-1.06-3.33-.87-4.43.44-.97,1.16-2.15,3.01-2.25,5.23-.1,2.43,1.12,5.09,3.63,7.89,4.21,4.7,6.29,10.18,7.64,14.44,2.17,6.85,2.53,13.58,2.82,18.99.27,5.03.51,8.47,1.42,10.51.04.09.08.18.13.26.14.25.39.66.69,1.16h0c1.74,2.88,4.64,7.7,6.03,13.22.89,3.55,1.03,6.92.39,10.02-.34,1.66.77,3.26,2.48,3.59.21.04.41.06.62.06,1.47,0,2.79-1.01,3.09-2.46.81-3.97.66-8.23-.45-12.65-1.61-6.4-4.8-11.69-6.71-14.85h0c-.16-.27-.38-.64-.52-.87-.1-.29-.31-1.07-.51-2.98-.17-1.63-.27-3.51-.36-5.32-.31-5.75-.69-12.9-3.09-20.47-1.53-4.83-3.92-11.09-8.91-16.65-1.59-1.77-2.12-3.06-2.1-3.63.02-.42.33-1.03.84-1.63,1.1-1.31.89-3.23-.46-4.3h0ZM298.4,169.34v-.03c-.1-.31-.21-.65-.31-1-.35-1.15-1.37-1.99-2.59-2.16-6.57-.87-12.32-5.06-15-10.93-.71-1.54-2.57-2.24-4.16-1.55-1.59.68-2.31,2.49-1.6,4.03,1.77,3.87,4.55,7.26,8.05,9.8,2.92,2.12,6.27,3.6,9.81,4.36.31,1.02.64,2.07,1.01,3.19,1.66,4.99,3.68,9.25,6.17,13.02,1.19,1.79,2.47,3.47,3.86,5.01v-10.67c-1.56-2.74-2.89-5.79-4.04-9.24-.45-1.34-.83-2.61-1.2-3.83h0ZM286.58,294.01c1.74,0,3.15-1.37,3.15-3.06s-1.41-3.05-3.15-3.05h-.21c-1.74,0-3.15,1.37-3.15,3.05s1.41,3.06,3.15,3.06h.21ZM282.22,255.51c-1.29,1.13-1.39,3.06-.23,4.32.62.67,1.48,1.01,2.34,1.01.75,0,1.51-.26,2.11-.79,2.41-2.11,3.94-4.69,4.55-7.68.49-2.41.38-5.09-.35-7.97-1.22-4.85-3.9-9.29-5.5-11.94-.42-.7-.82-1.36-.97-1.66-1.44-3.01-1.68-7.38-1.94-12.44-.29-5.41-.62-11.55-2.61-17.84-1.2-3.81-3.05-8.69-6.66-12.72-7.92-8.84-4.33-15.85-1.49-19.24,1.1-1.31.89-3.23-.46-4.3-1.35-1.07-3.33-.87-4.43.44-2.04,2.44-4.52,6.43-4.75,11.63-.23,5.29,1.91,10.5,6.37,15.47,2.83,3.16,4.37,7.27,5.39,10.5,1.76,5.57,2.07,11.3,2.34,16.37.3,5.7.57,10.62,2.52,14.7.27.57.68,1.24,1.24,2.17,1.43,2.36,3.81,6.31,4.81,10.3,1.41,5.62-.64,8.2-2.3,9.66h0ZM291.52,278.94c-2.13,0-4.28-.11-6.39-.32-4.15-.43-8.24-1.27-12.15-2.51-1.65-.52-3.43.35-3.97,1.95-.54,1.6.36,3.33,2.02,3.85,4.33,1.37,8.85,2.31,13.44,2.78,2.32.24,4.69.36,7.05.36,2.19,0,4.4-.1,6.58-.31,1.85-.17,3.7-.43,5.54-.75v-6.22c-2.03.4-4.09.7-6.15.89-1.98.19-3.98.28-5.97.28h0ZM269.17,265.94c.29-.3.58-.6.86-.91,1.88-2,3.78-4.21,4.99-6.89,1.48-3.3,1.6-6.83.32-9.69-.69-1.55-2.55-2.25-4.15-1.58-1.59.67-2.32,2.47-1.63,4.02.58,1.29.46,3.08-.31,4.8-.79,1.76-2.12,3.36-3.87,5.22-.28.29-.56.59-.83.88-1.53,1.6-3.11,3.26-4.42,5.23-3.74,5.62-4.49,12.98-1.96,19.2.49,1.2,1.68,1.93,2.93,1.93.38,0,.78-.07,1.16-.21,1.62-.62,2.41-2.4,1.77-3.96-1.8-4.42-1.27-9.65,1.39-13.64,1.02-1.53,2.35-2.92,3.75-4.4h0ZM173.69,273.11c-1.41-.99-3.38-.68-4.4.69-3.42,4.6-5.78,9.64-7.02,14.97-.2.87-.37,1.76-.52,2.64-.21,1.29.46,2.52,1.56,3.13.32.18.68.3,1.07.36.16.02.33.04.49.04.55,0,1.08-.14,1.54-.39.81-.44,1.42-1.23,1.57-2.19.12-.75.27-1.5.44-2.24,1.05-4.52,3.06-8.8,5.98-12.73,1.02-1.37.7-3.28-.71-4.27h0ZM213.19,218.17c-1.71.3-2.85,1.89-2.54,3.55.18.95,0,1.98-.5,2.82-.86,1.46-.34,3.33,1.17,4.17.49.27,1.03.4,1.56.4,1.09,0,2.16-.55,2.74-1.54,1.24-2.1,1.68-4.56,1.23-6.94-.31-1.66-1.95-2.76-3.66-2.46h0ZM212.79,182.77c-.38,1.65.68,3.28,2.38,3.65l.24.05c1.36.3,2.9.64,4.45,1.08,2.31.67,4.41,1.55,6.24,2.62.51.3,1.07.44,1.62.44,1.07,0,2.11-.53,2.7-1.48.9-1.44.42-3.32-1.07-4.19-2.28-1.33-4.87-2.42-7.69-3.24-1.75-.51-3.41-.87-4.86-1.19l-.24-.05c-1.7-.37-3.38.66-3.77,2.31h0ZM187.87,206.31h0,0ZM212.66,210.31c.27,1.67-.9,3.23-2.62,3.5-1.33.21-2.69.31-4.03.31-2.77,0-5.5-.43-8.12-1.29-2.55-.83-4.94-2.04-7.1-3.6-1.2-.87-2.33-1.84-3.36-2.89-1.29.06-2.48.09-3.61.09-7.76,0-14.42-1.44-20.35-4.4-4.42-2.21-8.32-5.2-11.66-8.94h0c-1.38-1.54-2.67-3.22-3.86-5.01-2.5-3.77-4.52-8.03-6.17-13.02-.37-1.12-.7-2.18-1.01-3.19-3.54-.76-6.9-2.25-9.81-4.36-3.5-2.54-6.28-5.93-8.05-9.8-.7-1.54.01-3.35,1.6-4.03,1.59-.68,3.45.01,4.16,1.55,2.69,5.88,8.43,10.07,15,10.93,1.23.16,2.24,1.01,2.59,2.16.11.35.21.69.3,1v.03c.38,1.22.76,2.49,1.21,3.83,1.15,3.45,2.48,6.5,4.04,9.24.46.81.94,1.6,1.44,2.36,3.45,5.22,7.86,9.19,13.1,11.81,5.01,2.51,10.73,3.73,17.46,3.73,1.14,0,2.36-.03,3.71-.1h.01c1.61-.08,3.16.53,4.24,1.69.83.89,1.76,1.71,2.77,2.43,1.63,1.17,3.43,2.09,5.35,2.71,1.97.64,4.03.97,6.11.97,1.01,0,2.04-.08,3.04-.23,1.72-.26,3.33.87,3.61,2.54h0ZM215.77,173.62c.24.3.47.6.69.91.05.07.1.14.14.21.45.65,1.14,1.11,1.92,1.29,1.4.31,2.91.66,4.53,1.12,2.45.71,4.77,1.61,6.89,2.67.46.23.96.34,1.45.34,1.14,0,2.24-.6,2.8-1.65.8-1.5.2-3.34-1.35-4.12-2.47-1.24-5.16-2.29-7.99-3.1-1.32-.38-2.59-.7-3.74-.96-.12-.16-.24-.31-.37-.47-1.07-1.33-3.05-1.57-4.42-.54-1.37,1.04-1.62,2.96-.55,4.29h0ZM196.29,220.28c.46-1.63-.52-3.31-2.2-3.76-1.68-.45-3.41.5-3.87,2.13-.54,1.89-.9,3.85-1.08,5.83-.29,3.28-.08,6.6.62,9.86.71,3.26,1.9,6.38,3.53,9.27,1.73,3.05,3.91,5.77,6.49,8.09.51.46,1.25,1.06,2.21,1.82-.95,1.43-1.63,3.03-2,4.74-.63,2.95-.27,5.96,1.05,8.7.53,1.11,1.67,1.76,2.86,1.76.45,0,.9-.09,1.33-.29,1.58-.71,2.26-2.53,1.52-4.06-1.5-3.11-.75-6.75,1.86-9.07.69-.61,1.06-1.48,1.02-2.38-.04-.9-.48-1.74-1.22-2.29l-.13-.1c-2.72-2.03-3.82-2.96-4.23-3.33-2.08-1.87-3.84-4.07-5.25-6.54-1.34-2.36-2.31-4.92-2.89-7.59-.58-2.67-.75-5.39-.51-8.07.14-1.61.44-3.2.87-4.73h0ZM164.52,254.94v.09c0,1.69,1.41,3.05,3.15,3.05s3.15-1.37,3.15-3.05v-.09c0-1.69-1.41-3.06-3.15-3.06s-3.15,1.37-3.15,3.06h0ZM213.57,194.78l.07.06c.61.6,1.42.89,2.23.89s1.61-.3,2.23-.89c1.23-1.19,1.23-3.13,0-4.32l-.07-.06c-1.23-1.19-3.22-1.19-4.45,0s-1.23,3.13,0,4.32h0ZM266.71,199.35c-1.74-.05-3.19,1.28-3.24,2.96-.06,1.99-2.08,4.43-3.92,4.76-1.94.34-5.25-.21-8.46-.74-5.93-.99-12.65-2.11-20.27-.3-3.13.74-6.14,1.97-8.94,3.64-1.38.82-2.7,1.75-3.94,2.77-1.33,1.09-1.5,3.02-.38,4.31.62.72,1.51,1.08,2.41,1.08.72,0,1.44-.24,2.03-.72,1-.82,2.07-1.57,3.18-2.23,2.24-1.34,4.64-2.32,7.14-2.91,6.35-1.51,12.12-.55,17.7.38,3.92.65,7.62,1.27,10.65.73,4.78-.84,8.95-5.69,9.1-10.59.05-1.69-1.32-3.09-3.06-3.14h0ZM174.86,213.93c.48-1.62-.48-3.32-2.15-3.78-1.67-.47-3.42.46-3.9,2.08-1,3.36-1.67,6.85-1.99,10.37-.49,5.41-.14,10.87,1.02,16.23,1.16,5.35,3.12,10.48,5.82,15.25,1.1,1.94,2.33,3.83,3.66,5.63-.11,2.62.08,5.25.58,7.83.56,2.96,1.53,5.86,2.85,8.62.54,1.11,1.67,1.76,2.86,1.76.45,0,.9-.09,1.33-.29,1.58-.71,2.26-2.53,1.52-4.06-2.23-4.63-3.17-9.53-2.79-14.57.06-.74-.17-1.47-.63-2.06-1.42-1.83-2.72-3.78-3.87-5.8-2.4-4.24-4.14-8.8-5.17-13.57-1.03-4.76-1.34-9.62-.91-14.44.28-3.12.87-6.22,1.76-9.19h0ZM152.78,217.23c-.17-3.12-.37-7.01-.96-11.31-.28-2.05-.65-4.19-1.14-6.38-.37-1.65-2.05-2.69-3.75-2.33-1.7.36-2.78,1.99-2.41,3.64,1.42,6.29,1.72,12.06,1.97,16.7.09,1.69.24,4.52.46,6.11.06.4.19.79.4,1.14,1.07,1.77,2.84,4.71,4.46,8.36,1.01,2.28,1.96,4.83,2.65,7.54,1.28,5.1,1.45,10.05.5,14.71-.34,1.66.77,3.26,2.48,3.59.21.04.41.06.62.06,1.47,0,2.79-1.01,3.09-2.46,1.13-5.54.95-11.37-.55-17.34-1.88-7.49-5.48-13.69-7.46-16.99-.15-1.45-.27-3.73-.34-5.03h0ZM160.12,208.69c-1.73-.17-3.27,1.06-3.45,2.74l-.34,3.31c-.17,1.68,1.09,3.18,2.82,3.34.11.01.21.02.32.02,1.6,0,2.97-1.18,3.13-2.75l.34-3.31c.17-1.68-1.09-3.18-2.82-3.34h0ZM195.43,256.35s.01-.04.02-.07c0,.02-.01.04-.02.07h0ZM184.26,224.07c-.34,3.75-.1,7.54.71,11.26.81,3.72,2.16,7.28,4.03,10.58,1.57,2.77,3.48,5.32,5.67,7.58.73.75,1.02,1.79.78,2.79-.03.17-.42,2.22-.42,4.91,0,3.16.52,5.82,1.52,7.68.8,1.5.2,3.34-1.34,4.12-.46.23-.96.34-1.45.34-1.14,0-2.24-.6-2.8-1.65-1.52-2.84-2.27-6.47-2.23-10.79.02-1.68.16-3.21.3-4.33-2.12-2.35-3.99-4.93-5.56-7.71-2.17-3.83-3.74-7.95-4.67-12.26-.94-4.31-1.21-8.7-.82-13.04.32-3.54,1.08-7.01,2.25-10.31.57-1.59,2.36-2.44,4.01-1.89,1.64.55,2.52,2.29,1.95,3.88-1.01,2.84-1.66,5.81-1.93,8.85h0ZM157.64,225.28v.18c0,1.69,1.41,3.06,3.15,3.06s3.15-1.37,3.15-3.06v-.18c0-1.69-1.41-3.05-3.15-3.05s-3.15,1.37-3.15,3.05h0ZM254.14,128.52v-.09c0-1.69-1.41-3.06-3.15-3.06s-3.15,1.37-3.15,3.06v.09c0,1.69,1.41,3.06,3.15,3.06s3.15-1.37,3.15-3.06h0ZM222.59,131.74c-16.79,5.29-23.37,10.37-25.93,13.69-.49.64-.86,1.25-1.13,1.84-.89,1.93-.72,3.64-.51,5.68.09.91.19,1.84.18,2.83-.02,3.82-.78,7.6-2.19,10.95-.34.8-.72,1.59-1.13,2.35-.82,1.49-.24,3.34,1.3,4.13.47.25.98.36,1.48.36,1.13,0,2.22-.59,2.78-1.62.52-.94.99-1.92,1.41-2.91,1.71-4.07,2.63-8.64,2.66-13.23,0-1.3-.11-2.5-.21-3.46-.23-2.32-.22-2.44.42-3.27.31-.4.87-1.02,1.83-1.82.89-.74,2.13-1.62,3.84-2.62,4.21-2.45,9.98-4.84,17.16-7.1,7.52-2.37,11.66-10.24,9.21-17.54-.81-2.43-2.29-4.58-4.27-6.24-1.32-1.1-3.31-.96-4.44.32-1.13,1.28-.99,3.21.33,4.31,1.11.93,1.94,2.14,2.39,3.5.66,1.98.49,4.1-.48,5.96-.98,1.86-2.64,3.24-4.68,3.88h0ZM246.24,86.49c3.53.59,7.53,1.25,11.87,1.25,2.3,0,4.44-.18,6.57-.56,1.86-.33,3.7-.82,5.48-1.47,1.63-.6,2.45-2.36,1.84-3.94-.61-1.58-2.43-2.38-4.06-1.78-1.42.52-2.89.91-4.38,1.18-1.75.31-3.53.46-5.44.46-3.8,0-7.36-.59-10.8-1.17-4.14-.69-8.06-1.34-11.15-.61-3.63.86-6.75,4.22-7.26,7.82-.23,1.67-1,3.18-2.2,4.39-1.21,1.21-1.19,3.14.06,4.32.61.58,1.41.87,2.2.87.82,0,1.64-.31,2.26-.92,2.15-2.14,3.51-4.85,3.93-7.82.16-1.1,1.4-2.44,2.51-2.71,1.82-.43,5.26.14,8.59.69h0ZM180.61,134.82c-1.52-.82-3.44-.3-4.29,1.17-2.35,4.08-3.34,7.97-3.7,11.28-.35,3.3-.08,6.03.1,7.8.02.21.07.69.08.82.09,1.63,1.48,2.9,3.14,2.9.06,0,.11,0,.17,0,1.74-.09,3.07-1.52,2.98-3.21-.01-.24-.05-.61-.1-1.1-.17-1.71-.42-4.23-.02-7.2.34-2.5,1.14-5.33,2.85-8.29.85-1.47.31-3.33-1.21-4.16h0ZM245.34,102.44l-1.84,1.6c-1.29,1.13-1.4,3.06-.24,4.32.62.67,1.48,1.01,2.34,1.01.75,0,1.5-.26,2.1-.78l1.84-1.6c1.29-1.13,1.4-3.06.24-4.32-1.16-1.25-3.15-1.36-4.45-.23h0ZM276.22,91.82c-.63-1.57-2.45-2.36-4.07-1.75-2.13.8-4.35,1.4-6.6,1.8-2.42.43-4.85.63-7.44.63-4.75,0-9.15-.73-12.69-1.32-.95-.16-1.92-.32-2.86-.46-1.5-.22-2.95.63-3.45,2.02-.44,1.24-1.02,2.43-1.72,3.55-.9,1.44-.42,3.32,1.06,4.2.51.3,1.07.44,1.63.44,1.07,0,2.11-.52,2.7-1.47.47-.75.89-1.52,1.27-2.31.1.02.2.03.3.05,3.78.63,8.47,1.41,13.76,1.41,2.97,0,5.78-.24,8.57-.73,2.64-.46,5.24-1.17,7.74-2.11,1.62-.61,2.43-2.38,1.8-3.95h0ZM154.43,129.93c-.86.21-1.73.39-2.61.56-2.03.4-4.09.7-6.15.89-1.98.19-3.98.28-5.97.28-2.13,0-4.28-.11-6.39-.32-4.16-.42-8.24-1.27-12.15-2.51-1.65-.52-3.43.35-3.97,1.95-.54,1.6.36,3.33,2.02,3.85,4.33,1.37,8.85,2.31,13.44,2.78,2.32.24,4.69.36,7.05.36,2.19,0,4.4-.1,6.58-.31,1.85-.18,3.7-.43,5.54-.75,1.38-.24,2.76-.53,4.12-.85,1.69-.4,2.72-2.06,2.3-3.7-.42-1.64-2.12-2.64-3.81-2.23h0ZM262.79,14.43c1.14-1.36,2.67-2.29,4.43-2.68,1.7-.38,2.75-2.02,2.36-3.66-.39-1.64-2.08-2.67-3.78-2.29-3.14.7-5.87,2.35-7.91,4.78-4.46,5.32-6.97,11.56-7.25,18.03-.08,1.87.03,3.77.33,5.64.24,1.51,1.58,2.59,3.11,2.59.16,0,.32-.01.48-.04,1.72-.26,2.9-1.82,2.63-3.49-.23-1.48-.32-2.97-.26-4.45.22-5.15,2.24-10.14,5.84-14.43h0ZM235.37,39.18l-.11.06c-1.54.79-2.13,2.63-1.32,4.13.56,1.04,1.66,1.63,2.79,1.63.49,0,1-.11,1.46-.35l.1-.05c1.54-.78,2.13-2.63,1.32-4.13-.81-1.49-2.71-2.07-4.25-1.28h0ZM228.16,48.21c-3.83.91-7.53,2.35-11,4.28-1.51.84-2.03,2.71-1.17,4.17.58.98,1.64,1.54,2.74,1.54.53,0,1.07-.13,1.56-.41,2.95-1.64,6.1-2.87,9.36-3.64,3.09-.73,6.24-1.09,9.61-1.09,4.71,0,8.93.7,12.65,1.32.98.16,2,.33,2.93.47.88.13,1.77-.11,2.46-.66.69-.55,1.11-1.35,1.15-2.21.07-1.39.31-2.78.7-4.14.24-.81.53-1.62.88-2.38.7-1.55-.03-3.35-1.63-4.02-1.59-.68-3.45.03-4.15,1.58-.46,1.02-.85,2.08-1.17,3.16-.2.7-.38,1.4-.52,2.12-3.87-.64-8.24-1.34-13.32-1.34-3.89,0-7.52.41-11.11,1.27h0ZM151.82,119.36c-8.92,2.15-18.48,1.91-27.18-.85-1.65-.52-3.43.35-3.97,1.95-.54,1.6.36,3.33,2.02,3.85,5.41,1.72,11.22,2.59,17.06,2.59,1.82,0,3.64-.08,5.45-.26,2.23-.21,4.44-.55,6.63-1.02,5.29-1.13,10.38-2.99,14.99-5.49,1.52-.82,2.06-2.69,1.21-4.16-.85-1.47-2.77-2-4.29-1.17-3.73,2.03-7.75,3.54-11.91,4.55h0ZM234.01,15.68c-1.91-.78-3.92-1.47-5.96-2.06-.22-.06-.44-.13-.67-.19-1.4-1.45-2.93-2.79-4.57-3.99-.06-.05-.13-.09-.19-.14l-.08-.06c-.93-.67-2.16-.8-3.21-.32h-.03c-1.57.73-2.25,2.55-1.51,4.08.28.58.72,1.03,1.24,1.33,1.55,1.14,2.99,2.44,4.28,3.84.41.44.93.76,1.52.91.48.13.96.26,1.42.39,1.83.53,3.62,1.15,5.32,1.84.4.16.81.24,1.22.24,1.23,0,2.4-.7,2.91-1.87.67-1.56-.08-3.35-1.69-4h0ZM178.72,20.56c-1.37,1.04-1.62,2.96-.55,4.29.62.77,1.55,1.18,2.49,1.18.68,0,1.36-.21,1.93-.64,2.56-1.93,4.53-4.53,5.88-7.72,1.18-2.79,1.81-5.97,1.83-9.18,0-.74-.07-1.52-.16-2.34-.18-1.79-.39-3.85.22-6.14h-6.43c-.46,2.69-.23,5.01-.05,6.74.07.69.13,1.28.13,1.71-.03,5.11-2,9.64-5.28,12.11h0ZM234.96,104.16c-1.11-.77-2.28-1.45-3.49-2.04-1.56-.75-3.45-.14-4.22,1.37-.78,1.51-.15,3.34,1.41,4.1.91.44,1.8.96,2.64,1.54,3.37,2.33,5.82,5.59,7.1,9.42.8,2.39,1.1,4.87.87,7.37-.21,2.41-.9,4.72-2.03,6.88-1.13,2.16-2.66,4.05-4.54,5.64-1.95,1.64-4.19,2.87-6.66,3.64-6.02,1.9-10.33,3.67-13.42,5.2-2.35,1.16-3.98,2.18-5.11,3-.87.63-1.34,1.65-1.25,2.7.09,1.07.13,1.98.13,2.87-.03,5.19-1.08,10.38-3.03,15-.16.38-.33.76-.5,1.12-.71,1.54,0,3.35,1.58,4.04.42.18.86.27,1.29.27,1.2,0,2.35-.67,2.88-1.81.2-.43.4-.87.58-1.31,2.25-5.34,3.46-11.32,3.49-17.28,0-.53,0-1.07-.03-1.63,2.42-1.48,7.01-3.75,15.33-6.37.59-.18,1.16-.39,1.73-.61,2.6-1.02,4.98-2.44,7.11-4.23,2.5-2.1,4.53-4.62,6.03-7.48,1.5-2.86,2.41-5.93,2.69-9.13.29-3.31-.09-6.6-1.16-9.78-1.7-5.08-4.96-9.4-9.43-12.5h0ZM296.81,144.86c-1.04.45-1.71,1.38-1.85,2.41-.07.53,0,1.09.25,1.62.71,1.54,2.57,2.24,4.16,1.55,1.33-.57,2.82-.55,4.28-.12v-6.25c-2.38-.38-4.73-.11-6.83.79h0ZM256.01,117.17c1.54-2.32,3.35-4.21,4.94-5.88l.03-.03c.26-.28.53-.55.79-.83,1.05-1.12,2.11-2.3,2.73-3.4.84-1.48.29-3.34-1.23-4.15-1.52-.82-3.44-.28-4.28,1.2-.23.41-.86,1.16-1.87,2.24-.25.27-.5.53-.76.8l-.03.03c-1.77,1.85-3.77,3.95-5.6,6.71-.94,1.42-.52,3.31.94,4.22.53.33,1.12.49,1.71.49,1.03,0,2.05-.49,2.65-1.4h0ZM164.87.39c.55,0,1.08-.14,1.54-.39h-3.09c.32.18.68.3,1.07.36.16.02.33.04.49.04h0ZM294.96,0c-.07.53,0,1.09.25,1.62.71,1.54,2.57,2.24,4.16,1.55,1.33-.57,2.82-.55,4.28-.12V0h-8.68ZM276.46,118.51c-1.65-.52-3.43.35-3.97,1.95-.54,1.6.36,3.33,2.02,3.85,5.41,1.72,11.22,2.59,17.06,2.59,1.82,0,3.64-.08,5.45-.26,2.23-.21,4.45-.55,6.63-1.02v-6.28c-8.92,2.15-18.48,1.91-27.18-.85h0ZM240.81,40.07c.37,1.37,1.65,2.28,3.04,2.28.27,0,.54-.03.81-.1,1.68-.43,2.69-2.1,2.24-3.73-.9-3.32-1.29-6.72-1.14-10.11.32-7.51,3.21-14.71,8.34-20.83,3.67-4.38,9.12-6.89,14.94-6.89,1.67,0,3.34.21,4.96.63,1.37.35,2.76-.22,3.48-1.32h-24.4c-1.4,1.09-2.7,2.33-3.86,3.72-6,7.15-9.37,15.6-9.75,24.43-.17,4,.28,8.01,1.34,11.92h0ZM172.81,8.62c.09,1.63,1.48,2.9,3.14,2.9.06,0,.11,0,.17,0,1.74-.09,3.07-1.52,2.98-3.21-.01-.24-.05-.61-.1-1.1-.17-1.71-.42-4.23-.02-7.2h-6.35c-.35,3.3-.08,6.03.1,7.8.02.21.07.69.08.82h0ZM234.94,10.01c.67,0,1.34-.2,1.91-.63,3.74-2.78,7.16-5.92,10.21-9.39h-8.63c-1.71,1.61-3.51,3.12-5.41,4.53-1.38,1.03-1.64,2.94-.59,4.28.62.79,1.56,1.2,2.5,1.2h0ZM266.29,68.76c-1.51.86-3.11,1.44-4.74,1.73-3.88.68-8,0-12.35-.73-5.09-.85-10.35-1.72-15.71-.45-8.11,1.93-14.56,8.87-15.69,16.9-.24,1.67.97,3.21,2.69,3.44.14.02.29.03.43.03,1.55,0,2.9-1.11,3.12-2.64.77-5.51,5.38-10.47,10.95-11.79,4.08-.97,8.49-.24,13.15.54,4.7.78,9.57,1.59,14.54.72,2.37-.42,4.66-1.25,6.81-2.48,1.5-.85,2-2.73,1.12-4.18-.88-1.45-2.81-1.94-4.31-1.09h0ZM291.11,29.53c-.72-1.53-2.59-2.21-4.17-1.51-1.58.7-2.28,2.52-1.55,4.05l1.73,3.67c.53,1.12,1.67,1.78,2.87,1.78.44,0,.88-.09,1.31-.28,1.58-.7,2.28-2.52,1.55-4.05l-1.73-3.67h0ZM298.75,49.94c-1.7.36-2.78,1.99-2.41,3.64,1.42,6.29,1.72,12.06,1.97,16.7.09,1.69.24,4.52.46,6.11.06.4.19.79.4,1.14,1.07,1.77,2.84,4.71,4.46,8.36v-27.23c-.28-2.05-.65-4.19-1.14-6.38-.37-1.65-2.05-2.69-3.75-2.33h0ZM300.64,7.79c-3.96,1.29-8.22-.53-9.91-4.24-.7-1.54-2.56-2.24-4.16-1.55-1.59.68-2.31,2.49-1.6,4.03,1.46,3.19,4.08,5.72,7.37,7.11,2.64,1.12,5.52,1.44,8.31.94.91,1.58,1.69,4.15,2.45,6.64h0c.17.59.35,1.17.54,1.77v-14.2c-.16-.1-.3-.19-.42-.26-.78-.44-1.72-.53-2.58-.25h0ZM291.94,114.59v.23c0,1.69,1.41,3.05,3.15,3.05s3.15-1.37,3.15-3.05v-.23c0-1.69-1.41-3.05-3.15-3.05s-3.15,1.37-3.15,3.05h0ZM207.34,74.6c0-1.31-.87-2.52-2.22-2.92-1.66-.5-3.43.41-3.94,2.02-.65,2.06-.98,4.21-.98,6.39,0,1.94.26,3.89.78,5.82,1.11,4.14,3.33,7.78,6.41,10.55,1.05.94,2.16,1.76,3.23,2.56,2.03,1.5,3.95,2.92,4.82,4.73.3.63.46,1.34.46,2.08,0,.68-.13,1.38-.38,2.07-.54,1.44-1.55,2.58-2.79,3.14-1.14.52-1.82,1.62-1.82,2.77,0,.43.09.87.3,1.29.53,1.11,1.67,1.76,2.86,1.76.45,0,.9-.09,1.33-.29,2.75-1.24,4.95-3.65,6.05-6.6.5-1.35.75-2.76.75-4.14,0-1.64-.35-3.24-1.05-4.68-1.53-3.15-4.27-5.19-6.7-6.98-1-.74-1.95-1.44-2.78-2.19-3.29-2.96-5.16-7.45-5.15-11.91,0-1.55.22-3.09.69-4.57.09-.3.14-.6.14-.9h0ZM292.13,45.52c.62.6,1.42.9,2.23.9s1.61-.3,2.22-.89l.09-.08c1.23-1.19,1.23-3.13,0-4.32-1.23-1.19-3.23-1.19-4.45,0l-.08.08c-1.23,1.19-1.23,3.13,0,4.32h0ZM279.71,23.84c-1.35-1.06-3.33-.87-4.43.44-.97,1.16-2.15,3.01-2.25,5.23-.1,2.43,1.12,5.09,3.63,7.89,4.21,4.7,6.29,10.18,7.64,14.44,2.17,6.85,2.53,13.59,2.82,18.99.27,5.03.51,8.47,1.42,10.51.04.09.08.18.13.26.14.25.39.65.69,1.16h0c1.74,2.88,4.64,7.7,6.03,13.22.89,3.55,1.03,6.92.39,10.02-.34,1.66.77,3.26,2.48,3.59.21.04.41.06.62.06,1.47,0,2.79-1.01,3.09-2.46.81-3.97.66-8.23-.45-12.65-1.61-6.4-4.8-11.69-6.71-14.85h0c-.16-.27-.38-.64-.52-.87-.1-.29-.31-1.07-.51-2.98-.17-1.63-.27-3.51-.36-5.32-.31-5.75-.69-12.9-3.09-20.47-1.53-4.83-3.92-11.09-8.91-16.65-1.59-1.77-2.12-3.06-2.1-3.63.02-.42.33-1.03.84-1.63,1.1-1.31.89-3.23-.46-4.3h0ZM298.4,22.07v-.03c-.1-.31-.21-.65-.31-1-.35-1.15-1.37-1.99-2.59-2.16-6.57-.87-12.32-5.06-15-10.93-.71-1.54-2.57-2.24-4.16-1.55-1.59.68-2.31,2.49-1.6,4.03,1.77,3.87,4.55,7.26,8.05,9.8,2.92,2.11,6.27,3.6,9.81,4.36.31,1.02.64,2.07,1.01,3.19,1.66,4.99,3.68,9.24,6.17,13.02,1.19,1.79,2.47,3.47,3.86,5.01v-10.66c-1.56-2.74-2.89-5.79-4.04-9.24-.45-1.34-.83-2.61-1.2-3.83h0ZM286.58,146.74c1.74,0,3.15-1.37,3.15-3.06s-1.41-3.06-3.15-3.06h-.21c-1.74,0-3.15,1.37-3.15,3.06s1.41,3.06,3.15,3.06h.21ZM282.22,108.24c-1.29,1.13-1.39,3.06-.23,4.31.62.67,1.48,1.01,2.34,1.01.75,0,1.51-.26,2.11-.79,2.41-2.11,3.94-4.69,4.55-7.68.49-2.41.38-5.09-.35-7.97-1.22-4.85-3.9-9.29-5.5-11.94-.42-.7-.82-1.36-.97-1.66-1.44-3.01-1.68-7.38-1.94-12.44-.29-5.41-.62-11.55-2.61-17.84-1.2-3.81-3.05-8.69-6.66-12.72-7.92-8.84-4.33-15.85-1.49-19.24,1.1-1.31.89-3.23-.46-4.3-1.35-1.06-3.33-.87-4.43.44-2.04,2.44-4.52,6.43-4.75,11.63-.23,5.29,1.91,10.5,6.37,15.47,2.83,3.16,4.37,7.27,5.39,10.5,1.76,5.57,2.07,11.3,2.34,16.37.3,5.7.57,10.62,2.52,14.7.27.57.68,1.24,1.24,2.17,1.43,2.36,3.81,6.31,4.81,10.3,1.41,5.62-.64,8.2-2.3,9.66h0ZM291.52,131.67c-2.13,0-4.28-.11-6.39-.32-4.15-.42-8.24-1.27-12.15-2.51-1.65-.52-3.43.35-3.97,1.95-.54,1.6.36,3.33,2.02,3.85,4.33,1.37,8.85,2.31,13.44,2.78,2.32.24,4.69.36,7.05.36,2.19,0,4.4-.1,6.58-.31,1.85-.18,3.7-.43,5.54-.75v-6.22c-2.03.4-4.09.7-6.15.89-1.98.19-3.98.28-5.97.28h0ZM269.17,118.67c.29-.3.58-.6.86-.91,1.88-2,3.78-4.21,4.99-6.9,1.48-3.3,1.6-6.83.32-9.69-.69-1.55-2.55-2.26-4.15-1.58-1.59.67-2.32,2.47-1.63,4.02.58,1.29.46,3.08-.31,4.8-.79,1.76-2.12,3.36-3.87,5.22-.28.29-.56.59-.83.88-1.53,1.6-3.11,3.26-4.42,5.23-3.74,5.62-4.49,12.98-1.96,19.2.49,1.2,1.68,1.93,2.93,1.93.38,0,.78-.07,1.16-.21,1.62-.62,2.41-2.39,1.77-3.96-1.8-4.42-1.27-9.65,1.39-13.64,1.02-1.53,2.35-2.92,3.75-4.4h0ZM173.69,125.84c-1.41-.99-3.38-.68-4.4.69-3.42,4.6-5.78,9.64-7.02,14.97-.2.87-.37,1.76-.52,2.64-.21,1.29.46,2.52,1.56,3.13.32.18.68.3,1.07.36.16.02.33.04.49.04.55,0,1.08-.14,1.54-.39.81-.44,1.42-1.23,1.57-2.19.12-.75.27-1.5.44-2.24,1.05-4.52,3.06-8.8,5.98-12.73,1.02-1.37.7-3.28-.71-4.27h0ZM206.4,8.57c-.03,5.19-1.08,10.38-3.03,15-.16.38-.33.76-.5,1.13-.71,1.54,0,3.35,1.58,4.04.42.18.86.27,1.29.27,1.2,0,2.35-.67,2.88-1.81.2-.43.4-.87.58-1.31,2.25-5.34,3.46-11.32,3.49-17.28,0-.53,0-1.07-.03-1.63,2.42-1.48,7.01-3.75,15.33-6.37.59-.18,1.16-.39,1.73-.61h-17.1c-2.35,1.16-3.98,2.18-5.11,3-.87.63-1.34,1.65-1.25,2.7.09,1.07.13,1.98.13,2.87h0ZM193.17,25.94c.47.24.98.36,1.48.36,1.13,0,2.22-.59,2.78-1.62.52-.94.99-1.92,1.41-2.91,1.71-4.07,2.63-8.64,2.66-13.23,0-1.3-.11-2.5-.21-3.46-.23-2.32-.22-2.44.42-3.27.31-.4.87-1.02,1.83-1.82h-8.01c-.89,1.93-.72,3.64-.51,5.68.09.91.19,1.84.18,2.83-.02,3.81-.78,7.6-2.19,10.95-.34.8-.72,1.59-1.13,2.35-.82,1.49-.24,3.34,1.3,4.13h0ZM211.32,81.44c.49.27,1.03.4,1.56.4,1.09,0,2.16-.55,2.74-1.54,1.24-2.1,1.68-4.56,1.23-6.94-.31-1.66-1.95-2.76-3.66-2.46-1.71.3-2.85,1.89-2.54,3.55.18.95,0,1.98-.5,2.82-.86,1.46-.34,3.33,1.17,4.17h0ZM212.79,35.5c-.38,1.65.68,3.28,2.38,3.65l.24.05c1.36.3,2.9.64,4.45,1.08,2.31.67,4.41,1.55,6.24,2.62.51.3,1.07.44,1.62.44,1.07,0,2.11-.53,2.7-1.48.9-1.44.42-3.32-1.07-4.19-2.28-1.33-4.87-2.42-7.69-3.24-1.75-.51-3.41-.87-4.86-1.19l-.24-.05c-1.7-.37-3.38.66-3.77,2.31h0ZM215.77,26.35c.24.3.47.6.69.91.05.07.1.14.14.21.45.65,1.14,1.11,1.92,1.29,1.4.31,2.91.66,4.53,1.12,2.45.71,4.77,1.61,6.89,2.67.46.23.96.34,1.45.34,1.14,0,2.24-.6,2.8-1.65.8-1.5.2-3.34-1.35-4.12-2.47-1.24-5.16-2.29-7.99-3.1-1.32-.38-2.59-.69-3.74-.96-.12-.16-.24-.31-.37-.47-1.07-1.33-3.05-1.57-4.42-.53-1.37,1.04-1.62,2.96-.55,4.29h0ZM196.29,73.01c.46-1.63-.52-3.31-2.2-3.76-1.68-.45-3.41.5-3.87,2.13-.54,1.89-.9,3.85-1.08,5.83-.29,3.28-.08,6.6.62,9.86.71,3.26,1.9,6.38,3.53,9.27,1.73,3.05,3.91,5.77,6.49,8.09.51.46,1.25,1.06,2.21,1.82-.95,1.43-1.63,3.03-2,4.74-.63,2.95-.27,5.96,1.05,8.7.53,1.11,1.67,1.76,2.86,1.76.45,0,.9-.09,1.33-.29,1.58-.71,2.26-2.53,1.52-4.06-1.5-3.11-.75-6.75,1.86-9.07.69-.61,1.06-1.48,1.02-2.38-.04-.9-.48-1.74-1.22-2.29l-.13-.1c-2.72-2.03-3.82-2.96-4.23-3.33-2.08-1.87-3.84-4.07-5.25-6.54-1.34-2.36-2.31-4.92-2.89-7.59-.58-2.67-.75-5.39-.51-8.07.14-1.61.44-3.2.87-4.73h0ZM164.52,107.67v.09c0,1.69,1.41,3.06,3.15,3.06s3.15-1.37,3.15-3.06v-.09c0-1.69-1.41-3.06-3.15-3.06s-3.15,1.37-3.15,3.06h0ZM213.57,47.51l.07.06c.61.6,1.42.89,2.23.89s1.61-.3,2.23-.89c1.23-1.19,1.23-3.13,0-4.32l-.07-.06c-1.23-1.19-3.22-1.19-4.45,0-1.23,1.19-1.23,3.13,0,4.32h0ZM266.71,52.08c-1.74-.05-3.19,1.28-3.24,2.96-.06,1.99-2.08,4.43-3.92,4.76-1.94.34-5.25-.21-8.46-.74-5.93-.99-12.65-2.11-20.27-.3-3.13.74-6.14,1.97-8.94,3.64-1.38.82-2.7,1.75-3.94,2.77-1.33,1.09-1.5,3.02-.38,4.31.62.72,1.51,1.08,2.41,1.08.72,0,1.44-.24,2.03-.72,1-.82,2.07-1.57,3.18-2.23,2.24-1.34,4.64-2.32,7.14-2.91,6.35-1.51,12.12-.55,17.7.38,3.92.65,7.62,1.27,10.65.73,4.78-.84,8.95-5.69,9.1-10.59.05-1.69-1.32-3.09-3.06-3.14h0ZM174.86,66.66c.48-1.62-.48-3.32-2.15-3.78-1.67-.47-3.42.46-3.9,2.08-1,3.36-1.67,6.85-1.99,10.37-.49,5.41-.14,10.87,1.02,16.23,1.16,5.35,3.12,10.48,5.82,15.25,1.1,1.94,2.33,3.83,3.66,5.63-.11,2.63.08,5.25.58,7.83.56,2.96,1.53,5.86,2.85,8.62.54,1.11,1.67,1.76,2.86,1.76.45,0,.9-.09,1.33-.29,1.58-.71,2.26-2.53,1.52-4.06-2.23-4.63-3.17-9.53-2.79-14.57.06-.74-.17-1.47-.63-2.06-1.42-1.83-2.72-3.78-3.87-5.8-2.4-4.24-4.14-8.8-5.17-13.57-1.03-4.76-1.34-9.62-.91-14.44.28-3.12.87-6.22,1.76-9.19h0ZM152.78,69.96c-.17-3.12-.37-7.01-.96-11.31-.28-2.05-.65-4.19-1.14-6.38-.37-1.65-2.05-2.69-3.75-2.33-1.7.36-2.78,1.99-2.41,3.64,1.42,6.29,1.72,12.06,1.97,16.7.09,1.69.24,4.52.46,6.11.06.4.19.79.4,1.14,1.07,1.77,2.84,4.71,4.46,8.36,1.01,2.28,1.96,4.83,2.65,7.54,1.28,5.1,1.45,10.05.5,14.71-.34,1.66.77,3.26,2.48,3.59.21.04.41.06.62.06,1.47,0,2.79-1.01,3.09-2.46,1.13-5.54.95-11.37-.55-17.34-1.88-7.49-5.48-13.69-7.46-16.99-.15-1.45-.27-3.73-.34-5.03h0ZM160.12,61.42c-1.73-.17-3.27,1.06-3.45,2.74l-.34,3.31c-.17,1.68,1.09,3.18,2.82,3.34.11.01.21.02.32.02,1.6,0,2.97-1.18,3.13-2.75l.34-3.31c.17-1.68-1.09-3.18-2.82-3.34h0ZM195.43,109.08s.01-.04.02-.07c0,.02-.01.04-.02.07h0ZM184.26,76.8c-.34,3.75-.1,7.54.71,11.26.81,3.72,2.16,7.28,4.03,10.58,1.57,2.77,3.48,5.32,5.67,7.58.73.75,1.02,1.79.78,2.79-.03.17-.42,2.22-.42,4.91,0,3.16.52,5.82,1.52,7.68.8,1.5.2,3.34-1.34,4.12-.46.23-.96.34-1.45.34-1.14,0-2.24-.6-2.8-1.65-1.52-2.84-2.27-6.47-2.23-10.79.02-1.68.16-3.21.3-4.33-2.12-2.35-3.99-4.93-5.56-7.71-2.17-3.83-3.74-7.95-4.67-12.26-.94-4.31-1.21-8.7-.82-13.05.32-3.54,1.08-7.01,2.25-10.31.57-1.59,2.36-2.44,4.01-1.89,1.64.55,2.52,2.29,1.95,3.88-1.01,2.84-1.66,5.81-1.93,8.85h0ZM160.79,74.95c-1.74,0-3.15,1.37-3.15,3.06v.18c0,1.69,1.41,3.06,3.15,3.06s3.15-1.37,3.15-3.06v-.18c0-1.69-1.41-3.06-3.15-3.06h0ZM99.17,426.11c1.74,0,3.15-1.37,3.15-3.05v-.09c0-1.69-1.41-3.05-3.15-3.05s-3.15,1.37-3.15,3.05v.09c0,1.69,1.41,3.05,3.15,3.05h0ZM81.93,414.56c-.81-2.43-2.29-4.58-4.27-6.24-1.32-1.1-3.31-.96-4.44.32-1.14,1.28-.99,3.21.33,4.31,1.11.93,1.94,2.14,2.39,3.5.66,1.98.49,4.1-.48,5.96-.98,1.86-2.64,3.24-4.68,3.88-16.79,5.29-23.37,10.37-25.93,13.69-.49.64-.86,1.25-1.13,1.84h8.01c.89-.74,2.13-1.62,3.84-2.62,4.21-2.45,9.98-4.84,17.16-7.1,7.52-2.37,11.66-10.24,9.21-17.54h0ZM77.13,391.79c.82,0,1.64-.31,2.26-.92,2.15-2.14,3.51-4.85,3.93-7.82.16-1.1,1.4-2.44,2.51-2.71,1.82-.43,5.26.14,8.59.69,3.53.59,7.53,1.25,11.87,1.25,2.29,0,4.44-.18,6.57-.56,1.86-.33,3.7-.82,5.48-1.47,1.63-.6,2.45-2.36,1.84-3.94-.61-1.58-2.43-2.38-4.06-1.78-1.42.52-2.89.91-4.38,1.18-1.75.31-3.53.46-5.44.46-3.8,0-7.36-.59-10.8-1.17-4.14-.69-8.06-1.34-11.15-.61-3.63.86-6.75,4.22-7.26,7.82-.23,1.67-1,3.18-2.2,4.39-1.21,1.21-1.19,3.14.06,4.32.61.58,1.4.87,2.2.87h0ZM28.79,429.36c-1.52-.82-3.44-.3-4.29,1.17-2.35,4.08-3.34,7.97-3.7,11.28h6.35c.34-2.5,1.14-5.33,2.85-8.29.85-1.47.31-3.33-1.21-4.16h0ZM93.79,403.91c.75,0,1.5-.26,2.1-.78l1.84-1.6c1.29-1.13,1.4-3.06.24-4.31s-3.15-1.36-4.45-.23l-1.84,1.6c-1.29,1.13-1.4,3.06-.24,4.31.62.67,1.48,1.01,2.34,1.01h0ZM86.63,395.03c.51.3,1.07.44,1.63.44,1.07,0,2.11-.52,2.7-1.47.47-.75.89-1.52,1.27-2.31.1.02.2.03.3.05,3.78.63,8.47,1.41,13.76,1.41,2.97,0,5.78-.24,8.57-.73,2.64-.46,5.24-1.17,7.74-2.11,1.62-.61,2.43-2.38,1.8-3.95-.63-1.57-2.45-2.36-4.07-1.75-2.13.8-4.35,1.4-6.6,1.8-2.42.43-4.85.63-7.44.63-4.75,0-9.15-.73-12.69-1.32-.95-.16-1.92-.32-2.86-.46-1.5-.22-2.95.63-3.45,2.02-.44,1.24-1.02,2.43-1.72,3.55-.9,1.44-.42,3.32,1.06,4.2h0ZM71.28,417.91c-.54-1.6-2.31-2.48-3.97-1.96-8.37,2.64-15.32,5.54-20.65,8.63-4.73,2.74-8.36,5.74-10.8,8.9-2.28,2.97-3.33,5.81-3.76,8.33h6.43c.39-1.47,1.1-3.03,2.37-4.68,4.34-5.64,13.87-10.81,28.34-15.37,1.65-.52,2.56-2.24,2.02-3.85h0ZM6.42,426.7c-.42-1.64-2.12-2.64-3.81-2.23-.86.21-1.73.39-2.61.56v6.22c1.38-.24,2.76-.53,4.12-.85,1.69-.4,2.72-2.06,2.3-3.7h0ZM110.98,308.97c1.14-1.36,2.67-2.29,4.43-2.68,1.7-.38,2.75-2.02,2.36-3.66-.39-1.64-2.08-2.67-3.77-2.29-3.14.7-5.87,2.35-7.91,4.78-4.46,5.32-6.97,11.56-7.25,18.03-.08,1.88.03,3.77.33,5.64.24,1.51,1.58,2.59,3.11,2.59.16,0,.32-.01.48-.04,1.72-.26,2.9-1.82,2.63-3.49-.23-1.48-.32-2.97-.26-4.45.22-5.15,2.24-10.14,5.84-14.43h0ZM83.44,333.78c-1.54.79-2.13,2.63-1.32,4.13.56,1.04,1.66,1.63,2.79,1.63.49,0,1-.11,1.46-.35l.1-.05c1.54-.78,2.13-2.63,1.32-4.12-.81-1.49-2.71-2.07-4.25-1.28l-.11.05h0ZM64.18,351.19c.58.99,1.64,1.54,2.73,1.54.53,0,1.07-.13,1.56-.41,2.95-1.64,6.1-2.87,9.36-3.64,3.09-.73,6.24-1.09,9.61-1.09,4.71,0,8.93.7,12.65,1.32.98.16,2,.33,2.93.47.88.13,1.77-.11,2.46-.66.69-.55,1.11-1.35,1.15-2.21.07-1.39.31-2.78.7-4.14.24-.81.53-1.62.88-2.38.7-1.55-.03-3.35-1.63-4.02-1.59-.67-3.45.03-4.15,1.58-.46,1.02-.85,2.08-1.17,3.16-.2.7-.38,1.41-.52,2.12-3.87-.64-8.24-1.34-13.32-1.34-3.89,0-7.52.41-11.11,1.27-3.83.91-7.53,2.35-11,4.28-1.51.84-2.03,2.71-1.17,4.17h0ZM16.2,410.53c-.85-1.47-2.77-2-4.29-1.17-3.73,2.02-7.75,3.54-11.91,4.55v6.28c5.29-1.13,10.38-2.99,14.99-5.49,1.52-.82,2.06-2.69,1.21-4.16h0ZM75.55,307.97c-1.4-1.45-2.93-2.79-4.57-3.99-.06-.05-.13-.09-.19-.14l-.08-.06c-.93-.67-2.16-.79-3.21-.32h-.03c-1.57.73-2.25,2.55-1.51,4.08.28.58.72,1.03,1.24,1.33,1.55,1.14,2.99,2.44,4.28,3.84.41.44.93.76,1.52.91.48.13.96.26,1.42.39,1.83.53,3.62,1.15,5.32,1.84.4.16.81.24,1.22.24,1.23,0,2.4-.7,2.91-1.87.67-1.56-.08-3.35-1.69-4-1.91-.78-3.92-1.47-5.96-2.06-.22-.06-.45-.13-.67-.19h0ZM5.57,329.47c2.98,4.5,6.76,7.92,11.23,10.16,6.47,3.23,13.07,3.38,18.68,3.1.53-.03,1.06-.06,1.53-.08,1.45-.08,3.03-.17,4.22-.13,1,2.07,2.51,3.87,4.44,5.26,2.49,1.8,5.45,2.75,8.54,2.75.76,0,1.52-.06,2.27-.17,1.72-.27,2.89-1.83,2.61-3.5-.27-1.67-1.89-2.8-3.61-2.54-.42.07-.85.1-1.28.1-3.52,0-6.68-2.28-7.69-5.55-.3-.96-1.06-1.72-2.04-2.03-.08-.03-.16-.05-.25-.07-2.03-.53-4.73-.37-7.58-.21-.48.03-.98.05-1.49.08-4.77.24-10.33.13-15.47-2.43-3.47-1.74-6.44-4.44-8.81-8.02-1.67-2.53-3.06-5.49-4.25-9.06-.4-1.21-.76-2.4-1.11-3.55h0c-1.04-3.44-2.02-6.68-3.68-8.98-.6-.83-1.3-1.4-1.83-1.74v14.2c.2.64.4,1.29.62,1.95,1.36,4.08,2.97,7.51,4.94,10.49h0ZM93.74,420.98c.29-3.31-.09-6.61-1.16-9.78-1.7-5.08-4.96-9.4-9.43-12.5-1.11-.77-2.28-1.45-3.49-2.04-1.56-.75-3.45-.14-4.22,1.37-.78,1.51-.14,3.34,1.41,4.1.91.44,1.8.96,2.64,1.54,3.37,2.33,5.82,5.59,7.1,9.42.8,2.39,1.1,4.87.87,7.37-.21,2.41-.9,4.72-2.03,6.88-1.13,2.16-2.66,4.05-4.54,5.63-1.95,1.64-4.19,2.87-6.66,3.64-6.02,1.9-10.33,3.67-13.42,5.2h17.1c2.6-1.02,4.98-2.44,7.11-4.23,2.5-2.1,4.53-4.61,6.03-7.48,1.5-2.86,2.41-5.93,2.69-9.13h0ZM0,438.61v3.2h7.27c-1.21-.92-2.53-1.68-3.92-2.25-1.11-.46-2.24-.77-3.36-.95h0ZM97.94,433.34c-1.41-.99-3.38-.68-4.4.69-2.08,2.79-4.39,5.39-6.93,7.78h8.63c1.19-1.35,2.33-2.76,3.41-4.2,1.02-1.37.7-3.28-.71-4.27h0ZM104.19,411.71c1.54-2.32,3.35-4.21,4.94-5.88l.03-.03c.26-.28.53-.55.79-.83,1.05-1.12,2.11-2.3,2.73-3.4.84-1.48.29-3.34-1.23-4.15-1.52-.82-3.44-.28-4.28,1.2-.23.41-.86,1.16-1.87,2.24-.25.27-.5.53-.76.8l-.03.03c-1.76,1.85-3.77,3.95-5.6,6.71-.94,1.42-.52,3.31.94,4.22.53.33,1.12.49,1.71.49,1.03,0,2.05-.49,2.65-1.4h0ZM5.84,301.85c2.11,2.93,3.2,6.54,4.36,10.35.34,1.13.7,2.3,1.08,3.45,1.06,3.18,2.27,5.78,3.71,7.96,1.9,2.88,4.24,5.02,6.93,6.37,4.09,2.04,8.65,2.13,12.97,1.91.48-.02.97-.05,1.46-.08,3.26-.18,6.34-.35,9.13.37,2.42.63,5.22,2.43,5.62,4.91.25,1.5,1.59,2.57,3.11,2.57.16,0,.33-.01.5-.04,1.72-.27,2.89-1.83,2.61-3.5-.4-2.43-1.71-4.68-3.78-6.5-1.75-1.54-4.04-2.73-6.44-3.35-3.77-.98-7.5-.77-11.12-.56-.47.03-.95.05-1.42.08-3.44.17-7,.14-9.76-1.24-3.19-1.59-5.65-5.12-7.53-10.77-.36-1.08-.68-2.15-1.03-3.3-1.25-4.12-2.54-8.37-5.24-12.12-1.04-1.45-2.31-2.74-3.73-3.81-1.21-.92-2.53-1.68-3.92-2.25-1.11-.46-2.24-.77-3.36-.95v6.25c2.26.67,4.45,2.32,5.84,4.26h0ZM123.81,437.23c-2.15-.56-4.37-.84-6.59-.84-5.88,0-11.48,1.94-15.96,5.43h24.4c.17-.25.29-.54.38-.84.45-1.63-.55-3.31-2.23-3.74h0ZM122.68,418.86c5.41,1.72,11.22,2.59,17.06,2.59,1.82,0,3.64-.08,5.45-.26,2.23-.21,4.44-.55,6.63-1.02,5.29-1.13,10.38-2.99,14.99-5.49,1.52-.82,2.06-2.69,1.21-4.16-.85-1.47-2.77-2-4.29-1.17-3.73,2.02-7.75,3.54-11.91,4.55-8.92,2.15-18.48,1.91-27.18-.85-1.65-.52-3.43.35-3.97,1.95-.54,1.6.36,3.33,2.02,3.85h0ZM125.66,294.54c.17-.25.29-.54.38-.84.45-1.63-.55-3.31-2.23-3.74-2.15-.56-4.37-.84-6.59-.84-5.88,0-11.48,1.94-15.96,5.43-1.4,1.09-2.7,2.33-3.86,3.72-6,7.15-9.37,15.6-9.75,24.43-.17,4,.28,8.01,1.34,11.92.37,1.37,1.65,2.28,3.04,2.28.27,0,.54-.03.81-.1,1.68-.43,2.69-2.1,2.24-3.73-.9-3.32-1.29-6.72-1.14-10.11.32-7.51,3.21-14.71,8.34-20.83,3.67-4.38,9.12-6.89,14.94-6.89,1.67,0,3.34.21,4.96.63,1.37.35,2.76-.22,3.48-1.32h0ZM20.99,303.16c.09,1.63,1.48,2.9,3.14,2.9.05,0,.11,0,.16,0,1.74-.09,3.07-1.52,2.98-3.21-.01-.24-.05-.61-.1-1.1-.17-1.71-.42-4.23-.02-7.2.34-2.5,1.14-5.33,2.85-8.29.85-1.47.31-3.33-1.21-4.16-1.52-.82-3.44-.3-4.29,1.17-2.35,4.08-3.34,7.97-3.7,11.28-.35,3.3-.08,6.03.1,7.8.02.21.07.69.08.82h0ZM72.22,381.58c.78-5.51,5.38-10.47,10.95-11.79,4.08-.97,8.49-.24,13.15.54,4.7.78,9.56,1.59,14.54.72,2.37-.42,4.66-1.25,6.81-2.48,1.5-.86,2-2.73,1.12-4.18-.88-1.45-2.81-1.94-4.31-1.09-1.51.86-3.11,1.44-4.74,1.73-3.88.68-8,0-12.35-.73-5.09-.85-10.35-1.72-15.71-.45-8.11,1.93-14.56,8.87-15.69,16.9-.24,1.67.97,3.21,2.69,3.44.14.02.29.03.43.03,1.55,0,2.9-1.11,3.12-2.64h0ZM139.29,324.07c-.72-1.53-2.59-2.21-4.17-1.51-1.58.7-2.28,2.51-1.55,4.05l1.73,3.67c.53,1.12,1.67,1.78,2.87,1.78.44,0,.88-.09,1.31-.28,1.58-.7,2.28-2.52,1.55-4.05l-1.73-3.67h0ZM140.52,307.68c2.64,1.12,5.52,1.44,8.31.94.91,1.58,1.69,4.15,2.45,6.64h0c.17.59.35,1.17.54,1.77.2.64.4,1.29.63,1.95,1.36,4.08,2.97,7.51,4.94,10.49,2.98,4.5,6.76,7.92,11.23,10.16,6.47,3.23,13.07,3.38,18.67,3.1.53-.03,1.06-.06,1.53-.08,1.45-.08,3.03-.17,4.22-.13,1,2.07,2.51,3.87,4.44,5.26,2.49,1.8,5.45,2.75,8.54,2.75.76,0,1.52-.06,2.27-.17,1.72-.27,2.89-1.83,2.62-3.5-.27-1.67-1.89-2.8-3.61-2.54-.42.07-.86.1-1.28.1-3.52,0-6.68-2.28-7.69-5.55-.3-.96-1.06-1.72-2.04-2.03-.08-.03-.17-.05-.25-.07-2.03-.53-4.73-.37-7.58-.21-.48.03-.98.05-1.49.08-4.77.24-10.33.13-15.47-2.43-3.47-1.74-6.44-4.44-8.81-8.02-1.67-2.53-3.06-5.49-4.25-9.06-.4-1.21-.76-2.4-1.11-3.55h0c-1.04-3.44-2.02-6.68-3.67-8.98-.6-.83-1.3-1.4-1.83-1.74-.16-.1-.3-.19-.42-.26-.78-.44-1.72-.53-2.58-.25-3.96,1.29-8.22-.53-9.91-4.24-.7-1.54-2.57-2.24-4.16-1.55-1.59.68-2.31,2.49-1.6,4.03,1.46,3.19,4.08,5.72,7.37,7.11h0ZM140.12,409.13v.23c0,1.69,1.41,3.06,3.15,3.06s3.15-1.37,3.15-3.06v-.23c0-1.69-1.41-3.06-3.15-3.06s-3.15,1.37-3.15,3.06h0ZM60.9,405.58c-1.15.52-1.82,1.62-1.82,2.77,0,.43.1.87.3,1.29.53,1.11,1.67,1.76,2.86,1.76.45,0,.9-.09,1.33-.29,2.75-1.24,4.95-3.65,6.05-6.6.5-1.35.75-2.76.75-4.14,0-1.64-.35-3.24-1.05-4.69-1.53-3.15-4.27-5.19-6.7-6.98-1-.74-1.95-1.44-2.78-2.19-3.3-2.96-5.16-7.45-5.15-11.91,0-1.55.23-3.09.69-4.57.09-.3.14-.6.14-.9,0-1.31-.87-2.52-2.22-2.92-1.66-.5-3.42.41-3.94,2.02-.65,2.06-.98,4.21-.98,6.39,0,1.94.26,3.89.78,5.82,1.11,4.14,3.33,7.78,6.41,10.55,1.05.94,2.16,1.76,3.23,2.56,2.03,1.5,3.94,2.92,4.82,4.73.3.63.46,1.34.46,2.08,0,.68-.13,1.38-.38,2.07-.54,1.44-1.55,2.58-2.79,3.14h0ZM140.39,335.67l-.08.08c-1.23,1.19-1.23,3.13,0,4.32.62.6,1.42.9,2.23.9s1.61-.3,2.22-.89l.09-.08c1.23-1.19,1.23-3.13,0-4.32-1.23-1.19-3.22-1.19-4.45,0h0ZM127.89,318.38c-1.35-1.06-3.33-.87-4.43.44-.97,1.16-2.15,3.01-2.25,5.23-.1,2.43,1.12,5.09,3.63,7.89,4.21,4.7,6.29,10.18,7.64,14.44,2.17,6.85,2.53,13.58,2.82,18.99.27,5.03.51,8.47,1.42,10.51.04.09.08.18.13.26.14.25.39.65.69,1.16h0c1.74,2.89,4.64,7.7,6.03,13.22.89,3.55,1.02,6.92.39,10.02-.34,1.66.77,3.26,2.48,3.59.21.04.41.06.62.06,1.47,0,2.79-1.01,3.09-2.46.81-3.97.66-8.23-.45-12.66-1.61-6.4-4.8-11.69-6.71-14.85h0c-.16-.27-.38-.63-.52-.87-.1-.29-.31-1.07-.51-2.98-.17-1.63-.27-3.51-.36-5.32-.31-5.75-.69-12.9-3.09-20.47-1.53-4.83-3.92-11.09-8.91-16.65-1.59-1.77-2.12-3.06-2.1-3.63.02-.42.33-1.03.84-1.63,1.1-1.31.89-3.23-.46-4.3h0ZM134.76,435.17h-.2c-1.74,0-3.15,1.37-3.15,3.06s1.41,3.05,3.15,3.05h.2c1.74,0,3.15-1.37,3.15-3.05s-1.41-3.06-3.15-3.06h0ZM130.4,402.78c-1.29,1.13-1.4,3.06-.23,4.32.62.67,1.48,1.01,2.34,1.01.75,0,1.51-.26,2.11-.79,2.41-2.11,3.94-4.69,4.55-7.68.49-2.41.38-5.09-.35-7.97-1.22-4.85-3.9-9.29-5.5-11.94-.42-.7-.82-1.36-.97-1.66-1.44-3.01-1.68-7.38-1.94-12.44-.29-5.41-.62-11.55-2.61-17.84-1.2-3.81-3.05-8.69-6.66-12.72-7.92-8.84-4.33-15.85-1.49-19.24,1.1-1.31.89-3.23-.46-4.3-1.35-1.06-3.33-.87-4.43.44-2.04,2.44-4.52,6.43-4.75,11.63-.23,5.29,1.92,10.5,6.37,15.47,2.83,3.16,4.37,7.27,5.39,10.5,1.76,5.57,2.07,11.3,2.34,16.36.3,5.7.57,10.62,2.52,14.7.27.57.68,1.24,1.24,2.17,1.43,2.36,3.81,6.31,4.81,10.3,1.41,5.62-.64,8.2-2.3,9.66h0ZM151.82,431.25c1.38-.24,2.76-.53,4.12-.85,1.69-.4,2.72-2.06,2.3-3.7-.42-1.64-2.12-2.64-3.81-2.23-.86.21-1.73.39-2.61.56-2.03.4-4.09.7-6.15.89-1.98.19-3.98.28-5.97.28-2.13,0-4.28-.11-6.39-.32-4.16-.42-8.24-1.27-12.15-2.51-1.65-.52-3.43.35-3.97,1.95-.54,1.6.36,3.33,2.02,3.85,4.33,1.37,8.85,2.3,13.44,2.78,2.32.24,4.69.36,7.05.36,2.19,0,4.4-.1,6.58-.31,1.85-.17,3.7-.43,5.54-.75h0ZM117.35,413.21c.29-.3.58-.6.86-.91,1.88-2,3.78-4.21,4.99-6.89,1.48-3.3,1.6-6.83.32-9.69-.69-1.55-2.55-2.25-4.14-1.58-1.59.67-2.33,2.47-1.63,4.02.58,1.29.46,3.08-.31,4.8-.79,1.76-2.12,3.36-3.87,5.22-.28.29-.56.59-.83.88-1.53,1.6-3.11,3.26-4.42,5.23-3.74,5.62-4.49,12.98-1.96,19.2.49,1.2,1.68,1.93,2.93,1.93.39,0,.78-.07,1.16-.21,1.62-.62,2.41-2.39,1.77-3.96-1.8-4.42-1.27-9.65,1.39-13.64,1.02-1.53,2.35-2.92,3.75-4.4h0ZM21.87,420.38c-1.41-.99-3.38-.68-4.4.69-3.42,4.61-5.78,9.64-7.02,14.97-.2.87-.37,1.76-.52,2.64-.21,1.29.46,2.52,1.56,3.13h3.09c.81-.44,1.42-1.23,1.57-2.19.12-.75.27-1.5.44-2.24,1.05-4.52,3.06-8.8,5.98-12.73,1.02-1.37.7-3.28-.71-4.27h0ZM52.64,323.28c.42.18.86.27,1.29.27,1.2,0,2.35-.67,2.88-1.81.2-.43.39-.87.58-1.31,2.25-5.34,3.46-11.32,3.49-17.28,0-.53,0-1.07-.03-1.62,2.42-1.48,7.01-3.75,15.33-6.37.59-.18,1.16-.39,1.73-.61,2.6-1.02,4.98-2.44,7.11-4.23,2.5-2.1,4.53-4.62,6.03-7.48,1.5-2.86,2.41-5.93,2.69-9.13.29-3.32-.09-6.61-1.16-9.78-1.7-5.08-4.96-9.4-9.43-12.5-1.11-.77-2.28-1.45-3.49-2.04-1.56-.75-3.45-.14-4.22,1.37-.78,1.51-.14,3.34,1.41,4.1.91.44,1.8.96,2.64,1.54,3.37,2.33,5.82,5.59,7.1,9.42.8,2.39,1.1,4.87.87,7.37-.21,2.41-.9,4.72-2.03,6.88-1.13,2.16-2.66,4.05-4.54,5.64-1.95,1.64-4.19,2.87-6.66,3.64-6.02,1.9-10.33,3.67-13.42,5.2-2.35,1.16-3.98,2.18-5.11,3-.87.63-1.34,1.65-1.25,2.7.09,1.07.13,1.98.13,2.87-.03,5.19-1.08,10.38-3.03,15-.16.38-.33.75-.5,1.12-.71,1.54,0,3.35,1.58,4.04h0ZM51.72,294.54c.89-.74,2.13-1.62,3.84-2.62,4.21-2.45,9.98-4.84,17.16-7.1,7.52-2.37,11.66-10.24,9.21-17.54-.81-2.42-2.29-4.58-4.27-6.24-1.32-1.1-3.31-.96-4.44.32-1.14,1.28-.99,3.21.33,4.31,1.11.93,1.94,2.14,2.39,3.5.66,1.98.49,4.1-.48,5.96-.98,1.86-2.64,3.24-4.68,3.88-16.79,5.29-23.37,10.37-25.93,13.69-.49.64-.86,1.25-1.13,1.84-.89,1.93-.72,3.64-.51,5.68.09.9.19,1.84.18,2.83-.02,3.81-.78,7.6-2.19,10.95-.34.8-.72,1.59-1.13,2.35-.82,1.49-.24,3.34,1.3,4.13.47.24.98.36,1.48.36,1.13,0,2.21-.59,2.78-1.62.52-.94.99-1.92,1.41-2.91,1.71-4.07,2.63-8.64,2.66-13.23,0-1.3-.11-2.5-.21-3.46-.23-2.32-.22-2.44.42-3.27.31-.4.87-1.02,1.83-1.82h0ZM59.5,375.98c.49.27,1.03.4,1.56.4,1.09,0,2.15-.55,2.74-1.54,1.24-2.1,1.68-4.57,1.23-6.94-.31-1.66-1.95-2.76-3.66-2.46-1.71.3-2.85,1.89-2.54,3.55.18.95,0,1.98-.5,2.82-.86,1.46-.34,3.33,1.17,4.17h0ZM60.97,330.04c-.38,1.65.68,3.28,2.38,3.65l.24.05c1.36.3,2.9.64,4.45,1.08,2.31.67,4.41,1.55,6.24,2.62.51.3,1.07.44,1.62.44,1.07,0,2.11-.53,2.7-1.48.9-1.45.42-3.32-1.07-4.19-2.28-1.33-4.87-2.42-7.69-3.24-1.75-.51-3.41-.87-4.86-1.19l-.24-.05c-1.7-.37-3.38.66-3.77,2.31h0ZM36.05,353.58h0,0ZM0,340.35v-10.67c.46.81.94,1.6,1.44,2.36,3.45,5.22,7.86,9.19,13.1,11.81,5.01,2.51,10.73,3.73,17.46,3.73,1.14,0,2.36-.03,3.71-.1h.01c1.61-.08,3.16.53,4.24,1.69.83.89,1.76,1.71,2.76,2.43,1.63,1.17,3.43,2.09,5.35,2.71,1.97.64,4.03.97,6.11.97,1.01,0,2.04-.08,3.04-.23,1.72-.26,3.33.87,3.61,2.54.27,1.67-.9,3.23-2.61,3.5-1.33.21-2.69.31-4.03.31-2.77,0-5.5-.43-8.12-1.29-2.55-.83-4.94-2.04-7.1-3.6-1.2-.87-2.33-1.84-3.36-2.9-1.29.06-2.48.09-3.61.09-7.76,0-14.42-1.44-20.35-4.41-4.41-2.21-8.32-5.2-11.66-8.94h0ZM63.95,320.89c.24.3.47.6.69.91.05.07.1.14.15.21.45.65,1.14,1.11,1.92,1.29,1.4.31,2.91.66,4.53,1.12,2.45.71,4.77,1.61,6.89,2.67.46.23.96.34,1.45.34,1.14,0,2.24-.6,2.8-1.65.8-1.5.2-3.34-1.35-4.12-2.47-1.24-5.16-2.29-7.99-3.1-1.32-.38-2.59-.69-3.74-.96-.12-.16-.24-.31-.37-.47-1.07-1.33-3.05-1.57-4.42-.53-1.37,1.04-1.62,2.96-.55,4.29h0ZM56.79,402.58c.69-.61,1.06-1.48,1.02-2.38-.04-.9-.48-1.74-1.22-2.29l-.13-.1c-2.72-2.03-3.82-2.96-4.23-3.33-2.08-1.87-3.85-4.07-5.25-6.54-1.34-2.36-2.31-4.92-2.89-7.59-.58-2.67-.75-5.39-.51-8.07.14-1.61.44-3.2.87-4.73.46-1.63-.52-3.31-2.2-3.76-1.68-.45-3.41.5-3.87,2.13-.54,1.89-.9,3.85-1.08,5.83-.29,3.28-.09,6.6.62,9.86.71,3.26,1.9,6.38,3.53,9.27,1.73,3.05,3.91,5.77,6.49,8.09.51.46,1.25,1.06,2.21,1.82-.95,1.43-1.63,3.03-2,4.74-.63,2.95-.27,5.96,1.05,8.7.53,1.11,1.67,1.76,2.86,1.76.45,0,.9-.09,1.33-.29,1.58-.71,2.26-2.53,1.52-4.06-1.5-3.11-.75-6.75,1.86-9.06h0ZM15.85,405.35c1.74,0,3.15-1.37,3.15-3.06v-.09c0-1.69-1.41-3.06-3.15-3.06s-3.15,1.37-3.15,3.06v.09c0,1.69,1.41,3.06,3.15,3.06h0ZM61.82,342.11c.61.6,1.42.89,2.23.89s1.61-.3,2.23-.89c1.23-1.19,1.23-3.13,0-4.32l-.07-.06c-1.23-1.19-3.22-1.19-4.45,0-1.23,1.19-1.23,3.13,0,4.32l.07.06h0ZM68.16,365.09c.72,0,1.44-.24,2.03-.72,1-.82,2.07-1.57,3.18-2.23,2.24-1.34,4.64-2.32,7.14-2.91,6.35-1.51,12.12-.54,17.7.38,3.92.65,7.61,1.27,10.65.73,4.78-.84,8.95-5.69,9.1-10.59.05-1.69-1.32-3.09-3.06-3.14-1.74-.05-3.19,1.28-3.24,2.96-.06,1.99-2.08,4.43-3.92,4.76-1.94.34-5.25-.21-8.46-.74-5.93-.99-12.65-2.11-20.27-.3-3.13.74-6.14,1.97-8.94,3.64-1.38.82-2.7,1.75-3.94,2.77-1.33,1.09-1.5,3.02-.38,4.31.62.72,1.51,1.08,2.41,1.08h0ZM34.64,420.84c-2.23-4.63-3.17-9.53-2.79-14.57.06-.74-.17-1.47-.63-2.06-1.42-1.83-2.72-3.78-3.87-5.8-2.4-4.24-4.14-8.8-5.17-13.57-1.03-4.76-1.34-9.62-.91-14.44.28-3.12.87-6.22,1.76-9.19.48-1.62-.48-3.32-2.15-3.78-1.67-.47-3.42.46-3.9,2.08-1,3.36-1.67,6.85-1.99,10.37-.49,5.42-.14,10.88,1.02,16.23,1.16,5.35,3.12,10.48,5.82,15.25,1.1,1.94,2.33,3.83,3.66,5.63-.11,2.62.08,5.25.58,7.83.56,2.96,1.52,5.86,2.85,8.62.53,1.11,1.67,1.76,2.86,1.76.45,0,.9-.09,1.33-.29,1.58-.71,2.26-2.53,1.52-4.06h0ZM3.14,402.67c-.34,1.66.77,3.26,2.48,3.59.21.04.41.06.62.06,1.47,0,2.79-1.01,3.09-2.46,1.13-5.54.95-11.37-.56-17.34-1.88-7.49-5.48-13.69-7.46-16.99-.15-1.45-.27-3.73-.34-5.03-.17-3.12-.37-7.01-.96-11.31v27.23c1.01,2.28,1.96,4.83,2.65,7.54,1.28,5.1,1.45,10.05.5,14.71h0ZM7.65,365.37c1.6,0,2.97-1.18,3.13-2.75l.34-3.31c.17-1.68-1.09-3.18-2.82-3.34-1.73-.17-3.27,1.06-3.45,2.74l-.34,3.31c-.17,1.68,1.09,3.18,2.82,3.34.11.01.21.02.32.02h0ZM43.61,403.62s.01-.04.02-.07c0,.02-.01.04-.02.07h0ZM36.91,408.15c.02-1.68.16-3.21.3-4.33-2.12-2.35-3.99-4.93-5.56-7.71-2.17-3.83-3.74-7.95-4.67-12.26-.94-4.31-1.21-8.7-.82-13.04.32-3.54,1.07-7.01,2.25-10.31.57-1.59,2.36-2.44,4-1.89,1.64.55,2.52,2.29,1.95,3.88-1.01,2.84-1.66,5.81-1.93,8.85-.34,3.75-.1,7.54.71,11.26.81,3.72,2.16,7.28,4.03,10.58,1.57,2.77,3.48,5.32,5.67,7.58.73.75,1.02,1.79.78,2.79-.03.17-.42,2.22-.42,4.91,0,3.16.52,5.82,1.52,7.68.8,1.5.2,3.34-1.34,4.12-.46.23-.96.34-1.45.34-1.14,0-2.24-.6-2.8-1.65-1.52-2.84-2.27-6.47-2.23-10.79h0ZM8.97,375.78c1.74,0,3.15-1.37,3.15-3.06v-.17c0-1.69-1.41-3.06-3.15-3.06s-3.15,1.37-3.15,3.06v.17c0,1.69,1.41,3.06,3.15,3.06h0ZM99.17,272.65c-1.74,0-3.15,1.37-3.15,3.06v.09c0,1.69,1.41,3.06,3.15,3.06s3.15-1.37,3.15-3.06v-.09c0-1.69-1.41-3.06-3.15-3.06h0ZM77.13,244.52c.82,0,1.64-.31,2.26-.92,2.15-2.14,3.51-4.85,3.93-7.82.16-1.1,1.4-2.44,2.51-2.71,1.82-.43,5.26.14,8.59.7,3.53.59,7.53,1.25,11.87,1.25,2.29,0,4.44-.18,6.57-.56,1.86-.33,3.7-.82,5.48-1.47,1.63-.59,2.45-2.36,1.84-3.94-.61-1.58-2.43-2.38-4.06-1.78-1.42.52-2.89.91-4.38,1.18-1.75.31-3.53.46-5.44.46-3.8,0-7.36-.59-10.8-1.17-4.14-.69-8.06-1.34-11.15-.61-3.63.86-6.75,4.22-7.26,7.82-.23,1.67-1,3.19-2.2,4.39-1.21,1.21-1.19,3.14.06,4.32.61.58,1.4.87,2.2.87h0ZM93.79,256.64c.75,0,1.5-.26,2.1-.78l1.84-1.6c1.29-1.13,1.4-3.06.24-4.31-1.16-1.26-3.15-1.36-4.45-.23l-1.84,1.6c-1.29,1.13-1.4,3.06-.24,4.31.62.67,1.48,1.01,2.34,1.01h0ZM86.63,247.76c.51.3,1.07.44,1.63.44,1.07,0,2.11-.53,2.7-1.47.47-.75.89-1.52,1.27-2.31.1.02.2.03.3.05,3.78.63,8.47,1.41,13.76,1.41,2.97,0,5.78-.24,8.57-.73,2.64-.46,5.24-1.17,7.74-2.11,1.62-.61,2.43-2.38,1.8-3.95-.63-1.57-2.45-2.36-4.07-1.75-2.13.8-4.35,1.4-6.6,1.8-2.42.42-4.85.63-7.44.63-4.75,0-9.15-.73-12.69-1.32-.95-.16-1.92-.32-2.86-.46-1.5-.22-2.95.63-3.45,2.02-.44,1.24-1.02,2.43-1.72,3.55-.9,1.44-.42,3.32,1.06,4.2h0ZM40.91,289.86c4.34-5.64,13.87-10.81,28.34-15.37,1.65-.52,2.56-2.24,2.02-3.85-.54-1.6-2.31-2.48-3.97-1.96-8.37,2.64-15.32,5.54-20.65,8.63-4.73,2.74-8.36,5.74-10.8,8.9-2.28,2.97-3.33,5.81-3.76,8.33-.46,2.69-.23,5.01-.05,6.74.07.69.13,1.28.13,1.71-.03,5.11-2,9.64-5.28,12.11-1.37,1.04-1.62,2.96-.55,4.29.62.77,1.55,1.18,2.49,1.18.68,0,1.36-.21,1.93-.65,2.56-1.93,4.53-4.53,5.88-7.72,1.18-2.79,1.81-5.97,1.83-9.18,0-.74-.07-1.52-.16-2.34-.18-1.79-.39-3.85.22-6.14.39-1.47,1.1-3.03,2.37-4.68h0ZM6.42,279.43c-.42-1.64-2.12-2.64-3.81-2.23-.86.21-1.73.39-2.61.56v6.22c1.38-.24,2.76-.53,4.12-.85,1.69-.4,2.72-2.06,2.3-3.7h0ZM110.98,161.7c1.14-1.36,2.67-2.29,4.43-2.68,1.7-.38,2.75-2.02,2.36-3.66-.39-1.64-2.08-2.67-3.77-2.29-3.14.7-5.87,2.35-7.91,4.78-4.46,5.32-6.97,11.56-7.25,18.03-.08,1.87.03,3.77.33,5.64.24,1.51,1.58,2.59,3.11,2.59.16,0,.32-.01.48-.04,1.72-.26,2.9-1.82,2.63-3.49-.23-1.48-.32-2.97-.26-4.45.22-5.15,2.24-10.14,5.84-14.43h0ZM83.55,186.45l-.11.06c-1.54.79-2.13,2.63-1.32,4.13.56,1.04,1.66,1.63,2.79,1.63.49,0,1-.11,1.46-.35l.1-.05c1.54-.78,2.13-2.63,1.32-4.12-.81-1.49-2.71-2.07-4.25-1.29h0ZM64.18,203.92c.58.98,1.64,1.54,2.73,1.54.53,0,1.07-.13,1.56-.41,2.95-1.64,6.1-2.87,9.36-3.64,3.09-.74,6.24-1.09,9.61-1.09,4.71,0,8.93.7,12.65,1.32.98.16,2,.33,2.93.47.88.13,1.77-.11,2.46-.66.69-.55,1.11-1.35,1.15-2.21.07-1.39.31-2.78.7-4.14.24-.81.53-1.62.88-2.38.7-1.55-.03-3.35-1.63-4.02-1.59-.68-3.45.03-4.15,1.58-.46,1.02-.85,2.08-1.17,3.16-.2.7-.38,1.41-.52,2.12-3.87-.64-8.24-1.34-13.32-1.34-3.89,0-7.52.42-11.11,1.27-3.83.91-7.53,2.35-11,4.28-1.51.84-2.03,2.71-1.17,4.17h0ZM16.2,263.26c-.85-1.47-2.77-2-4.29-1.17-3.73,2.02-7.75,3.54-11.91,4.55v6.28c5.29-1.13,10.38-2.99,14.99-5.49,1.52-.82,2.06-2.69,1.21-4.16h0ZM75.55,160.7c-1.4-1.45-2.93-2.79-4.57-3.99-.06-.05-.13-.09-.19-.14l-.08-.06c-.93-.67-2.16-.79-3.21-.32h-.03c-1.57.73-2.25,2.55-1.51,4.08.28.58.72,1.03,1.24,1.33,1.55,1.14,2.99,2.43,4.28,3.84.41.44.93.76,1.52.91.48.13.96.26,1.42.39,1.83.53,3.62,1.15,5.32,1.84.4.16.81.24,1.22.24,1.23,0,2.4-.7,2.91-1.87.67-1.56-.08-3.35-1.69-4-1.91-.78-3.92-1.47-5.96-2.06-.22-.06-.45-.13-.67-.19h0ZM5.57,182.2c2.98,4.5,6.76,7.92,11.23,10.16,6.47,3.23,13.07,3.38,18.68,3.1.53-.03,1.06-.06,1.53-.08,1.45-.08,3.03-.17,4.22-.13,1,2.07,2.51,3.87,4.44,5.26,2.49,1.8,5.45,2.75,8.54,2.75.76,0,1.52-.06,2.27-.17,1.72-.27,2.89-1.83,2.61-3.5-.27-1.67-1.89-2.8-3.61-2.54-.42.07-.85.1-1.28.1-3.52,0-6.68-2.28-7.69-5.55-.3-.96-1.06-1.72-2.04-2.03-.08-.03-.16-.05-.25-.07-2.03-.53-4.73-.37-7.58-.22-.48.03-.98.06-1.49.08-4.77.24-10.33.13-15.47-2.43-3.47-1.74-6.44-4.44-8.81-8.02-1.67-2.53-3.06-5.49-4.25-9.06-.4-1.21-.76-2.4-1.11-3.55h0c-1.04-3.44-2.02-6.68-3.68-8.98-.6-.83-1.3-1.4-1.83-1.74v14.2c.2.64.4,1.29.62,1.95,1.36,4.08,2.97,7.51,4.94,10.49h0ZM86.62,294.54c-1.71,1.61-3.51,3.12-5.41,4.53-1.38,1.02-1.65,2.94-.59,4.28.62.79,1.56,1.2,2.5,1.2.67,0,1.34-.21,1.91-.63,3.74-2.78,7.16-5.92,10.21-9.39,1.19-1.35,2.33-2.76,3.41-4.21,1.02-1.37.7-3.28-.71-4.26-1.41-.99-3.38-.68-4.4.69-2.08,2.79-4.39,5.39-6.93,7.78h0ZM104.19,264.44c1.54-2.32,3.35-4.21,4.94-5.88l.03-.03c.26-.28.53-.55.79-.83,1.05-1.12,2.11-2.3,2.73-3.4.84-1.48.29-3.34-1.23-4.15-1.52-.82-3.44-.28-4.28,1.2-.23.41-.86,1.16-1.87,2.24-.25.27-.5.53-.76.8l-.03.03c-1.76,1.85-3.77,3.95-5.6,6.71-.94,1.42-.52,3.31.94,4.22.53.33,1.12.49,1.71.49,1.03,0,2.05-.49,2.65-1.4h0ZM5.84,154.58c2.11,2.93,3.2,6.54,4.36,10.35.34,1.13.7,2.3,1.08,3.45,1.06,3.18,2.27,5.78,3.71,7.96,1.9,2.88,4.24,5.02,6.93,6.37,4.09,2.04,8.65,2.13,12.97,1.91.48-.02.97-.05,1.46-.08,3.26-.18,6.34-.36,9.13.37,2.42.63,5.22,2.43,5.62,4.91.25,1.5,1.59,2.58,3.11,2.58.16,0,.33-.01.5-.04,1.72-.27,2.89-1.83,2.61-3.5-.4-2.43-1.71-4.68-3.78-6.5-1.75-1.54-4.04-2.73-6.44-3.35-3.77-.98-7.5-.77-11.12-.56-.47.03-.95.05-1.42.08-3.44.17-7,.14-9.76-1.24-3.19-1.59-5.65-5.12-7.53-10.77-.36-1.08-.68-2.15-1.03-3.3-1.25-4.12-2.54-8.37-5.24-12.13-1.04-1.44-2.31-2.73-3.73-3.81-1.21-.92-2.53-1.68-3.92-2.25-1.11-.46-2.24-.77-3.36-.95v6.25c2.26.67,4.45,2.32,5.84,4.26h0ZM122.68,271.59c5.41,1.72,11.22,2.59,17.06,2.59,1.82,0,3.64-.08,5.45-.26,2.23-.21,4.44-.55,6.63-1.02,5.29-1.13,10.38-2.99,14.99-5.49,1.52-.82,2.06-2.69,1.21-4.16-.85-1.47-2.77-2-4.29-1.17-3.73,2.02-7.75,3.54-11.91,4.55-8.92,2.15-18.48,1.91-27.18-.85-1.65-.52-3.43.35-3.97,1.95-.54,1.6.36,3.33,2.02,3.85h0ZM102.29,154.84c3.67-4.38,9.12-6.89,14.94-6.89,1.67,0,3.34.21,4.96.63,1.37.35,2.76-.22,3.48-1.32.17-.25.29-.54.38-.84.45-1.63-.55-3.3-2.23-3.74-2.15-.56-4.37-.84-6.59-.84-5.88,0-11.48,1.94-15.96,5.43-1.4,1.09-2.7,2.33-3.86,3.72-6,7.15-9.37,15.6-9.75,24.43-.17,4,.28,8.01,1.34,11.92.37,1.37,1.65,2.28,3.04,2.28.27,0,.54-.03.81-.1,1.68-.43,2.69-2.1,2.24-3.73-.9-3.32-1.29-6.72-1.14-10.11.32-7.51,3.21-14.71,8.34-20.83h0ZM20.99,155.89c.09,1.63,1.48,2.9,3.14,2.9.05,0,.11,0,.16,0,1.74-.09,3.07-1.52,2.98-3.21-.01-.24-.05-.61-.1-1.1-.17-1.71-.42-4.23-.02-7.2.34-2.5,1.14-5.33,2.85-8.29.85-1.47.31-3.33-1.21-4.16-1.52-.82-3.44-.3-4.29,1.17-2.35,4.08-3.34,7.97-3.7,11.28-.35,3.3-.08,6.03.1,7.8.02.21.07.69.08.82h0ZM68.67,236.92c.14.02.29.03.43.03,1.55,0,2.9-1.11,3.12-2.64.78-5.51,5.38-10.47,10.95-11.79,4.08-.97,8.49-.24,13.15.54,4.7.78,9.56,1.59,14.54.72,2.37-.42,4.66-1.25,6.81-2.48,1.5-.85,2-2.73,1.12-4.18-.88-1.45-2.81-1.94-4.31-1.09-1.51.86-3.11,1.44-4.74,1.73-3.88.68-8,0-12.35-.73-5.09-.85-10.35-1.72-15.71-.45-8.11,1.93-14.56,8.88-15.69,16.9-.24,1.67.97,3.21,2.69,3.44h0ZM139.29,176.8c-.72-1.53-2.59-2.21-4.17-1.51-1.58.7-2.28,2.52-1.55,4.05l1.73,3.67c.53,1.12,1.67,1.78,2.87,1.78.44,0,.88-.09,1.31-.28,1.58-.7,2.28-2.52,1.55-4.05l-1.73-3.67h0ZM140.12,261.86v.23c0,1.69,1.41,3.06,3.15,3.06s3.15-1.37,3.15-3.06v-.23c0-1.69-1.41-3.06-3.15-3.06s-3.15,1.37-3.15,3.06h0ZM55.52,221.87c0-1.31-.87-2.51-2.22-2.92-1.66-.5-3.42.41-3.94,2.02-.65,2.06-.98,4.21-.98,6.39,0,1.94.26,3.89.78,5.82,1.11,4.14,3.33,7.78,6.41,10.55,1.05.94,2.16,1.76,3.23,2.56,2.03,1.5,3.94,2.92,4.82,4.73.3.63.46,1.34.46,2.08,0,.68-.13,1.38-.38,2.07-.54,1.44-1.55,2.58-2.79,3.14-1.15.52-1.82,1.62-1.82,2.77,0,.43.1.87.3,1.29.53,1.11,1.67,1.76,2.86,1.76.45,0,.9-.09,1.33-.29,2.75-1.24,4.95-3.65,6.05-6.6.5-1.35.75-2.76.75-4.14,0-1.64-.35-3.24-1.05-4.69-1.53-3.15-4.27-5.19-6.7-6.98-1-.74-1.95-1.44-2.78-2.19-3.3-2.96-5.16-7.45-5.15-11.91,0-1.55.23-3.09.69-4.57.09-.3.14-.6.14-.9h0ZM140.39,188.4l-.08.08c-1.23,1.19-1.23,3.13,0,4.32.62.6,1.42.9,2.23.9s1.61-.3,2.22-.89l.09-.08c1.23-1.19,1.23-3.13,0-4.32-1.23-1.19-3.22-1.19-4.45,0h0ZM127.89,171.11c-1.35-1.06-3.33-.87-4.43.44-.97,1.16-2.15,3.01-2.25,5.23-.1,2.43,1.12,5.09,3.63,7.89,4.21,4.7,6.29,10.18,7.64,14.44,2.17,6.85,2.53,13.58,2.82,18.99.27,5.03.51,8.47,1.42,10.51.04.09.08.18.13.26.14.25.39.66.69,1.16h0c1.74,2.88,4.64,7.7,6.03,13.22.89,3.55,1.02,6.92.39,10.02-.34,1.66.77,3.26,2.48,3.59.21.04.41.06.62.06,1.47,0,2.79-1.01,3.09-2.46.81-3.97.66-8.23-.45-12.65-1.61-6.4-4.8-11.69-6.71-14.85h0c-.16-.27-.38-.64-.52-.87-.1-.29-.31-1.07-.51-2.98-.17-1.63-.27-3.51-.36-5.32-.31-5.75-.69-12.9-3.09-20.47-1.53-4.83-3.92-11.09-8.91-16.65-1.59-1.77-2.12-3.06-2.1-3.63.02-.42.33-1.03.84-1.63,1.1-1.31.89-3.23-.46-4.3h0ZM134.56,294.01h.2c1.74,0,3.15-1.37,3.15-3.06s-1.41-3.05-3.15-3.05h-.2c-1.74,0-3.15,1.37-3.15,3.05s1.41,3.06,3.15,3.06h0ZM121.79,202.31c1.76,5.57,2.07,11.3,2.34,16.37.3,5.7.57,10.62,2.52,14.7.27.57.68,1.24,1.24,2.17,1.43,2.36,3.81,6.31,4.81,10.3,1.41,5.62-.64,8.2-2.3,9.66-1.29,1.13-1.4,3.06-.23,4.32.62.67,1.48,1.01,2.34,1.01.75,0,1.51-.26,2.11-.79,2.41-2.11,3.94-4.69,4.55-7.68.49-2.41.38-5.09-.35-7.97-1.22-4.85-3.9-9.29-5.5-11.94-.42-.7-.82-1.36-.97-1.66-1.44-3.01-1.68-7.38-1.94-12.44-.29-5.41-.62-11.55-2.61-17.84-1.2-3.81-3.05-8.69-6.66-12.72-7.92-8.84-4.33-15.85-1.49-19.24,1.1-1.31.89-3.23-.46-4.3-1.35-1.07-3.33-.87-4.43.44-2.04,2.44-4.52,6.43-4.75,11.63-.23,5.29,1.92,10.5,6.37,15.47,2.83,3.16,4.37,7.27,5.39,10.5h0ZM139.7,285.05c2.19,0,4.4-.1,6.58-.31,1.85-.17,3.7-.43,5.54-.75,1.38-.24,2.76-.53,4.12-.85,1.69-.4,2.72-2.06,2.3-3.7-.42-1.64-2.12-2.64-3.81-2.23-.86.21-1.73.39-2.61.56-2.03.4-4.09.7-6.15.89-1.98.19-3.98.28-5.97.28-2.13,0-4.28-.11-6.39-.32-4.16-.43-8.24-1.27-12.15-2.51-1.65-.52-3.43.35-3.97,1.95-.54,1.6.36,3.33,2.02,3.85,4.33,1.37,8.85,2.31,13.44,2.78,2.32.24,4.69.36,7.05.36h0ZM117.35,265.94c.29-.3.58-.6.86-.91,1.88-2,3.78-4.21,4.99-6.89,1.48-3.3,1.6-6.83.32-9.69-.69-1.55-2.55-2.25-4.14-1.58-1.59.67-2.33,2.47-1.63,4.02.58,1.29.46,3.08-.31,4.8-.79,1.76-2.12,3.36-3.87,5.22-.28.29-.56.59-.83.88-1.53,1.6-3.11,3.26-4.42,5.23-3.74,5.62-4.49,12.98-1.96,19.2.49,1.2,1.68,1.93,2.93,1.93.39,0,.78-.07,1.16-.21,1.62-.62,2.41-2.4,1.77-3.96-1.8-4.42-1.27-9.65,1.39-13.64,1.02-1.53,2.35-2.92,3.75-4.4h0ZM9.94,291.41c-.21,1.29.46,2.52,1.56,3.13.32.18.68.3,1.07.36.16.02.33.04.49.04.55,0,1.08-.14,1.54-.39.81-.44,1.42-1.23,1.57-2.19.12-.75.27-1.5.44-2.24,1.05-4.52,3.06-8.8,5.98-12.73,1.02-1.37.7-3.28-.71-4.27-1.41-.99-3.38-.68-4.4.69-3.42,4.6-5.78,9.64-7.02,14.97-.2.87-.37,1.76-.52,2.64h0ZM52.64,176.01c.42.18.86.27,1.29.27,1.2,0,2.35-.67,2.88-1.81.2-.43.39-.87.58-1.31,2.25-5.34,3.46-11.32,3.49-17.28,0-.53,0-1.07-.03-1.63,2.42-1.48,7.01-3.75,15.33-6.37.59-.18,1.16-.39,1.73-.61,2.6-1.02,4.98-2.44,7.11-4.23,2.5-2.1,4.53-4.62,6.03-7.48,1.5-2.86,2.41-5.93,2.69-9.13.29-3.31-.09-6.6-1.16-9.78-1.7-5.08-4.96-9.4-9.43-12.5-1.11-.77-2.28-1.45-3.49-2.04-1.56-.75-3.45-.14-4.22,1.37-.78,1.51-.14,3.34,1.41,4.1.91.44,1.8.96,2.64,1.54,3.37,2.33,5.82,5.59,7.1,9.42.8,2.39,1.1,4.87.87,7.37-.21,2.41-.9,4.72-2.03,6.88-1.13,2.16-2.66,4.05-4.54,5.64-1.95,1.64-4.19,2.87-6.66,3.64-6.02,1.9-10.33,3.67-13.42,5.2-2.35,1.16-3.98,2.18-5.11,3-.87.63-1.34,1.65-1.25,2.7.09,1.07.13,1.98.13,2.87-.03,5.19-1.08,10.38-3.03,15-.16.38-.33.76-.5,1.12-.71,1.54,0,3.35,1.58,4.04h0ZM51.72,147.27c.89-.74,2.13-1.62,3.84-2.62,4.21-2.45,9.98-4.84,17.16-7.1,7.52-2.37,11.66-10.24,9.21-17.54-.81-2.43-2.29-4.58-4.27-6.24-1.32-1.1-3.31-.96-4.44.32-1.14,1.28-.99,3.21.33,4.31,1.11.93,1.94,2.14,2.39,3.5.66,1.98.49,4.1-.48,5.96s-2.64,3.24-4.68,3.88c-16.79,5.29-23.37,10.37-25.93,13.69-.49.64-.86,1.25-1.13,1.84-.89,1.93-.72,3.64-.51,5.68.09.91.19,1.84.18,2.83-.02,3.82-.78,7.6-2.19,10.95-.34.8-.72,1.59-1.13,2.35-.82,1.49-.24,3.34,1.3,4.13.47.25.98.36,1.48.36,1.13,0,2.21-.59,2.78-1.62.52-.94.99-1.92,1.41-2.91,1.71-4.07,2.63-8.64,2.66-13.23,0-1.3-.11-2.5-.21-3.46-.23-2.32-.22-2.44.42-3.27.31-.4.87-1.02,1.83-1.82h0ZM59.5,228.71c.49.27,1.03.4,1.56.4,1.09,0,2.15-.55,2.74-1.54,1.24-2.1,1.68-4.56,1.23-6.94-.31-1.66-1.95-2.76-3.66-2.46-1.71.3-2.85,1.89-2.54,3.55.18.95,0,1.98-.5,2.82-.86,1.46-.34,3.33,1.17,4.17h0ZM60.97,182.77c-.38,1.65.68,3.28,2.38,3.65l.24.05c1.36.3,2.9.64,4.45,1.08,2.31.67,4.41,1.55,6.24,2.62.51.3,1.07.44,1.62.44,1.07,0,2.11-.53,2.7-1.48.9-1.44.42-3.32-1.07-4.19-2.28-1.33-4.87-2.42-7.69-3.24-1.75-.51-3.41-.87-4.86-1.19l-.24-.05c-1.7-.37-3.38.66-3.77,2.31h0ZM36.05,206.31h0,0ZM0,193.08v-10.67c.46.81.94,1.6,1.44,2.36,3.45,5.22,7.86,9.19,13.1,11.81,5.01,2.51,10.73,3.73,17.46,3.73,1.14,0,2.36-.03,3.71-.1h.01c1.61-.08,3.16.53,4.24,1.69.83.89,1.76,1.71,2.76,2.43,1.63,1.17,3.43,2.09,5.35,2.71,1.97.64,4.03.97,6.11.97,1.01,0,2.04-.08,3.04-.23,1.72-.26,3.33.87,3.61,2.54.27,1.67-.9,3.23-2.61,3.5-1.33.21-2.69.31-4.03.31-2.77,0-5.5-.43-8.12-1.29-2.55-.83-4.94-2.04-7.1-3.6-1.2-.87-2.33-1.84-3.36-2.89-1.29.06-2.48.09-3.61.09-7.76,0-14.42-1.44-20.35-4.4-4.41-2.21-8.32-5.2-11.66-8.94h0ZM63.95,173.62c.24.3.47.6.69.91.05.07.1.14.15.21.45.65,1.14,1.11,1.92,1.29,1.4.31,2.91.66,4.53,1.12,2.45.71,4.77,1.61,6.89,2.67.46.23.96.34,1.45.34,1.14,0,2.24-.6,2.8-1.65.8-1.5.2-3.34-1.35-4.12-2.47-1.24-5.16-2.29-7.99-3.1-1.32-.38-2.59-.7-3.74-.96-.12-.16-.24-.31-.37-.47-1.07-1.33-3.05-1.57-4.42-.54-1.37,1.04-1.62,2.96-.55,4.29h0ZM44.47,220.28c.46-1.63-.52-3.31-2.2-3.76-1.68-.45-3.41.5-3.87,2.13-.54,1.89-.9,3.85-1.08,5.83-.29,3.28-.09,6.6.62,9.86.71,3.26,1.9,6.38,3.53,9.27,1.73,3.05,3.91,5.77,6.49,8.09.51.46,1.25,1.06,2.21,1.82-.95,1.43-1.63,3.03-2,4.74-.63,2.95-.27,5.96,1.05,8.7.53,1.11,1.67,1.76,2.86,1.76.45,0,.9-.09,1.33-.29,1.58-.71,2.26-2.53,1.52-4.06-1.5-3.11-.75-6.75,1.86-9.07.69-.61,1.06-1.48,1.02-2.38-.04-.9-.48-1.74-1.22-2.29l-.13-.1c-2.72-2.03-3.82-2.96-4.23-3.33-2.08-1.87-3.85-4.07-5.25-6.54-1.34-2.36-2.31-4.92-2.89-7.59-.58-2.67-.75-5.39-.51-8.07.14-1.61.44-3.2.87-4.73h0ZM12.7,254.94v.09c0,1.69,1.41,3.05,3.15,3.05s3.15-1.37,3.15-3.05v-.09c0-1.69-1.41-3.06-3.15-3.06s-3.15,1.37-3.15,3.06h0ZM61.82,194.84c.61.6,1.42.89,2.23.89s1.61-.3,2.23-.89c1.23-1.19,1.23-3.13,0-4.32l-.07-.06c-1.23-1.19-3.22-1.19-4.45,0-1.23,1.19-1.23,3.13,0,4.32l.07.06h0ZM68.16,217.82c.72,0,1.44-.24,2.03-.72,1-.82,2.07-1.57,3.18-2.23,2.24-1.34,4.64-2.32,7.14-2.91,6.35-1.51,12.12-.55,17.7.38,3.92.65,7.61,1.27,10.65.73,4.78-.84,8.95-5.69,9.1-10.59.05-1.69-1.32-3.09-3.06-3.14-1.74-.05-3.19,1.28-3.24,2.96-.06,1.99-2.08,4.43-3.92,4.76-1.94.34-5.25-.21-8.46-.74-5.93-.99-12.65-2.11-20.27-.3-3.13.74-6.14,1.97-8.94,3.64-1.38.82-2.7,1.75-3.94,2.77-1.33,1.09-1.5,3.02-.38,4.31.62.72,1.51,1.08,2.41,1.08h0ZM23.04,213.93c.48-1.62-.48-3.32-2.15-3.78-1.67-.47-3.42.46-3.9,2.08-1,3.36-1.67,6.85-1.99,10.37-.49,5.41-.14,10.87,1.02,16.23,1.16,5.35,3.12,10.48,5.82,15.25,1.1,1.94,2.33,3.83,3.66,5.63-.11,2.62.08,5.25.58,7.83.56,2.96,1.52,5.86,2.85,8.62.53,1.11,1.67,1.76,2.86,1.76.45,0,.9-.09,1.33-.29,1.58-.71,2.26-2.53,1.52-4.06-2.23-4.63-3.17-9.53-2.79-14.57.06-.74-.17-1.47-.63-2.06-1.42-1.83-2.72-3.78-3.87-5.8-2.4-4.24-4.14-8.8-5.17-13.57-1.03-4.76-1.34-9.62-.91-14.44.28-3.12.87-6.22,1.76-9.19h0ZM3.14,255.4c-.34,1.66.77,3.26,2.48,3.59.21.04.41.06.62.06,1.47,0,2.79-1.01,3.09-2.46,1.13-5.54.95-11.37-.56-17.34-1.88-7.49-5.48-13.69-7.46-16.99-.15-1.45-.27-3.73-.34-5.03-.17-3.12-.37-7.01-.96-11.31v27.23c1.01,2.28,1.96,4.83,2.65,7.54,1.28,5.1,1.45,10.05.5,14.71h0ZM7.65,218.1c1.6,0,2.97-1.18,3.13-2.75l.34-3.31c.17-1.68-1.09-3.18-2.82-3.34-1.73-.17-3.27,1.06-3.45,2.74l-.34,3.31c-.17,1.68,1.09,3.18,2.82,3.34.11.01.21.02.32.02h0ZM43.61,256.35s.01-.04.02-.07c0,.02-.01.04-.02.07h0ZM32.44,224.07c-.34,3.75-.1,7.54.71,11.26.81,3.72,2.16,7.28,4.03,10.58,1.57,2.77,3.48,5.32,5.67,7.58.73.75,1.02,1.79.78,2.79-.03.17-.42,2.22-.42,4.91,0,3.16.52,5.82,1.52,7.68.8,1.5.2,3.34-1.34,4.12-.46.23-.96.34-1.45.34-1.14,0-2.24-.6-2.8-1.65-1.52-2.84-2.27-6.47-2.23-10.79.02-1.68.16-3.21.3-4.33-2.12-2.35-3.99-4.93-5.56-7.71-2.17-3.83-3.74-7.95-4.67-12.26-.94-4.31-1.21-8.7-.82-13.04.32-3.54,1.07-7.01,2.25-10.31.57-1.59,2.36-2.44,4-1.89,1.64.55,2.52,2.29,1.95,3.88-1.01,2.84-1.66,5.81-1.93,8.85h0ZM8.97,228.51c1.74,0,3.15-1.37,3.15-3.06v-.18c0-1.69-1.41-3.05-3.15-3.05s-3.15,1.37-3.15,3.05v.18c0,1.69,1.41,3.06,3.15,3.06h0ZM96.03,128.43v.09c0,1.69,1.41,3.06,3.15,3.06s3.15-1.37,3.15-3.06v-.09c0-1.69-1.41-3.06-3.15-3.06s-3.15,1.37-3.15,3.06h0ZM77.13,97.25c.82,0,1.64-.31,2.26-.92,2.15-2.14,3.51-4.85,3.93-7.82.16-1.1,1.4-2.44,2.51-2.71,1.82-.43,5.26.14,8.59.69,3.53.59,7.53,1.25,11.87,1.25,2.29,0,4.44-.18,6.57-.56,1.86-.33,3.7-.82,5.48-1.47,1.63-.6,2.45-2.36,1.84-3.94-.61-1.58-2.43-2.38-4.06-1.78-1.42.52-2.89.91-4.38,1.18-1.75.31-3.53.46-5.44.46-3.8,0-7.36-.59-10.8-1.17-4.14-.69-8.06-1.34-11.15-.61-3.63.86-6.75,4.22-7.26,7.82-.23,1.67-1,3.18-2.2,4.39-1.21,1.21-1.19,3.14.06,4.32.61.58,1.4.87,2.2.87h0ZM93.79,109.37c.75,0,1.5-.26,2.1-.78l1.84-1.6c1.29-1.13,1.4-3.06.24-4.32-1.16-1.25-3.15-1.36-4.45-.23l-1.84,1.6c-1.29,1.13-1.4,3.06-.24,4.32.62.67,1.48,1.01,2.34,1.01h0ZM86.63,100.49c.51.3,1.07.44,1.63.44,1.07,0,2.11-.52,2.7-1.47.47-.75.89-1.52,1.27-2.31.1.02.2.03.3.05,3.78.63,8.47,1.41,13.76,1.41,2.97,0,5.78-.24,8.57-.73,2.64-.46,5.24-1.17,7.74-2.11,1.62-.61,2.43-2.38,1.8-3.95-.63-1.57-2.45-2.36-4.07-1.75-2.13.8-4.35,1.4-6.6,1.8-2.42.43-4.85.63-7.44.63-4.75,0-9.15-.73-12.69-1.32-.95-.16-1.92-.32-2.86-.46-1.5-.22-2.95.63-3.45,2.02-.44,1.24-1.02,2.43-1.72,3.55-.9,1.44-.42,3.32,1.06,4.2h0ZM40.91,142.59c4.34-5.64,13.87-10.81,28.34-15.37,1.65-.52,2.56-2.24,2.02-3.85-.54-1.61-2.31-2.48-3.97-1.96-8.37,2.64-15.32,5.54-20.65,8.63-4.73,2.74-8.36,5.74-10.8,8.9-2.28,2.97-3.33,5.81-3.76,8.33-.46,2.69-.23,5.01-.05,6.74.07.69.13,1.28.13,1.71-.03,5.11-2,9.64-5.28,12.12-1.37,1.04-1.62,2.96-.55,4.29.62.77,1.55,1.18,2.49,1.18.68,0,1.36-.21,1.93-.64,2.56-1.93,4.53-4.53,5.88-7.72,1.18-2.79,1.81-5.97,1.83-9.18,0-.74-.07-1.52-.16-2.34-.18-1.79-.39-3.85.22-6.14.39-1.47,1.1-3.03,2.37-4.68h0ZM6.42,132.16c-.42-1.64-2.12-2.64-3.81-2.23-.86.21-1.73.39-2.61.56v6.22c1.38-.24,2.76-.53,4.12-.85,1.69-.4,2.72-2.06,2.3-3.7h0ZM114,5.79c-3.14.7-5.87,2.35-7.91,4.78-4.46,5.32-6.97,11.56-7.25,18.03-.08,1.87.03,3.77.33,5.64.24,1.51,1.58,2.59,3.11,2.59.16,0,.32-.01.48-.04,1.72-.26,2.9-1.82,2.63-3.49-.23-1.48-.32-2.97-.26-4.45.22-5.15,2.24-10.14,5.84-14.43,1.14-1.36,2.67-2.29,4.43-2.68,1.7-.38,2.75-2.02,2.36-3.66-.39-1.64-2.08-2.67-3.77-2.29h0ZM83.55,39.18l-.11.06c-1.54.79-2.13,2.63-1.32,4.13.56,1.04,1.66,1.63,2.79,1.63.49,0,1-.11,1.46-.35l.1-.05c1.54-.78,2.13-2.63,1.32-4.13-.81-1.49-2.71-2.07-4.25-1.28h0ZM76.34,48.21c-3.83.91-7.53,2.35-11,4.28-1.51.84-2.03,2.71-1.17,4.17.58.98,1.64,1.54,2.73,1.54.53,0,1.07-.13,1.56-.41,2.95-1.64,6.1-2.87,9.36-3.64,3.09-.73,6.24-1.09,9.61-1.09,4.71,0,8.93.7,12.65,1.32.98.16,2,.33,2.93.47.88.13,1.77-.11,2.46-.66.69-.55,1.11-1.35,1.15-2.21.07-1.39.31-2.78.7-4.14.24-.81.53-1.62.88-2.38.7-1.55-.03-3.35-1.63-4.02-1.59-.68-3.45.03-4.15,1.58-.46,1.02-.85,2.08-1.17,3.16-.2.7-.38,1.4-.52,2.12-3.87-.64-8.24-1.34-13.32-1.34-3.89,0-7.52.41-11.11,1.27h0ZM16.2,115.98c-.85-1.47-2.77-2-4.29-1.17-3.73,2.03-7.75,3.54-11.91,4.55v6.28c5.29-1.13,10.38-2.99,14.99-5.49,1.52-.82,2.06-2.69,1.21-4.16h0ZM82.19,15.68c-1.91-.78-3.92-1.47-5.96-2.06-.22-.06-.45-.13-.67-.19-1.4-1.45-2.93-2.79-4.57-3.99-.06-.05-.13-.09-.19-.14l-.08-.06c-.93-.67-2.16-.8-3.21-.32h-.03c-1.57.73-2.25,2.55-1.51,4.08.28.58.72,1.03,1.24,1.33,1.55,1.14,2.99,2.44,4.28,3.84.41.44.93.76,1.52.91.48.13.96.26,1.42.39,1.83.53,3.62,1.15,5.32,1.84.4.16.81.24,1.22.24,1.23,0,2.4-.7,2.91-1.87.67-1.56-.08-3.35-1.69-4h0ZM5.57,34.93c2.98,4.5,6.76,7.92,11.23,10.16,6.47,3.23,13.07,3.38,18.68,3.1.53-.03,1.06-.06,1.53-.08,1.45-.08,3.03-.17,4.22-.13,1,2.07,2.51,3.87,4.44,5.26,2.49,1.8,5.45,2.75,8.54,2.75.76,0,1.52-.06,2.27-.17,1.72-.27,2.89-1.83,2.61-3.5-.27-1.67-1.89-2.8-3.61-2.54-.42.07-.85.1-1.28.1-3.52,0-6.68-2.28-7.69-5.55-.3-.96-1.06-1.72-2.04-2.03-.08-.03-.16-.05-.25-.07-2.03-.53-4.73-.37-7.58-.21-.48.03-.98.05-1.49.08-4.77.24-10.33.14-15.47-2.43-3.47-1.74-6.44-4.44-8.81-8.03-1.67-2.53-3.06-5.49-4.25-9.06-.4-1.21-.76-2.4-1.11-3.55h0c-1.04-3.44-2.02-6.68-3.68-8.98-.6-.83-1.3-1.4-1.83-1.74v14.2c.2.64.4,1.29.62,1.95,1.36,4.08,2.97,7.51,4.94,10.49h0ZM26.9,20.56c-1.37,1.04-1.62,2.96-.55,4.29.62.77,1.55,1.18,2.49,1.18.68,0,1.36-.21,1.93-.64,2.56-1.93,4.53-4.53,5.88-7.72,1.18-2.79,1.81-5.97,1.83-9.18,0-.74-.07-1.52-.16-2.34-.18-1.79-.39-3.85.22-6.14h-6.43c-.46,2.69-.23,5.01-.05,6.74.07.69.13,1.28.13,1.71-.03,5.11-2,9.64-5.28,12.11h0ZM86.62,147.27c-1.71,1.61-3.51,3.12-5.41,4.53-1.38,1.03-1.65,2.94-.59,4.28.62.79,1.56,1.2,2.5,1.2.67,0,1.34-.21,1.91-.63,3.74-2.78,7.16-5.92,10.21-9.39,1.19-1.35,2.33-2.76,3.41-4.21,1.02-1.37.7-3.28-.71-4.27-1.41-.99-3.38-.68-4.4.69-2.08,2.79-4.39,5.39-6.93,7.78h0ZM99.83,118.08c.53.33,1.12.49,1.71.49,1.03,0,2.05-.49,2.65-1.4,1.54-2.32,3.35-4.21,4.94-5.88l.03-.03c.26-.28.53-.55.79-.83,1.05-1.12,2.11-2.3,2.73-3.4.84-1.48.29-3.34-1.23-4.15-1.52-.82-3.44-.28-4.28,1.2-.23.41-.86,1.16-1.87,2.24-.25.27-.5.53-.76.8l-.03.03c-1.76,1.85-3.77,3.95-5.6,6.71-.94,1.42-.52,3.31.94,4.22h0ZM5.84,7.31c2.11,2.93,3.2,6.54,4.36,10.35.34,1.13.7,2.3,1.08,3.45,1.06,3.18,2.27,5.78,3.71,7.96,1.9,2.88,4.24,5.02,6.93,6.37,4.09,2.04,8.65,2.13,12.97,1.91.48-.02.97-.05,1.46-.08,3.26-.18,6.34-.35,9.13.37,2.42.63,5.22,2.43,5.62,4.91.25,1.5,1.59,2.58,3.11,2.57.16,0,.33-.01.5-.04,1.72-.27,2.89-1.83,2.61-3.5-.4-2.43-1.71-4.68-3.78-6.5-1.75-1.54-4.04-2.73-6.44-3.35-3.77-.98-7.5-.77-11.12-.56-.47.03-.95.05-1.42.08-3.44.17-7,.14-9.76-1.24-3.19-1.59-5.65-5.12-7.53-10.77-.36-1.08-.68-2.15-1.03-3.3-1.25-4.12-2.54-8.37-5.24-12.12-1.04-1.44-2.31-2.73-3.73-3.81H0v3.05c2.26.67,4.45,2.32,5.84,4.26h0ZM13.05.39c.55,0,1.08-.14,1.54-.39h-3.09c.32.18.68.3,1.07.36.16.02.33.04.49.04h0ZM147.54,3.18c1.33-.57,2.82-.55,4.28-.12,2.26.67,4.45,2.32,5.84,4.26,2.11,2.93,3.2,6.54,4.36,10.35.34,1.13.7,2.3,1.08,3.45,1.06,3.18,2.27,5.78,3.71,7.96,1.9,2.88,4.23,5.02,6.93,6.37,4.09,2.04,8.65,2.13,12.97,1.91.49-.02.97-.05,1.46-.08,3.26-.18,6.34-.35,9.13.37,2.42.63,5.22,2.43,5.62,4.91.25,1.5,1.59,2.58,3.11,2.57.16,0,.33-.01.5-.04,1.72-.27,2.89-1.83,2.61-3.5-.4-2.43-1.71-4.68-3.78-6.5-1.75-1.54-4.04-2.73-6.44-3.35-3.77-.98-7.5-.77-11.11-.56-.47.03-.95.05-1.42.08-3.44.17-7,.14-9.76-1.24-3.19-1.59-5.65-5.12-7.53-10.77-.36-1.08-.68-2.15-1.03-3.3-1.25-4.12-2.54-8.37-5.24-12.12-1.04-1.44-2.31-2.73-3.73-3.81h-15.95c-.07.53,0,1.09.25,1.62.71,1.54,2.57,2.24,4.16,1.55h0ZM88.99,40.07c.37,1.37,1.65,2.28,3.04,2.28.27,0,.54-.03.81-.1,1.68-.43,2.69-2.1,2.24-3.73-.9-3.32-1.29-6.72-1.14-10.11.32-7.51,3.21-14.71,8.34-20.83,3.67-4.38,9.12-6.89,14.94-6.89,1.67,0,3.34.21,4.96.63,1.37.35,2.76-.22,3.48-1.32h-24.4c-1.4,1.09-2.7,2.33-3.86,3.72-6,7.15-9.37,15.6-9.75,24.43-.17,4,.28,8.01,1.34,11.92h0ZM20.99,8.62c.09,1.63,1.48,2.9,3.14,2.9.05,0,.11,0,.16,0,1.74-.09,3.07-1.52,2.98-3.21-.01-.24-.05-.61-.1-1.1-.17-1.71-.42-4.23-.02-7.2h-6.35c-.35,3.3-.08,6.03.1,7.8.02.21.07.69.08.82h0ZM83.12,10.01c.67,0,1.34-.2,1.91-.63,3.74-2.78,7.16-5.92,10.21-9.39h-8.63c-1.71,1.61-3.51,3.12-5.41,4.53-1.38,1.03-1.65,2.94-.59,4.28.62.79,1.56,1.2,2.5,1.2h0ZM68.67,89.65c.14.02.29.03.43.03,1.55,0,2.9-1.11,3.12-2.64.78-5.51,5.38-10.47,10.95-11.79,4.08-.97,8.49-.24,13.15.54,4.7.78,9.56,1.59,14.54.72,2.37-.42,4.66-1.25,6.81-2.48,1.5-.85,2-2.73,1.12-4.18-.88-1.45-2.81-1.94-4.31-1.09-1.51.86-3.11,1.44-4.74,1.73-3.88.68-8,0-12.35-.73-5.09-.85-10.35-1.72-15.71-.45-8.11,1.93-14.56,8.87-15.69,16.9-.24,1.67.97,3.21,2.69,3.44h0ZM139.29,29.53c-.72-1.53-2.59-2.21-4.17-1.51-1.58.7-2.28,2.52-1.55,4.05l1.73,3.67c.53,1.12,1.67,1.78,2.87,1.78.44,0,.88-.09,1.31-.28,1.58-.7,2.28-2.52,1.55-4.05l-1.73-3.67h0ZM140.52,13.14c2.64,1.12,5.52,1.44,8.31.94.91,1.58,1.69,4.15,2.45,6.64h0c.17.59.35,1.17.54,1.77.2.64.4,1.29.63,1.95,1.36,4.08,2.97,7.51,4.94,10.49,2.98,4.5,6.76,7.92,11.23,10.16,6.47,3.23,13.07,3.38,18.67,3.1.53-.03,1.06-.06,1.53-.08,1.45-.08,3.03-.17,4.22-.13,1,2.07,2.51,3.87,4.44,5.26,2.49,1.8,5.45,2.75,8.54,2.75.76,0,1.52-.06,2.27-.17,1.72-.27,2.89-1.83,2.62-3.5-.27-1.67-1.89-2.8-3.61-2.54-.42.07-.86.1-1.28.1-3.52,0-6.68-2.28-7.69-5.55-.3-.96-1.06-1.72-2.04-2.03-.08-.03-.17-.05-.25-.07-2.03-.53-4.73-.37-7.58-.21-.48.03-.98.05-1.49.08-4.77.24-10.33.14-15.47-2.43-3.47-1.74-6.44-4.44-8.81-8.03-1.67-2.53-3.06-5.49-4.25-9.06-.4-1.21-.76-2.4-1.11-3.55h0c-1.04-3.44-2.02-6.68-3.67-8.98-.6-.83-1.3-1.4-1.83-1.74-.16-.1-.3-.19-.42-.26-.78-.44-1.72-.53-2.58-.25-3.96,1.29-8.22-.53-9.91-4.24-.7-1.54-2.57-2.24-4.16-1.55-1.59.68-2.31,2.49-1.6,4.03,1.46,3.19,4.08,5.72,7.37,7.11h0ZM146.42,114.83v-.23c0-1.69-1.41-3.05-3.15-3.05s-3.15,1.37-3.15,3.05v.23c0,1.69,1.41,3.05,3.15,3.05s3.15-1.37,3.15-3.05h0ZM55.52,74.6c0-1.31-.87-2.52-2.22-2.92-1.66-.5-3.42.41-3.94,2.02-.65,2.06-.98,4.21-.98,6.39,0,1.94.26,3.89.78,5.82,1.11,4.14,3.33,7.78,6.41,10.55,1.05.94,2.16,1.76,3.23,2.56,2.03,1.5,3.94,2.92,4.82,4.73.3.63.46,1.34.46,2.08,0,.68-.13,1.38-.38,2.07-.54,1.44-1.55,2.58-2.79,3.14-1.15.52-1.82,1.62-1.82,2.77,0,.43.1.87.3,1.29.53,1.11,1.67,1.76,2.86,1.76.45,0,.9-.09,1.33-.29,2.75-1.24,4.95-3.65,6.05-6.6.5-1.35.75-2.76.75-4.14,0-1.64-.35-3.24-1.05-4.68-1.53-3.15-4.27-5.19-6.7-6.98-1-.74-1.95-1.44-2.78-2.19-3.3-2.96-5.16-7.45-5.15-11.91,0-1.55.23-3.09.69-4.57.09-.3.14-.6.14-.9h0ZM140.39,41.13l-.08.08c-1.23,1.19-1.23,3.13,0,4.32.62.6,1.42.9,2.23.9s1.61-.3,2.22-.89l.09-.08c1.23-1.19,1.23-3.13,0-4.32-1.23-1.19-3.22-1.19-4.45,0h0ZM127.89,23.84c-1.35-1.06-3.33-.87-4.43.44-.97,1.16-2.15,3.01-2.25,5.23-.1,2.43,1.12,5.09,3.63,7.89,4.21,4.7,6.29,10.18,7.64,14.44,2.17,6.85,2.53,13.59,2.82,18.99.27,5.03.51,8.47,1.42,10.51.04.09.08.18.13.26.14.25.39.65.69,1.16h0c1.74,2.88,4.64,7.7,6.03,13.22.89,3.55,1.02,6.92.39,10.02-.34,1.66.77,3.26,2.48,3.59.21.04.41.06.62.06,1.47,0,2.79-1.01,3.09-2.46.81-3.97.66-8.23-.45-12.65-1.61-6.4-4.8-11.69-6.71-14.85h0c-.16-.27-.38-.64-.52-.87-.1-.29-.31-1.07-.51-2.98-.17-1.63-.27-3.51-.36-5.32-.31-5.75-.69-12.9-3.09-20.47-1.53-4.83-3.92-11.09-8.91-16.65-1.59-1.77-2.12-3.06-2.1-3.63.02-.42.33-1.03.84-1.63,1.1-1.31.89-3.23-.46-4.3h0ZM187.87,59.04h0s0,0,0,0h0ZM124.51,6.4c1.59-.68,3.45.01,4.16,1.55,2.69,5.88,8.43,10.07,15,10.93,1.23.16,2.24,1.01,2.59,2.16.11.35.21.69.3,1v.03c.38,1.22.76,2.49,1.21,3.83,1.15,3.46,2.48,6.5,4.04,9.24.46.81.94,1.6,1.44,2.36,3.45,5.22,7.86,9.19,13.1,11.81,5.01,2.51,10.73,3.73,17.46,3.73,1.14,0,2.36-.03,3.71-.1h0s0,0,0,0c1.61-.08,3.16.53,4.24,1.69.83.89,1.76,1.71,2.77,2.43,1.63,1.17,3.43,2.09,5.35,2.71,1.97.64,4.03.97,6.11.97,1.01,0,2.04-.08,3.04-.23,1.72-.27,3.33.87,3.61,2.54.27,1.67-.9,3.23-2.62,3.5-1.33.21-2.69.31-4.03.31-2.77,0-5.5-.43-8.12-1.29-2.55-.83-4.94-2.04-7.1-3.6-1.2-.87-2.33-1.84-3.36-2.89-1.29.06-2.48.09-3.61.09-7.76,0-14.42-1.44-20.35-4.41-4.42-2.21-8.32-5.2-11.66-8.94-1.38-1.54-2.67-3.21-3.86-5.01-2.5-3.77-4.52-8.03-6.17-13.02-.37-1.13-.7-2.18-1.01-3.19-3.54-.76-6.9-2.25-9.81-4.36-3.5-2.54-6.28-5.93-8.05-9.8-.7-1.54.01-3.35,1.6-4.03h0ZM134.76,146.74c1.74,0,3.15-1.37,3.15-3.06s-1.41-3.06-3.15-3.06h-.2c-1.74,0-3.15,1.37-3.15,3.06s1.41,3.06,3.15,3.06h.2ZM119.21,16.98c-1.35-1.06-3.33-.87-4.43.44-2.04,2.44-4.52,6.43-4.75,11.63-.23,5.29,1.92,10.5,6.37,15.47,2.83,3.16,4.37,7.27,5.39,10.5,1.76,5.57,2.07,11.3,2.34,16.37.3,5.7.57,10.62,2.52,14.7.27.57.68,1.24,1.24,2.17,1.43,2.36,3.81,6.31,4.81,10.3,1.41,5.62-.64,8.2-2.3,9.66-1.29,1.13-1.4,3.06-.23,4.31.62.67,1.48,1.01,2.34,1.01.75,0,1.51-.26,2.11-.79,2.41-2.11,3.94-4.69,4.55-7.68.49-2.41.38-5.09-.35-7.97-1.22-4.85-3.9-9.29-5.5-11.94-.42-.7-.82-1.36-.97-1.66-1.44-3.01-1.68-7.38-1.94-12.44-.29-5.41-.62-11.55-2.61-17.84-1.2-3.81-3.05-8.69-6.66-12.72-7.92-8.84-4.33-15.85-1.49-19.24,1.1-1.31.89-3.23-.46-4.3h0ZM123.52,101.18c-.69-1.55-2.55-2.26-4.14-1.58-1.59.67-2.33,2.47-1.63,4.02.58,1.29.46,3.08-.31,4.8-.79,1.76-2.12,3.36-3.87,5.22-.28.29-.56.59-.83.88-1.53,1.6-3.11,3.26-4.42,5.23-3.74,5.62-4.49,12.98-1.96,19.2.49,1.2,1.68,1.93,2.93,1.93.39,0,.78-.07,1.16-.21,1.62-.62,2.41-2.39,1.77-3.96-1.8-4.42-1.27-9.65,1.39-13.64,1.02-1.53,2.35-2.92,3.75-4.4.29-.3.58-.6.86-.91,1.88-2,3.78-4.21,4.99-6.9,1.48-3.3,1.6-6.83.32-9.69h0ZM9.94,144.14c-.21,1.29.46,2.52,1.56,3.13.32.18.68.3,1.07.36.16.02.33.04.49.04.55,0,1.08-.14,1.54-.39.81-.44,1.42-1.23,1.57-2.19.12-.75.27-1.5.44-2.24,1.05-4.52,3.06-8.8,5.98-12.73,1.02-1.37.7-3.28-.71-4.27-1.41-.99-3.38-.68-4.4.69-3.42,4.6-5.78,9.64-7.02,14.97-.2.87-.37,1.76-.52,2.64h0ZM54.58,8.57c-.03,5.19-1.08,10.38-3.03,15-.16.38-.33.76-.5,1.13-.71,1.54,0,3.35,1.58,4.04.42.18.86.27,1.29.27,1.2,0,2.35-.67,2.88-1.81.2-.43.39-.87.58-1.31,2.25-5.34,3.46-11.32,3.49-17.28,0-.53,0-1.07-.03-1.63,2.42-1.48,7.01-3.75,15.33-6.37.59-.18,1.16-.39,1.73-.61h-17.1c-2.35,1.16-3.98,2.18-5.11,3-.87.63-1.34,1.65-1.25,2.7.09,1.07.13,1.98.13,2.87h0ZM41.35,25.94c.47.24.98.36,1.48.36,1.13,0,2.21-.59,2.78-1.62.52-.94.99-1.92,1.41-2.91,1.71-4.07,2.63-8.64,2.66-13.23,0-1.3-.11-2.5-.21-3.46-.23-2.32-.22-2.44.42-3.27.31-.4.87-1.02,1.83-1.82h-8.01c-.89,1.93-.72,3.64-.51,5.68.09.91.19,1.84.18,2.83-.02,3.81-.78,7.6-2.19,10.95-.34.8-.72,1.59-1.13,2.35-.82,1.49-.24,3.34,1.3,4.13h0ZM59.5,81.44c.49.27,1.03.4,1.56.4,1.09,0,2.15-.55,2.74-1.54,1.24-2.1,1.68-4.56,1.23-6.94-.31-1.66-1.95-2.76-3.66-2.46-1.71.3-2.85,1.89-2.54,3.55.18.95,0,1.98-.5,2.82-.86,1.46-.34,3.33,1.17,4.17h0ZM60.97,35.5c-.38,1.65.68,3.28,2.38,3.65l.24.05c1.36.3,2.9.64,4.45,1.08,2.31.67,4.41,1.55,6.24,2.62.51.3,1.07.44,1.62.44,1.07,0,2.11-.53,2.7-1.48.9-1.44.42-3.32-1.07-4.19-2.28-1.33-4.87-2.42-7.69-3.24-1.75-.51-3.41-.87-4.86-1.19l-.24-.05c-1.7-.37-3.38.66-3.77,2.31h0ZM36.05,59.04h0s0,0,0,0h0ZM0,45.81v-10.66c.46.81.94,1.6,1.44,2.36,3.45,5.22,7.86,9.19,13.1,11.81,5.01,2.51,10.73,3.73,17.46,3.73,1.14,0,2.36-.03,3.71-.1h0s0,0,0,0c1.61-.08,3.16.53,4.24,1.69.83.89,1.76,1.71,2.76,2.43,1.63,1.17,3.43,2.09,5.35,2.71,1.97.64,4.03.97,6.11.97,1.01,0,2.04-.08,3.04-.23,1.72-.27,3.33.87,3.61,2.54.27,1.67-.9,3.23-2.61,3.5-1.33.21-2.69.31-4.03.31-2.77,0-5.5-.43-8.12-1.29-2.55-.83-4.94-2.04-7.1-3.6-1.2-.87-2.33-1.84-3.36-2.89-1.29.06-2.48.09-3.61.09-7.76,0-14.42-1.44-20.35-4.41-4.41-2.21-8.32-5.2-11.66-8.94h0ZM63.95,26.35c.24.3.47.6.69.91.05.07.1.14.15.21.45.65,1.14,1.11,1.92,1.29,1.4.31,2.91.66,4.53,1.12,2.45.71,4.77,1.61,6.89,2.67.46.23.96.34,1.45.34,1.14,0,2.24-.6,2.8-1.65.8-1.5.2-3.34-1.35-4.12-2.47-1.24-5.16-2.29-7.99-3.1-1.32-.38-2.59-.69-3.74-.96-.12-.16-.24-.31-.37-.47-1.07-1.33-3.05-1.57-4.42-.53-1.37,1.04-1.62,2.96-.55,4.29h0ZM44.47,73.01c.46-1.63-.52-3.31-2.2-3.76-1.68-.45-3.41.5-3.87,2.13-.54,1.89-.9,3.85-1.08,5.83-.29,3.28-.09,6.6.62,9.86.71,3.26,1.9,6.38,3.53,9.27,1.73,3.05,3.91,5.77,6.49,8.09.51.46,1.25,1.06,2.21,1.82-.95,1.43-1.63,3.03-2,4.74-.63,2.95-.27,5.96,1.05,8.7.53,1.11,1.67,1.76,2.86,1.76.45,0,.9-.09,1.33-.29,1.58-.71,2.26-2.53,1.52-4.06-1.5-3.11-.75-6.75,1.86-9.07.69-.61,1.06-1.48,1.02-2.38-.04-.9-.48-1.74-1.22-2.29l-.13-.1c-2.72-2.03-3.82-2.96-4.23-3.33-2.08-1.87-3.85-4.07-5.25-6.54-1.34-2.36-2.31-4.92-2.89-7.59-.58-2.67-.75-5.39-.51-8.07.14-1.61.44-3.2.87-4.73h0ZM12.7,107.67v.09c0,1.69,1.41,3.06,3.15,3.06s3.15-1.37,3.15-3.06v-.09c0-1.69-1.41-3.06-3.15-3.06s-3.15,1.37-3.15,3.06h0ZM61.75,47.51l.07.06c.61.6,1.42.89,2.23.89s1.61-.3,2.23-.89c1.23-1.19,1.23-3.13,0-4.32l-.07-.06c-1.23-1.19-3.22-1.19-4.45,0-1.23,1.19-1.23,3.13,0,4.32h0ZM68.16,70.55c.72,0,1.44-.24,2.03-.72,1-.82,2.07-1.57,3.18-2.23,2.24-1.34,4.64-2.32,7.14-2.91,6.35-1.51,12.12-.55,17.7.38,3.92.65,7.61,1.27,10.65.73,4.78-.84,8.95-5.69,9.1-10.59.05-1.69-1.32-3.09-3.06-3.14-1.74-.05-3.19,1.28-3.24,2.96-.06,1.99-2.08,4.43-3.92,4.76-1.94.34-5.25-.21-8.46-.74-5.93-.99-12.65-2.11-20.27-.3-3.13.74-6.14,1.97-8.94,3.64-1.38.82-2.7,1.75-3.94,2.77-1.33,1.09-1.5,3.02-.38,4.31.62.72,1.51,1.08,2.41,1.08h0ZM23.04,66.66c.48-1.62-.48-3.32-2.15-3.78-1.67-.47-3.42.46-3.9,2.08-1,3.36-1.67,6.85-1.99,10.37-.49,5.41-.14,10.87,1.02,16.23,1.16,5.35,3.12,10.48,5.82,15.25,1.1,1.94,2.33,3.83,3.66,5.63-.11,2.63.08,5.25.58,7.83.56,2.96,1.52,5.86,2.85,8.62.53,1.11,1.67,1.76,2.86,1.76.45,0,.9-.09,1.33-.29,1.58-.71,2.26-2.53,1.52-4.06-2.23-4.63-3.17-9.53-2.79-14.57.06-.74-.17-1.47-.63-2.06-1.42-1.83-2.72-3.78-3.87-5.8-2.4-4.24-4.14-8.8-5.17-13.57-1.03-4.76-1.34-9.62-.91-14.44.28-3.12.87-6.22,1.76-9.19h0ZM3.14,108.13c-.34,1.66.77,3.26,2.48,3.59.21.04.41.06.62.06,1.47,0,2.79-1.01,3.09-2.46,1.13-5.54.95-11.37-.56-17.34-1.88-7.49-5.48-13.69-7.46-16.99-.15-1.45-.27-3.73-.34-5.03-.17-3.12-.37-7.01-.96-11.31v27.23c1.01,2.28,1.96,4.83,2.65,7.54,1.28,5.1,1.45,10.05.5,14.71h0ZM7.65,70.83c1.6,0,2.97-1.18,3.13-2.75l.34-3.31c.17-1.68-1.09-3.18-2.82-3.34-1.73-.17-3.27,1.06-3.45,2.74l-.34,3.31c-.17,1.68,1.09,3.18,2.82,3.34.11.01.21.02.32.02h0ZM43.61,109.08s.01-.04.02-.07c0,.02-.01.04-.02.07h0ZM32.44,76.8c-.34,3.75-.1,7.54.71,11.26.81,3.72,2.16,7.28,4.03,10.58,1.57,2.77,3.48,5.32,5.67,7.58.73.75,1.02,1.79.78,2.79-.03.17-.42,2.22-.42,4.91,0,3.16.52,5.82,1.52,7.68.8,1.5.2,3.34-1.34,4.12-.46.23-.96.34-1.45.34-1.14,0-2.24-.6-2.8-1.65-1.52-2.84-2.27-6.47-2.23-10.79.02-1.68.16-3.21.3-4.33-2.12-2.35-3.99-4.93-5.56-7.71-2.17-3.83-3.74-7.95-4.67-12.26-.94-4.31-1.21-8.7-.82-13.05.32-3.54,1.07-7.01,2.25-10.31.57-1.59,2.36-2.44,4-1.89,1.64.55,2.52,2.29,1.95,3.88-1.01,2.84-1.66,5.81-1.93,8.85h0ZM5.82,78.18v-.18c0-1.69,1.41-3.06,3.15-3.06s3.15,1.37,3.15,3.06v.18c0,1.69-1.41,3.06-3.15,3.06s-3.15-1.37-3.15-3.06h0Z"/>
</svg>