<?xml version="1.0" encoding="UTF-8"?>
<svg id="Layer_1" xmlns="http://www.w3.org/2000/svg" viewBox="0 0 177.57 59.65">
  <defs>
    <style>
      .cls-1 {
        fill: #2c2a29;
      }
    </style>
  </defs>
  <path class="cls-1" d="M.03,4.39c3.1-.69,6.21-.7,9.37.01.46,1.77.87,3.55,1.31,5.33.44,1.78.86,3.56,1.29,5.34.44,1.8.88,3.6,1.31,5.4.43,1.78.86,3.56,1.29,5.34.43,1.78.86,3.56,1.29,5.33.22.03.21-.13.24-.24.33-1.4.66-2.8.99-4.2,1.2-5.15,2.41-10.3,3.61-15.45.48-2.05.95-4.1,1.43-6.15.05-.22.11-.44.17-.65,2.11-.68,6.99-.87,10.15-.05.05.15.12.32.17.49,1.5,5.35,3,10.71,4.5,16.07.92,3.29,1.84,6.58,2.76,9.87.05.17.11.34.21.62.28-.84.36-1.6.52-2.35.16-.73.28-1.47.43-2.21.15-.76.31-1.51.45-2.27.15-.76.29-1.51.43-2.27.14-.74.3-1.47.44-2.21.15-.76.29-1.51.44-2.27.15-.76.3-1.51.45-2.27.14-.74.28-1.47.42-2.21.15-.76.3-1.51.45-2.27.15-.76.29-1.51.44-2.27.14-.74.3-1.47.44-2.21.15-.75.28-1.51.46-2.27,3.15-.7,6.26-.71,9.35-.02.03.06.04.08.05.1,0,.02.02.04.01.06-.04.16-.07.33-.11.49-3.3,12.59-6.6,25.18-9.89,37.75-1.79.68-7.77.71-10.36.05-.04-.11-.1-.24-.13-.38-1.79-6.57-3.58-13.14-5.37-19.71-.45-1.67-.91-3.34-1.36-5-.04-.16-.04-.34-.26-.45-1.19,4.26-2.36,8.51-3.54,12.77-1.18,4.25-2.36,8.51-3.53,12.74-1.86.68-7.7.7-10.2.05-.01-.01-.03-.03-.04-.04-.01-.02-.03-.03-.04-.05C6.7,30.06,3.35,17.37.01,4.68c-.02-.06,0-.12-.01-.18,0-.02,0-.04.03-.11Z"/>
  <path class="cls-1" d="M113.29,42.73c-.14.03-.23.06-.33.07-.94.06-7.82.01-8.28-.06-.02-.1-.06-.22-.07-.34-.01-.19,0-.38,0-.56,0-5.44,0-10.88,0-16.32,0-.48-.02-.96-.09-1.43-.22-1.49-1.08-2.49-2.41-3.13-.82-.4-1.71-.54-2.61-.58-1.26-.05-2.5.08-3.72.36-.14.03-.27.09-.44.16,0,.92,0,1.84,0,2.75,0,.9,0,1.79,0,2.69v10.94c0,.9,0,1.79,0,2.69,0,.91,0,1.83,0,2.74-.28.13-.54.09-.78.09-2.09,0-4.17,0-6.26,0-.44,0-.88,0-1.31,0-.14,0-.28-.04-.43-.06-.02-.11-.05-.19-.05-.26.03-8.56.05-17.13.08-25.71.2-.14.38-.27.57-.39,1.72-1.09,3.6-1.83,5.56-2.37,1.83-.5,3.7-.84,5.59-.97,1.81-.12,3.63-.12,5.41.34,1.92.49,3.7,1.26,5.26,2.51.11.09.23.17.37.27.1-.05.19-.08.28-.14,2.4-1.46,4.99-2.4,7.76-2.83,2.59-.4,5.16-.29,7.65.58,1.56.54,2.95,1.37,4.11,2.55,1.18,1.2,1.89,2.63,2.11,4.3.06.47.1.95.1,1.43,0,6.65,0,13.3,0,19.95,0,.25.03.5-.05.75-.09.03-.17.07-.25.07-2.71,0-5.42,0-8.13,0-.08,0-.15-.04-.24-.07-.08-.26-.05-.51-.05-.75,0-5.21,0-10.42,0-15.63,0-.5,0-1,0-1.5,0-.44-.07-.87-.19-1.29-.31-1.11-1.03-1.88-2.01-2.44-.51-.29-1.07-.48-1.64-.58-2.05-.35-4.03-.07-5.95.66-.06.02-.1.07-.18.12.03.13.05.28.1.41.4,1.24.56,2.52.56,3.82,0,5.52,0,11.05,0,16.57,0,.2-.02.41-.03.63Z"/>
  <path class="cls-1" d="M136.01,15.23c.21-.1.4-.19.59-.27,1.25-.53,2.55-.89,3.88-1.17,1.37-.29,2.74-.53,4.13-.65,2.18-.2,4.37-.26,6.56-.04,1.86.18,3.66.57,5.39,1.29,3.24,1.35,5.72,3.54,7.29,6.7.76,1.54,1.21,3.19,1.44,4.89.24,1.78.28,3.57.11,5.36-.25,2.56-.95,4.98-2.36,7.17-1.5,2.32-3.59,3.8-6.26,4.44-2.56.61-5.12.62-7.67-.1-1.29-.36-2.49-.93-3.64-1.62-.18-.11-.35-.21-.57-.34-.04.14-.08.23-.08.33-.01.19,0,.37,0,.56,0,3.04,0,6.09,0,9.13,0,.25,0,.5,0,.75-.23.16-.42.31-.63.45-.73.46-1.5.81-2.31,1.1-1.25.46-2.52.86-3.84,1.09-.63.11-1.27.25-1.95.17-.02-.12-.06-.23-.07-.35-.01-.17,0-.33,0-.5,0-12.52,0-25.05,0-37.57,0-.27,0-.54.01-.82ZM144.8,20.37c0,.3,0,.55,0,.8v9.81c0,1.31,0,2.62,0,3.94,0,.22-.04.46.08.69.2.04.4.1.6.13,1.15.18,2.31.28,3.48.28,1.11,0,2.21-.08,3.27-.41,2.01-.62,3.38-1.91,4.01-3.94.06-.2.12-.4.16-.6.34-1.46.39-2.93.23-4.41-.18-1.61-.77-3.06-1.82-4.31-.74-.89-1.65-1.52-2.73-1.9-.83-.29-1.69-.44-2.57-.48-1.44-.06-2.87.07-4.3.27-.12.02-.23.07-.42.12Z"/>
  <path class="cls-1" d="M83.91,28.21c-.03,2.18-.31,4.33-1.11,6.37-1.66,4.2-4.67,6.92-9.01,8.15-1.84.52-3.72.69-5.63.65-1.87-.03-3.7-.29-5.46-.92-4.42-1.57-7.29-4.62-8.64-9.11-.63-2.12-.82-4.29-.68-6.49.09-1.4.29-2.78.74-4.11,1.62-4.81,4.89-7.9,9.77-9.26,1.98-.55,4.01-.7,6.07-.56,1.65.12,3.27.4,4.82,1,4.64,1.78,7.48,5.13,8.66,9.93.35,1.42.47,2.88.48,4.34ZM62.12,28.12c.06.66.09,1.33.18,1.99.13.93.39,1.83.83,2.67.73,1.38,1.84,2.3,3.34,2.73,1.43.41,2.88.4,4.32,0,1.32-.37,2.34-1.16,3.07-2.31.47-.75.78-1.57.96-2.43.32-1.55.35-3.1.11-4.66-.12-.81-.35-1.59-.71-2.32-.83-1.67-2.14-2.74-3.97-3.13-.92-.2-1.85-.22-2.79-.07-1.48.24-2.71.91-3.66,2.07-.59.72-.99,1.54-1.23,2.43-.28.99-.4,2-.42,3.03Z"/>
  <path class="cls-1" d="M48.89,55.29c0,.92,0,1.83,0,2.75,0,.15,0,.29-.01.44-.09.64-.62,1.14-1.27,1.17-.23,0-.46-.02-.68-.07-1.89-.43-3.8-.74-5.72-.98-2.65-.33-5.31-.52-7.97-.63-2.5-.1-5-.12-7.5-.06-2.23.06-4.46.15-6.68.36-2.86.27-5.71.63-8.52,1.29-.2.05-.41.07-.62.06-.64-.03-1.19-.53-1.27-1.17-.02-.16-.01-.33-.01-.5,0-1.77,0-3.54,0-5.31,0-.08,0-.17,0-.25.02-.8.38-1.24,1.18-1.37,2.36-.38,4.73-.78,7.1-1.11,1.69-.24,3.39-.38,5.09-.56,1.91-.2,3.82-.29,5.74-.33,1.92-.05,3.83.05,5.75.19,1.2.09,2.41.18,3.61.3,1.16.12,2.32.25,3.48.41,1.32.18,2.64.37,3.96.57,1.07.16,2.14.34,3.21.52.78.14,1.15.58,1.16,1.38.01.96,0,1.92,0,2.88h0Z"/>
  <path class="cls-1" d="M177.4,42.75c-.15.02-.27.05-.39.05-2.75,0-5.5,0-8.28,0-.03-.16-.07-.27-.08-.39-.01-.17,0-.33,0-.5,0-9.11,0-18.22,0-27.33v-.72c1.81-1.13,6.67-1.22,8.76-.05.08.5.08,28.3,0,28.95Z"/>
  <path class="cls-1" d="M172.99,9c-2.59.03-4.47-2.07-4.48-4.53,0-2.28,2.06-4.49,4.54-4.47,2.54.01,4.66,2.25,4.51,4.54.12,2.16-1.96,4.56-4.57,4.46Z"/>
</svg>