<svg width="25" height="16" viewBox="0 0 25 16" fill="none" xmlns="http://www.w3.org/2000/svg">
<path d="M24.3045 3.02481C24.3053 3.34834 24.2504 3.66801 24.1438 3.96032C24.0371 4.25263 23.8814 4.51016 23.6882 4.71398L13.6943 15.1739C13.3963 15.4924 13.0225 15.6665 12.6367 15.6665C12.2508 15.6665 11.877 15.4924 11.579 15.1739L1.58512 4.34583C1.24496 3.97824 1.03105 3.45003 0.990447 2.87739C0.949839 2.30474 1.08586 1.73458 1.36858 1.29233C1.65131 0.850074 2.05757 0.571959 2.49801 0.519161C2.93845 0.466365 3.37699 0.643211 3.71714 1.0108L12.645 10.6911L21.5728 1.33564C21.8173 1.07082 22.115 0.902605 22.4307 0.850891C22.7465 0.799177 23.067 0.866131 23.3543 1.04383C23.6417 1.22153 23.8839 1.50254 24.0523 1.85361C24.2207 2.20467 24.3082 2.61111 24.3045 3.02481Z" fill="white"/>
</svg>
