<svg width="16" height="16" viewBox="0 0 16 16" fill="none" xmlns="http://www.w3.org/2000/svg">
<g clip-path="url(#clip0_53642_15697)">
<path d="M6.24996 7.17616H5.07712V8.41073H6.24996V7.17616ZM8.59564 7.17616H7.4228V8.41073H8.59564V7.17616ZM10.9413 7.17616H9.76848V8.41073H10.9413V7.17616ZM12.1142 2.85517H11.5277V1.62061H10.3549V2.85517H5.66354V1.62061H4.4907V2.85517H3.90428C3.25336 2.85517 2.73731 3.41073 2.73731 4.08974L2.73145 12.7317C2.73145 13.4107 3.25336 13.9663 3.90428 13.9663H12.1142C12.7592 13.9663 13.287 13.4107 13.287 12.7317V4.08974C13.287 3.41073 12.7592 2.85517 12.1142 2.85517ZM12.1142 12.7317H3.90428V5.94159H12.1142V12.7317Z" fill="white"/>
</g>
<defs>
<clipPath id="clip0_53642_15697">
<rect width="14.0741" height="14.8148" fill="white" transform="translate(0.972168 0.38623)"/>
</clipPath>
</defs>
</svg>
