<svg id="Ebene_1" data-name="Ebene 1" xmlns="http://www.w3.org/2000/svg" viewBox="0 0 230.67 233.33"><defs><style>.cls-1{fill:#e4032e;}.cls-2{fill:#fff;}</style></defs><title>Zeichenfläche 1 Kopie 10 copy</title><path class="cls-1" d="M45.17,109.59a70.5,70.5,0,1,0,76.45-63.17A70.45,70.45,0,0,0,45.17,109.59Z"/><path class="cls-2" d="M74,110.45H67.69v16.07h-4V110.45h-6.3v-3.64H74Z"/><path class="cls-2" d="M85.28,113.64a7.63,7.63,0,0,1,0,11,7.85,7.85,0,0,1-5.65,2.24,7.72,7.72,0,0,1-5.6-2.23,7.73,7.73,0,0,1,0-11,8.2,8.2,0,0,1,11.23,0Zm-8.36,2.6a4.1,4.1,0,0,0-1.08,2.91A4,4,0,0,0,76.92,122a3.89,3.89,0,0,0,5.48,0,4,4,0,0,0,1.09-2.87,4.08,4.08,0,0,0-1.09-2.9,3.82,3.82,0,0,0-5.48,0Z"/><path class="cls-2" d="M103.62,120a6.55,6.55,0,0,1-6.78,6.87A6.74,6.74,0,0,1,91.93,125,6.66,6.66,0,0,1,90,120v-8.27h4v8.6a2.69,2.69,0,0,0,2.81,2.84,2.68,2.68,0,0,0,2-.78,2.76,2.76,0,0,0,.79-2.06v-8.6h4Z"/><path class="cls-2" d="M126.67,123.15a6.16,6.16,0,0,1-4.57-1.81,6.32,6.32,0,0,1-1.79-4.64A6.4,6.4,0,0,1,122.1,112a6.14,6.14,0,0,1,4.57-1.82,6.4,6.4,0,0,1,5.65,3.32l3-2.15a9.47,9.47,0,0,0-3.6-3.6,10.12,10.12,0,0,0-5.09-1.3,10.34,10.34,0,0,0-7.47,2.94,10.22,10.22,0,0,0,0,14.55,10.87,10.87,0,0,0,12.59,1.64,9.23,9.23,0,0,0,3.58-3.6l-3-2.15A6.4,6.4,0,0,1,126.67,123.15Z"/><path class="cls-2" d="M113.75,111.56a4.88,4.88,0,0,0-4.06,2v-1.79H106v14.79h4v-7.38a3.69,3.69,0,0,1,1.08-2.88,4.16,4.16,0,0,1,2.9-1h.2a12.38,12.38,0,0,1,.87-3.56A4.37,4.37,0,0,0,113.75,111.56Z"/><path class="cls-2" d="M131.76,107.75a9.47,9.47,0,0,1,3.6,3.6l-3,2.15a6.4,6.4,0,0,0-5.65-3.32A6.14,6.14,0,0,0,122.1,112a6.4,6.4,0,0,0-1.79,4.69,6.32,6.32,0,0,0,1.79,4.64,6.16,6.16,0,0,0,4.57,1.81,6.4,6.4,0,0,0,5.65-3.32l3,2.15a9.22,9.22,0,0,1-3.58,3.6,10.87,10.87,0,0,1-12.59-1.64,10.22,10.22,0,0,1,0-14.55,10.34,10.34,0,0,1,7.47-2.94A10.12,10.12,0,0,1,131.76,107.75Z"/><path class="cls-2" d="M151.07,120.49h-10.4a3.77,3.77,0,0,0,1.48,2.17,4.61,4.61,0,0,0,2.7.76,6.65,6.65,0,0,0,4.12-1.49l1.67,2.75a9,9,0,0,1-5.91,2.21,8,8,0,0,1-5.8-2.23,7.36,7.36,0,0,1-2.3-5.51,7.63,7.63,0,0,1,7.74-7.74,6.69,6.69,0,0,1,7,6.87A9.59,9.59,0,0,1,151.07,120.49Zm-9.08-5a4.13,4.13,0,0,0-1.31,2.18h6.75a2.83,2.83,0,0,0-1-2.18,3.3,3.3,0,0,0-2.24-.81A3.37,3.37,0,0,0,142,115.47Z"/><path class="cls-2" d="M162.66,111.74v3.55h-1.08a4.16,4.16,0,0,0-2.9,1,3.69,3.69,0,0,0-1.08,2.88v7.38h-4V111.74h3.7v1.79a4.88,4.88,0,0,1,4.06-2A4.38,4.38,0,0,1,162.66,111.74Z"/><path class="cls-2" d="M173.31,123.15v3.38a11.45,11.45,0,0,1-2.78.36,6.32,6.32,0,0,1-4.36-1.39,5.3,5.3,0,0,1-1.55-4.17V108h4v3.73h4.18v3.41h-4.18V121a2.14,2.14,0,0,0,.66,1.78,3.36,3.36,0,0,0,2.09.52Q171.75,123.27,173.31,123.15Z"/><path class="cls-1" d="M29.18,129.4l.55,2.87,7.29-1.4.35,1.83-7.29,1.4.55,2.86-1.65.32-1.45-7.56Z"/><path class="cls-1" d="M35.77,114.26l-3.22,2.35V118h3.21v1.86l-9.1,0V116.4a3,3,0,0,1,2.95-3.27,2.81,2.81,0,0,1,2.59,1.61l3.58-2.57ZM30.9,118v-1.56a1.31,1.31,0,1,0-2.61,0V118Z"/><path class="cls-1" d="M36.59,98.57l-.75,3.65,1.06.74-.4,2-8.27-5.84.12-.61,9.9-2.12-.4,2Zm-4.89.9,2.77,1.81L35,98.9Z"/><path class="cls-1" d="M35,78.8l7,7.28-.24.57-10.12.24.8-2h6L34.2,80.74Z"/><path class="cls-1" d="M44.58,65.87l-2.35,3.56,1.54,1,1.73-2.61,1.32.88-1.73,2.61L47,72.59l2.44-3.69,1.4.93-3.47,5.25L39.8,70l3.38-5.11Z"/><path class="cls-1" d="M56.39,60.64l2.76-2.87,1.21,1.17-4.06,4.21-6.56-6.31L51,55.49Z"/><path class="cls-1" d="M77,38.37l-3.63,2,1.08,2,3-1.6.8,1.48-3,1.6,1.64,3-1.64.88-4.31-8,5.27-2.83Z"/><path class="cls-1" d="M95.69,34.66a4.84,4.84,0,1,1-6-3.13A4.74,4.74,0,0,1,95.69,34.66Zm-7.44,2.22a2.92,2.92,0,1,0,1.95-3.7A2.84,2.84,0,0,0,88.25,36.87Z"/><path class="cls-1" d="M111,37.16l-2.61-3-1.36.11.26,3.2-1.86.15-.73-9.07,3.41-.27a3,3,0,0,1,3.51,2.67,2.81,2.81,0,0,1-1.39,2.71L113,37Zm-4.1-4.54,1.55-.12a1.31,1.31,0,1,0-.21-2.6l-1.55.12Z"/><path class="cls-1" d="M139.78,33l-2.84-.69-1.74,7.22-1.81-.44,1.74-7.22-2.83-.68.4-1.64,7.48,1.81Z"/><path class="cls-1" d="M155.81,42.64a4.84,4.84,0,1,1-2.37-6.34A4.74,4.74,0,0,1,155.81,42.64Zm-7-3.32a2.92,2.92,0,1,0,3.92-1.46A2.84,2.84,0,0,0,148.79,39.32Z"/><path class="cls-1" d="M173.81,49.5l-5.73,7.28-1.46-1.15,3-3.81-3.57.84-.48-.37,0-3.67-3,3.81-1.46-1.15L166.81,44l.48.38,0,6.25,6.07-1.49Z"/><path class="cls-1" d="M183.79,67.38a4.84,4.84,0,1,1,.61-6.74A4.75,4.75,0,0,1,183.79,67.38Zm-4.89-6a2.92,2.92,0,1,0,4.17.39A2.84,2.84,0,0,0,178.91,61.35Z"/><path class="cls-1" d="M187.31,82.48l1.8-3.56-.62-1.22-2.87,1.46-.84-1.66,8.12-4.13,1.55,3a3,3,0,0,1-1.13,4.26,2.81,2.81,0,0,1-3-.25l-2,3.92ZM190,77l.71,1.39A1.31,1.31,0,1,0,193,77.16l-.71-1.39Z"/><path class="cls-1" d="M192.62,97.33l2.46-3.13-.37-1.32-3.1.86-.5-1.79,8.77-2.44.92,3.3a3,3,0,0,1-2,3.95,2.81,2.81,0,0,1-2.93-.85l-2.75,3.44Zm3.68-4.89.42,1.5a1.31,1.31,0,1,0,2.51-.7l-.42-1.5Z"/><path class="cls-1" d="M199.59,116a4.84,4.84,0,1,1,4.41-5.14A4.75,4.75,0,0,1,199.59,116Zm-.48-7.75a2.92,2.92,0,1,0,3.17,2.73A2.84,2.84,0,0,0,199.11,108.25Z"/><path class="cls-1" d="M201.52,138.74,193,133.6l.1-.6,6.05-1.54L194,128l.1-.6,9.75-2-.35,2-5.64,1.09,5.06,3.28-.1.61-5.84,1.42,4.93,2.9Z"/><path class="cls-1" d="M43.82,162.31a2.24,2.24,0,0,1-2.31-3.84,2.24,2.24,0,0,1,2.31,3.84Z"/><path class="cls-1" d="M65.46,181.83l-1.71-.16a3,3,0,0,0-1-2.86,3,3,0,0,0-3.89,4.55,3,3,0,0,0,3,.53l.42,1.67a4.52,4.52,0,0,1-4.53-.9,4.72,4.72,0,1,1,6.15-7.16A4.52,4.52,0,0,1,65.46,181.83Z"/><path class="cls-1" d="M78.36,189.4l-3.72-2.08-.9,1.61,2.73,1.53-.77,1.38L73,190.32l-1.12,2,3.86,2.16L74.88,196l-5.49-3.07,4.44-7.95,5.34,3Z"/><path class="cls-1" d="M89.56,201.81,88.32,198,87,197.6l-1,3.05-1.77-.58,2.84-8.65,3.25,1.07a3,3,0,0,1,2.2,3.82,2.81,2.81,0,0,1-2.33,2l1.34,4.2Zm-2-5.78,1.48.49a1.31,1.31,0,1,0,.81-2.48l-1.48-.49Z"/><path class="cls-1" d="M108.51,198l-2.9-.38-1,7.36-1.85-.24,1-7.36-2.88-.37.22-1.67,7.63,1Z"/><path class="cls-1" d="M119,205.51l-1.86.05-.26-9.1,1.86-.05Z"/><path class="cls-1" d="M134,196.11l-4.05.77.42,2.24,3.32-.63.31,1.65-3.32.63.64,3.4-1.83.35-1.69-8.94,5.88-1.11Z"/><path class="cls-1" d="M146.54,200l-1.75.63-3.1-8.56,1.75-.63Z"/><path class="cls-1" d="M157.88,186.3l-3.72,2.08.9,1.61,2.73-1.53.77,1.38-2.73,1.53,1.12,2,3.86-2.16.82,1.47-5.49,3.07-4.44-7.95,5.35-3Z"/><path class="cls-1" d="M173.17,178.21c1.74,2,1.42,4.81-.81,6.7l-2.27,1.93-5.9-6.93,2.27-1.93C168.69,176.09,171.4,176.13,173.17,178.21ZM166.7,180l3.72,4.37.84-.72a2.81,2.81,0,0,0,.45-4.19,2.75,2.75,0,0,0-4.17-.18Z"/><path class="cls-1" d="M188.94,158.9a2.24,2.24,0,0,1-2.34,3.82,2.24,2.24,0,0,1,2.34-3.82Z"/><path class="cls-1" d="M31.84,187.58l-8.53-27.37,21.07,19.43-2.82,1.79A98.17,98.17,0,0,0,204.17,74.91l6.09,4.95.51-8.07A105.47,105.47,0,0,1,35.31,185.39Z"/><path class="cls-1" d="M207.36,73.12l-8.54-27.37-3.47,2.19A105.47,105.47,0,0,0,19.9,161.56l.51-8.08,6.08,4.94A98.17,98.17,0,0,1,189.11,51.9l-2.83,1.79,21.08,19.43h0"/></svg>