<?xml version="1.0" encoding="UTF-8"?>
<svg id="Layer_55" xmlns="http://www.w3.org/2000/svg" viewBox="0 0 70.5 68">
  <defs>
    <style>
      .cls-1 {
        fill: #ff6549;
      }
    </style>
  </defs>
  <path class="cls-1" d="M36.55,3.09c1.45,0,2.91.1,4.35.31,16.64,2.38,28.24,17.85,25.87,34.48-2.13,14.92-15.09,26.18-30.13,26.18-1.45,0-2.91-.1-4.35-.31-4.39-.63-8.52-2.19-12.28-4.64l-1.36-.89-1.48.65-13.77,6.02,6.95-13.03.79-1.48-.85-1.45c-3.51-6.01-4.85-12.81-3.87-19.67C8.55,14.34,21.5,3.09,36.55,3.09M28.21,42.33l1.98,12.05c.4,2.44,2.49,4.21,4.96,4.21,1.91,0,3.62-1.06,4.48-2.78l16.4-33,.31-.64v-.16c.42-1.36.23-2.84-.53-4.07-.91-1.48-2.55-2.4-4.27-2.4h0c-.66,0-1.3.13-1.93.39L15.56,30c-2.02.84-3.26,2.86-3.08,5.04.18,2.18,1.72,3.98,3.85,4.48l11.88,2.81M36.55.09C20.15.09,5.83,12.14,3.45,28.84c-1.11,7.78.57,15.31,4.25,21.61L.4,64.12c-1.02,1.94.49,4.05,2.42,4.05.36,0,.74-.07,1.12-.24l14.43-6.31c3.96,2.58,8.51,4.39,13.49,5.1,1.61.23,3.2.34,4.78.34,16.39,0,30.72-12.05,33.1-28.75C72.35,20.01,59.63,3.05,41.32.43c-1.61-.23-3.2-.34-4.78-.34h0ZM35.15,55.58c-.92,0-1.82-.6-2-1.69l-2.08-12.7c-.13-.8-.73-1.45-1.53-1.64l-12.52-2.96c-1.9-.45-2.12-3.08-.31-3.83l34.06-14.08c.26-.11.53-.16.78-.16,1.4,0,2.5,1.51,1.8,2.92h0s-16.4,33.01-16.4,33.01c-.38.76-1.09,1.12-1.8,1.12h0Z"/>
</svg>